{"glyphs":{"0":{"ha":956,"x_min":69,"x_max":886,"o":"m 478 986 q 657 956 582 986 q 781 874 732 925 q 855 753 831 822 q 883 610 879 685 q 886 485 886 550 q 883 363 886 419 q 855 219 879 288 q 781 99 831 150 q 657 17 732 47 q 478 -14 582 -14 q 299 17 374 -14 q 174 99 224 47 q 101 219 125 150 q 72 363 76 288 q 69 485 69 419 q 72 610 69 550 q 101 753 76 685 q 174 874 125 822 q 299 956 224 925 q 478 986 374 986 m 626 369 q 626 603 632 488 q 616 667 624 638 q 592 717 608 696 q 547 751 575 739 q 478 764 519 764 q 408 751 436 764 q 364 717 381 739 q 339 667 347 696 q 329 603 331 638 q 329 369 322 488 q 338 306 331 335 q 363 255 346 276 q 408 221 381 233 q 478 208 436 208 q 547 221 519 208 q 592 255 575 233 q 617 306 610 276 q 626 369 625 335 z "},"1":{"ha":699,"x_min":19,"x_max":607,"o":"m 29 660 q 22 688 19 672 q 38 713 25 703 l 336 942 q 363 961 347 950 q 400 972 379 972 l 569 972 q 596 961 585 972 q 607 935 607 950 l 607 38 q 596 11 607 22 q 569 0 585 0 l 388 0 q 361 11 372 0 q 350 38 350 22 l 350 644 l 185 519 q 157 512 172 510 q 132 526 142 514 l 29 660 z "},"2":{"ha":925,"x_min":56,"x_max":864,"o":"m 842 660 q 833 582 842 619 q 805 509 825 544 q 752 439 785 474 q 672 369 719 404 l 478 222 l 826 222 q 853 211 842 222 q 864 185 864 200 l 864 38 q 853 11 864 22 q 826 0 842 0 l 93 0 q 67 11 78 0 q 56 38 56 22 l 56 157 q 65 201 56 179 q 96 239 74 224 l 511 536 q 572 602 560 572 q 585 660 585 632 q 581 687 585 669 q 565 722 578 704 q 530 751 553 739 q 468 764 507 764 q 405 751 429 764 q 367 721 381 738 q 348 687 354 704 q 339 661 342 669 q 317 635 332 642 q 283 629 303 629 l 113 629 q 91 638 100 629 q 82 660 82 647 q 107 776 83 718 q 178 881 131 833 q 298 957 226 928 q 467 986 369 986 q 628 959 558 986 q 746 887 699 932 q 817 783 793 842 q 842 660 842 724 z "},"3":{"ha":939,"x_min":49,"x_max":878,"o":"m 792 972 q 818 961 807 972 q 829 935 829 950 l 829 788 q 819 760 829 772 q 801 739 810 747 l 633 569 q 810 476 742 542 q 878 301 878 410 q 769 65 878 144 q 467 -14 661 -14 q 290 10 367 -14 q 160 72 213 33 q 78 160 107 111 q 49 261 50 210 q 58 283 49 274 q 79 292 67 292 l 254 292 q 299 278 283 292 q 333 250 314 265 q 381 222 351 235 q 467 208 411 208 q 577 231 533 208 q 621 301 621 253 q 577 372 621 350 q 467 394 533 394 l 351 394 q 325 406 336 394 q 314 432 314 417 l 314 551 q 324 579 314 567 q 343 601 333 592 l 490 750 l 128 750 q 101 761 113 750 q 90 788 90 772 l 90 935 q 101 961 90 950 q 128 972 113 972 l 792 972 z "},"4":{"ha":976,"x_min":43,"x_max":932,"o":"m 556 0 q 529 11 540 0 q 518 38 518 22 l 518 179 l 81 179 q 54 190 65 179 q 43 217 43 201 l 43 364 q 61 424 43 400 l 476 947 q 499 967 489 963 q 528 972 510 972 l 738 972 q 764 961 753 972 q 775 935 775 950 l 775 401 l 894 401 q 921 390 910 401 q 932 364 932 379 l 932 217 q 921 190 932 201 q 894 179 910 179 l 775 179 l 775 38 q 764 11 775 22 q 738 0 753 0 l 556 0 m 525 401 l 525 657 l 322 401 l 525 401 z "},"5":{"ha":908,"x_min":49,"x_max":856,"o":"m 306 289 q 327 263 315 276 q 356 237 339 249 q 396 217 372 225 q 451 208 419 208 q 507 216 481 208 q 554 239 533 224 q 587 276 575 254 q 599 329 599 299 q 562 406 599 376 q 461 436 525 436 q 424 431 442 436 q 392 419 407 425 q 365 407 378 413 q 344 401 353 401 l 128 401 q 100 413 111 401 q 90 439 89 424 l 132 935 q 144 961 133 950 q 169 972 154 972 l 764 972 q 790 961 779 972 q 801 935 801 950 l 801 788 q 790 761 801 772 q 764 750 779 750 l 360 750 l 350 626 q 408 649 375 640 q 479 658 440 658 q 628 636 560 658 q 748 572 697 614 q 827 469 799 531 q 856 329 856 408 q 824 182 856 246 q 738 74 793 118 q 610 8 683 31 q 451 -14 536 -14 q 283 10 357 -14 q 157 76 208 35 q 78 170 106 117 q 49 281 50 224 q 58 302 49 293 q 79 311 67 311 l 256 311 q 290 303 278 311 q 306 289 301 294 z "},"6":{"ha":918,"x_min":49,"x_max":878,"o":"m 878 335 q 844 188 878 253 q 754 79 811 124 q 622 10 697 35 q 464 -14 547 -14 q 306 10 381 -14 q 173 79 231 35 q 82 188 115 124 q 49 335 49 253 q 59 413 49 378 q 85 479 69 449 q 118 536 100 510 q 153 586 136 563 l 418 944 q 433 962 425 951 q 461 972 442 972 l 682 972 q 702 963 694 972 q 710 942 710 954 q 708 931 710 935 q 703 924 706 926 l 522 679 q 660 644 596 671 q 774 573 725 617 q 850 469 822 529 q 878 335 878 408 m 306 335 q 319 281 306 304 q 356 241 333 257 q 406 217 378 225 q 464 208 435 208 q 522 217 493 208 q 572 241 550 225 q 607 281 593 257 q 621 335 621 304 q 607 389 621 365 q 572 428 593 413 q 522 453 550 444 q 464 461 493 461 q 406 453 435 461 q 356 428 378 444 q 319 389 333 413 q 306 335 306 365 z "},"7":{"ha":818,"x_min":40,"x_max":779,"o":"m 188 33 q 192 50 188 39 l 492 750 l 78 750 q 51 761 63 750 q 40 788 40 772 l 40 935 q 51 961 40 950 q 78 972 63 972 l 742 972 q 768 961 757 972 q 779 935 779 950 l 779 806 q 757 735 779 783 l 456 33 q 441 10 450 21 q 415 0 432 0 l 221 0 q 197 10 207 0 q 188 33 188 19 z "},"8":{"ha":953,"x_min":65,"x_max":888,"o":"m 86 681 q 117 805 86 749 q 202 901 149 861 q 326 964 256 942 q 476 986 397 986 q 626 964 556 986 q 751 901 697 942 q 835 805 804 861 q 867 681 867 749 q 847 578 867 625 q 792 494 828 532 q 862 405 836 456 q 888 292 888 354 q 856 167 888 224 q 768 71 824 111 q 638 8 713 31 q 476 -14 563 -14 q 315 8 390 -14 q 185 71 240 31 q 97 167 129 111 q 65 292 65 224 q 90 405 65 354 q 160 494 115 456 q 106 578 125 532 q 86 681 86 625 m 322 289 q 360 222 322 249 q 476 194 399 194 q 592 222 554 194 q 631 289 631 249 q 592 356 631 329 q 476 383 554 383 q 360 356 399 383 q 322 289 322 329 m 343 683 q 378 616 343 643 q 476 589 414 589 q 574 616 539 589 q 610 683 610 643 q 574 751 610 724 q 476 778 539 778 q 378 751 414 778 q 343 683 343 724 z "},"9":{"ha":899,"x_min":40,"x_max":854,"o":"m 40 640 q 74 785 40 721 q 165 894 108 850 q 296 963 222 939 q 447 986 369 986 q 599 963 525 986 q 729 894 672 939 q 820 785 786 850 q 854 640 854 721 q 845 566 854 600 q 822 502 836 532 q 789 445 807 472 q 753 393 771 418 l 489 28 q 474 10 482 21 q 446 0 465 0 l 225 0 q 205 9 213 0 q 197 31 197 18 q 199 42 197 38 q 204 49 201 46 l 382 299 q 252 335 314 308 q 143 406 190 363 q 68 508 96 450 q 40 640 40 567 m 597 640 q 585 691 597 668 q 551 730 572 714 q 503 755 531 746 q 447 764 476 764 q 391 755 418 764 q 343 730 364 746 q 310 691 322 714 q 297 640 297 668 q 310 590 297 613 q 343 551 322 567 q 391 526 364 535 q 447 517 418 517 q 503 526 476 517 q 551 551 531 535 q 585 590 572 567 q 597 640 597 613 z "},"\u0000":{"ha":0,"x_min":0,"x_max":0,"o":""},"\r":{"ha":403,"x_min":0,"x_max":0,"o":""}," ":{"ha":294,"x_min":0,"x_max":0,"o":""},"¸":{"ha":406,"x_min":72,"x_max":329,"o":"m 226 38 l 172 -75 q 194 -65 181 -69 q 224 -61 208 -61 q 303 -97 276 -61 q 329 -183 329 -133 q 292 -269 329 -233 q 192 -306 254 -306 q 145 -299 169 -306 q 103 -281 121 -292 q 79 -258 86 -269 q 85 -235 72 -246 l 110 -212 q 128 -203 121 -203 q 144 -207 136 -203 q 163 -216 151 -211 q 192 -221 174 -221 q 224 -212 211 -221 q 238 -183 238 -204 q 225 -155 238 -164 q 192 -146 213 -146 q 172 -149 182 -146 q 151 -153 161 -151 q 133 -155 142 -156 q 117 -147 124 -154 l 92 -118 q 81 -99 83 -107 q 89 -72 79 -92 l 142 38 l 226 38 z "},"ˆ":{"ha":675,"x_min":76,"x_max":599,"o":"m 399 1049 q 425 1043 414 1049 q 450 1022 436 1038 l 592 867 q 599 849 599 860 q 576 826 599 826 l 483 826 q 461 831 469 826 q 440 842 453 835 l 338 901 l 235 842 q 214 831 222 835 q 192 826 206 826 l 99 826 q 76 849 76 826 q 83 867 76 860 l 225 1022 q 250 1043 239 1038 q 276 1049 261 1049 l 399 1049 z "},"":{"ha":444,"x_min":82,"x_max":363,"o":"m 113 -124 q 130 -87 115 -104 q 172 -69 144 -69 l 332 -69 q 353 -78 344 -69 q 363 -100 363 -87 q 361 -110 363 -106 l 285 -303 q 266 -332 279 -317 q 225 -347 253 -347 l 113 -347 q 91 -338 100 -347 q 82 -317 82 -329 l 82 -314 l 113 -124 z "},"¨":{"ha":681,"x_min":76,"x_max":604,"o":"m 292 864 q 281 838 292 849 q 254 826 269 826 l 114 826 q 88 838 99 826 q 76 864 76 849 l 76 1004 q 88 1031 76 1019 q 114 1042 99 1042 l 254 1042 q 281 1031 269 1042 q 292 1004 292 1019 l 292 864 m 604 864 q 593 838 604 849 q 567 826 582 826 l 426 826 q 400 838 411 826 q 389 864 389 849 l 389 1004 q 400 1031 389 1019 q 426 1042 411 1042 l 567 1042 q 593 1031 582 1042 q 604 1004 604 1019 l 604 864 z "},"˙":{"ha":410,"x_min":76,"x_max":306,"o":"m 306 864 q 294 838 306 849 q 268 826 283 826 l 114 826 q 88 838 99 826 q 76 864 76 849 l 76 1018 q 88 1044 76 1033 q 114 1056 99 1056 l 268 1056 q 294 1044 283 1056 q 306 1018 306 1033 l 306 864 z "},"˝":{"ha":769,"x_min":76,"x_max":693,"o":"m 153 1022 q 171 1042 160 1036 q 204 1049 182 1049 l 360 1049 q 388 1022 388 1049 q 379 1004 388 1013 l 233 846 q 186 826 217 826 l 99 826 q 76 849 76 826 q 78 860 76 854 q 83 869 81 865 l 153 1022 m 458 1022 q 476 1042 465 1036 q 510 1049 488 1049 l 665 1049 q 693 1022 693 1049 q 685 1004 693 1013 l 539 846 q 492 826 522 826 l 404 826 q 382 849 382 826 q 384 860 382 854 q 389 869 386 865 l 458 1022 z "},"`":{"ha":550,"x_min":76,"x_max":474,"o":"m 467 867 q 474 849 474 860 q 451 826 474 826 l 329 826 q 294 833 307 826 q 271 850 282 840 l 83 1004 q 76 1021 76 1011 q 103 1049 76 1049 l 288 1049 q 313 1044 303 1049 q 339 1022 324 1040 l 467 867 z "},"¯":{"ha":629,"x_min":76,"x_max":553,"o":"m 114 826 q 88 838 99 826 q 76 864 76 849 l 76 983 q 88 1010 76 999 q 114 1021 99 1021 l 515 1021 q 542 1010 531 1021 q 553 983 553 999 l 553 864 q 542 838 553 849 q 515 826 531 826 l 114 826 z "},"˛":{"ha":435,"x_min":76,"x_max":358,"o":"m 301 -306 q 207 -288 249 -306 q 136 -241 165 -271 q 92 -169 107 -211 q 76 -78 76 -128 q 92 14 76 -28 q 136 85 107 56 q 207 133 165 115 q 301 150 249 150 l 328 150 q 358 119 358 150 l 358 31 q 328 0 358 0 l 307 0 q 251 -23 271 0 q 232 -78 232 -46 q 251 -133 232 -110 q 307 -156 271 -156 l 328 -156 q 358 -186 358 -156 l 358 -275 q 328 -306 358 -306 l 301 -306 z "},"˚":{"ha":417,"x_min":76,"x_max":340,"o":"m 167 944 q 178 915 167 926 q 208 903 190 903 q 238 915 226 903 q 250 944 250 926 q 238 974 250 963 q 208 986 226 986 q 178 974 190 986 q 167 944 167 963 m 76 944 q 115 1034 76 999 q 208 1069 154 1069 q 301 1034 263 1069 q 340 944 340 999 q 301 855 340 890 q 208 819 263 819 q 115 855 154 819 q 76 944 76 890 z "},"˜":{"ha":692,"x_min":76,"x_max":615,"o":"m 460 819 q 393 829 418 819 q 349 851 368 839 q 315 872 331 863 q 276 882 299 882 q 251 873 260 882 q 237 853 243 864 q 225 835 231 843 q 208 826 219 826 l 103 826 q 83 834 90 826 q 76 853 76 842 q 85 917 76 883 q 114 978 94 951 q 163 1024 133 1006 q 232 1042 192 1042 q 299 1032 274 1042 q 342 1010 324 1022 q 377 989 361 999 q 415 979 393 979 q 440 988 432 979 q 455 1006 449 996 q 467 1026 461 1017 q 483 1035 472 1035 l 589 1035 q 608 1027 601 1035 q 615 1008 615 1019 q 604 943 615 976 q 572 883 593 910 q 523 838 551 856 q 460 819 494 819 z "},"":{"ha":564,"x_min":76,"x_max":488,"o":"m 211 1238 q 237 1260 226 1256 q 263 1264 247 1264 l 461 1264 q 488 1236 488 1264 q 481 1219 488 1226 l 293 1065 q 269 1049 282 1056 q 235 1042 257 1042 l 99 1042 q 76 1064 76 1042 q 83 1082 76 1075 l 211 1238 z "},"":{"ha":689,"x_min":76,"x_max":613,"o":"m 276 1042 q 250 1047 261 1042 q 225 1068 239 1053 l 83 1224 q 76 1242 76 1231 q 99 1264 76 1264 l 199 1264 q 221 1260 213 1264 q 242 1249 229 1256 l 344 1189 l 447 1249 q 468 1260 460 1256 q 490 1264 476 1264 l 590 1264 q 613 1242 613 1264 q 606 1224 613 1231 l 464 1068 q 439 1047 450 1053 q 413 1042 428 1042 l 276 1042 z "},"":{"ha":722,"x_min":76,"x_max":646,"o":"m 292 1079 q 281 1053 292 1064 q 254 1042 269 1042 l 114 1042 q 88 1053 99 1042 q 76 1079 76 1064 l 76 1219 q 88 1246 76 1235 q 114 1257 99 1257 l 254 1257 q 281 1246 269 1257 q 292 1219 292 1235 l 292 1079 m 646 1079 q 635 1053 646 1064 q 608 1042 624 1042 l 468 1042 q 442 1053 453 1042 q 431 1079 431 1064 l 431 1219 q 442 1246 431 1235 q 468 1257 453 1257 l 608 1257 q 635 1246 624 1257 q 646 1219 646 1235 l 646 1079 z "},"":{"ha":799,"x_min":76,"x_max":722,"o":"m 153 1238 q 171 1258 160 1251 q 204 1264 182 1264 l 374 1264 q 401 1238 401 1264 q 393 1219 401 1228 l 247 1061 q 200 1042 231 1042 l 99 1042 q 76 1064 76 1042 q 78 1075 76 1069 q 83 1085 81 1081 l 153 1238 m 474 1238 q 492 1258 481 1251 q 525 1264 503 1264 l 694 1264 q 722 1238 722 1264 q 714 1219 722 1228 l 568 1061 q 521 1042 551 1042 l 419 1042 q 397 1064 397 1042 q 399 1075 397 1069 q 404 1085 401 1081 l 474 1238 z "},"":{"ha":564,"x_min":76,"x_max":488,"o":"m 481 1082 q 488 1064 488 1075 q 465 1042 488 1042 l 329 1042 q 294 1049 307 1042 q 271 1065 282 1056 l 83 1219 q 76 1236 76 1226 q 103 1264 76 1264 l 301 1264 q 327 1260 317 1264 q 353 1238 338 1256 l 481 1082 z "},"":{"ha":671,"x_min":76,"x_max":594,"o":"m 114 1042 q 88 1053 99 1042 q 76 1079 76 1064 l 76 1199 q 88 1225 76 1214 q 114 1236 99 1236 l 557 1236 q 583 1225 572 1236 q 594 1199 594 1214 l 594 1079 q 583 1053 594 1064 q 557 1042 572 1042 l 114 1042 z "},"A":{"ha":997,"x_min":15,"x_max":982,"o":"m 611 972 q 653 957 639 972 q 674 926 668 942 l 976 51 q 982 31 982 38 q 973 9 982 18 q 951 0 964 0 l 776 0 q 737 12 749 0 q 722 35 725 24 l 683 150 l 314 150 l 275 35 q 260 12 272 24 q 221 0 249 0 l 46 0 q 24 9 33 0 q 15 31 15 18 q 21 51 15 38 l 324 926 q 344 957 329 942 q 386 972 358 972 l 611 972 m 386 365 l 611 365 l 499 699 l 386 365 z "},"Á":{"ha":997,"x_min":15,"x_max":982,"o":"m 611 972 q 653 957 639 972 q 674 926 668 942 l 976 51 q 982 31 982 38 q 973 9 982 18 q 951 0 964 0 l 776 0 q 737 12 749 0 q 722 35 725 24 l 683 150 l 314 150 l 275 35 q 260 12 272 24 q 221 0 249 0 l 46 0 q 24 9 33 0 q 15 31 15 18 q 21 51 15 38 l 324 926 q 344 957 329 942 q 386 972 358 972 l 611 972 m 386 365 l 611 365 l 499 699 l 386 365 m 524 1238 q 549 1260 539 1256 q 575 1264 560 1264 l 774 1264 q 800 1236 800 1264 q 793 1219 800 1226 l 606 1065 q 582 1049 594 1056 q 547 1042 569 1042 l 411 1042 q 389 1064 389 1042 q 396 1082 389 1075 l 524 1238 z "},"Ă":{"ha":997,"x_min":15,"x_max":982,"o":"m 611 972 q 653 957 639 972 q 674 926 668 942 l 976 51 q 982 31 982 38 q 973 9 982 18 q 951 0 964 0 l 776 0 q 737 12 749 0 q 722 35 725 24 l 683 150 l 314 150 l 275 35 q 260 12 272 24 q 221 0 249 0 l 46 0 q 24 9 33 0 q 15 31 15 18 q 21 51 15 38 l 324 926 q 344 957 329 942 q 386 972 358 972 l 611 972 m 386 365 l 611 365 l 499 699 l 386 365 m 499 1035 q 390 1053 435 1035 q 317 1102 346 1072 q 276 1168 289 1132 q 264 1238 264 1204 q 271 1256 264 1249 q 290 1264 278 1264 l 407 1264 q 426 1256 419 1264 q 433 1238 433 1249 q 450 1190 433 1211 q 499 1168 467 1168 q 547 1190 531 1168 q 564 1238 564 1211 q 571 1256 564 1249 q 590 1264 578 1264 l 707 1264 q 726 1256 719 1264 q 733 1238 733 1249 q 721 1168 733 1204 q 680 1102 708 1132 q 607 1053 651 1072 q 499 1035 563 1035 z "},"Â":{"ha":997,"x_min":15,"x_max":982,"o":"m 611 972 q 653 957 639 972 q 674 926 668 942 l 976 51 q 982 31 982 38 q 973 9 982 18 q 951 0 964 0 l 776 0 q 737 12 749 0 q 722 35 725 24 l 683 150 l 314 150 l 275 35 q 260 12 272 24 q 221 0 249 0 l 46 0 q 24 9 33 0 q 15 31 15 18 q 21 51 15 38 l 324 926 q 344 957 329 942 q 386 972 358 972 l 611 972 m 386 365 l 611 365 l 499 699 l 386 365 m 567 1264 q 593 1258 582 1264 q 618 1238 604 1253 l 760 1082 q 767 1064 767 1075 q 744 1042 767 1042 l 644 1042 q 622 1046 631 1042 q 601 1057 614 1050 l 499 1117 l 396 1057 q 375 1046 383 1050 q 353 1042 367 1042 l 253 1042 q 231 1064 231 1042 q 238 1082 231 1075 l 379 1238 q 404 1258 393 1253 q 431 1264 415 1264 l 567 1264 z "},"À":{"ha":997,"x_min":15,"x_max":982,"o":"m 611 972 q 653 957 639 972 q 674 926 668 942 l 976 51 q 982 31 982 38 q 973 9 982 18 q 951 0 964 0 l 776 0 q 737 12 749 0 q 722 35 725 24 l 683 150 l 314 150 l 275 35 q 260 12 272 24 q 221 0 249 0 l 46 0 q 24 9 33 0 q 15 31 15 18 q 21 51 15 38 l 324 926 q 344 957 329 942 q 386 972 358 972 l 611 972 m 386 365 l 611 365 l 499 699 l 386 365 m 604 1082 q 611 1064 611 1075 q 589 1042 611 1042 l 453 1042 q 418 1049 431 1042 q 394 1065 406 1056 l 207 1219 q 200 1236 200 1226 q 226 1264 200 1264 l 425 1264 q 451 1260 440 1264 q 476 1238 461 1256 l 604 1082 z "},"Ä":{"ha":997,"x_min":15,"x_max":982,"o":"m 611 972 q 653 957 639 972 q 674 926 668 942 l 976 51 q 982 31 982 38 q 973 9 982 18 q 951 0 964 0 l 776 0 q 737 12 749 0 q 722 35 725 24 l 683 150 l 314 150 l 275 35 q 260 12 272 24 q 221 0 249 0 l 46 0 q 24 9 33 0 q 15 31 15 18 q 21 51 15 38 l 324 926 q 344 957 329 942 q 386 972 358 972 l 611 972 m 386 365 l 611 365 l 499 699 l 386 365 m 429 1079 q 418 1053 429 1064 q 392 1042 407 1042 l 251 1042 q 225 1053 236 1042 q 214 1079 214 1064 l 214 1219 q 225 1246 214 1235 q 251 1257 236 1257 l 392 1257 q 418 1246 407 1257 q 429 1219 429 1235 l 429 1079 m 783 1079 q 772 1053 783 1064 q 746 1042 761 1042 l 606 1042 q 579 1053 590 1042 q 568 1079 568 1064 l 568 1219 q 579 1246 568 1235 q 606 1257 590 1257 l 746 1257 q 772 1246 761 1257 q 783 1219 783 1235 l 783 1079 z "},"Ā":{"ha":997,"x_min":15,"x_max":982,"o":"m 611 972 q 653 957 639 972 q 674 926 668 942 l 976 51 q 982 31 982 38 q 973 9 982 18 q 951 0 964 0 l 776 0 q 737 12 749 0 q 722 35 725 24 l 683 150 l 314 150 l 275 35 q 260 12 272 24 q 221 0 249 0 l 46 0 q 24 9 33 0 q 15 31 15 18 q 21 51 15 38 l 324 926 q 344 957 329 942 q 386 972 358 972 l 611 972 m 386 365 l 611 365 l 499 699 l 386 365 m 278 1042 q 251 1053 263 1042 q 240 1079 240 1064 l 240 1199 q 251 1225 240 1214 q 278 1236 263 1236 l 721 1236 q 747 1225 736 1236 q 758 1199 758 1214 l 758 1079 q 747 1053 758 1064 q 721 1042 736 1042 l 278 1042 z "},"Ą":{"ha":997,"x_min":15,"x_max":982,"o":"m 611 972 q 653 957 639 972 q 674 926 668 942 l 976 51 q 982 31 982 38 q 973 9 982 18 q 951 0 964 0 l 931 0 q 875 -23 894 0 q 856 -78 856 -46 q 875 -133 856 -110 q 931 -156 894 -156 l 951 -156 q 982 -186 982 -156 l 982 -275 q 951 -306 982 -306 l 925 -306 q 831 -288 872 -306 q 760 -241 789 -271 q 715 -169 731 -211 q 700 -78 700 -128 q 722 32 700 -14 l 722 35 l 683 150 l 314 150 l 275 35 q 260 12 272 24 q 221 0 249 0 l 46 0 q 24 9 33 0 q 15 31 15 18 q 21 51 15 38 l 324 926 q 344 957 329 942 q 386 972 358 972 l 611 972 m 386 365 l 611 365 l 499 699 l 386 365 z "},"Å":{"ha":997,"x_min":15,"x_max":982,"o":"m 611 972 q 653 957 639 972 q 674 926 668 942 l 976 51 q 982 31 982 38 q 973 9 982 18 q 951 0 964 0 l 776 0 q 737 12 749 0 q 722 35 725 24 l 683 150 l 314 150 l 275 35 q 260 12 272 24 q 221 0 249 0 l 46 0 q 24 9 33 0 q 15 31 15 18 q 21 51 15 38 l 324 926 q 344 957 329 942 q 386 972 358 972 l 611 972 m 386 365 l 611 365 l 499 699 l 386 365 m 457 1153 q 469 1123 457 1135 q 499 1111 481 1111 q 528 1123 517 1111 q 540 1153 540 1135 q 528 1183 540 1171 q 499 1194 517 1194 q 469 1183 481 1194 q 457 1153 457 1171 m 367 1153 q 406 1242 367 1207 q 499 1278 444 1278 q 592 1242 553 1278 q 631 1153 631 1207 q 592 1063 631 1099 q 499 1028 553 1028 q 406 1063 444 1028 q 367 1153 367 1099 z "},"Ã":{"ha":997,"x_min":15,"x_max":982,"o":"m 611 972 q 653 957 639 972 q 674 926 668 942 l 976 51 q 982 31 982 38 q 973 9 982 18 q 951 0 964 0 l 776 0 q 737 12 749 0 q 722 35 725 24 l 683 150 l 314 150 l 275 35 q 260 12 272 24 q 221 0 249 0 l 46 0 q 24 9 33 0 q 15 31 15 18 q 21 51 15 38 l 324 926 q 344 957 329 942 q 386 972 358 972 l 611 972 m 386 365 l 611 365 l 499 699 l 386 365 m 619 1035 q 549 1044 576 1035 q 500 1066 521 1054 q 462 1088 479 1078 q 422 1097 444 1097 q 397 1088 406 1097 q 383 1069 389 1079 q 371 1050 376 1058 q 354 1042 365 1042 l 249 1042 q 229 1049 236 1042 q 222 1068 222 1057 q 231 1133 222 1099 q 260 1194 240 1167 q 308 1239 279 1221 q 378 1257 338 1257 q 449 1247 421 1257 q 497 1226 476 1238 q 535 1204 518 1214 q 575 1194 553 1194 q 600 1203 592 1194 q 615 1222 608 1211 q 626 1241 621 1232 q 643 1250 632 1250 l 749 1250 q 768 1242 761 1250 q 775 1224 775 1235 q 764 1158 775 1192 q 732 1098 753 1125 q 683 1053 711 1071 q 619 1035 654 1035 z "},"Æ":{"ha":1408,"x_min":1,"x_max":1346,"o":"m 1297 972 q 1324 961 1313 972 q 1335 935 1335 950 l 1335 788 q 1324 761 1335 772 q 1297 750 1313 750 l 869 750 l 869 600 l 1267 600 q 1293 589 1282 600 q 1304 563 1304 578 l 1304 415 q 1293 389 1304 400 q 1267 378 1282 378 l 869 378 l 869 222 l 1308 222 q 1335 211 1324 222 q 1346 185 1346 200 l 1346 38 q 1335 11 1346 22 q 1308 0 1324 0 l 650 0 q 624 11 635 0 q 613 38 613 22 l 613 150 l 322 150 l 271 35 q 252 12 264 24 q 217 0 240 0 l 39 0 q 13 11 24 0 q 1 38 1 22 q 7 54 1 44 l 397 926 q 419 957 406 942 q 460 972 432 972 l 1297 972 m 418 365 l 613 365 l 613 750 l 589 750 l 418 365 z "},"Ǽ":{"ha":1408,"x_min":1,"x_max":1346,"o":"m 767 1238 q 792 1260 782 1256 q 818 1264 803 1264 l 1017 1264 q 1043 1236 1043 1264 q 1036 1219 1043 1226 l 849 1065 q 825 1049 838 1056 q 790 1042 813 1042 l 654 1042 q 632 1064 632 1042 q 639 1082 632 1075 l 767 1238 m 1297 972 q 1324 961 1313 972 q 1335 935 1335 950 l 1335 788 q 1324 761 1335 772 q 1297 750 1313 750 l 869 750 l 869 600 l 1267 600 q 1293 589 1282 600 q 1304 563 1304 578 l 1304 415 q 1293 389 1304 400 q 1267 378 1282 378 l 869 378 l 869 222 l 1308 222 q 1335 211 1324 222 q 1346 185 1346 200 l 1346 38 q 1335 11 1346 22 q 1308 0 1324 0 l 650 0 q 624 11 635 0 q 613 38 613 22 l 613 150 l 322 150 l 271 35 q 252 12 264 24 q 217 0 240 0 l 39 0 q 13 11 24 0 q 1 38 1 22 q 7 54 1 44 l 397 926 q 419 957 406 942 q 460 972 432 972 l 1297 972 m 418 365 l 613 365 l 613 750 l 589 750 l 418 365 z "},"B":{"ha":989,"x_min":97,"x_max":932,"o":"m 135 0 q 108 11 119 0 q 97 38 97 22 l 97 935 q 108 961 97 950 q 135 972 119 972 l 582 972 q 739 947 675 972 q 841 880 803 921 q 896 787 879 839 q 913 683 913 735 q 903 613 913 643 q 882 562 894 583 q 856 527 869 540 q 835 507 843 514 q 910 420 889 469 q 932 301 932 371 q 915 190 932 244 q 860 94 899 136 q 761 26 822 51 q 611 0 700 0 l 135 0 m 654 678 q 633 735 654 714 q 569 757 611 757 l 354 757 l 354 599 l 569 599 q 633 620 611 599 q 654 678 654 642 m 354 215 l 583 215 q 650 240 625 215 q 675 300 675 264 q 650 360 675 336 q 583 385 625 385 l 354 385 l 354 215 z "},"C":{"ha":975,"x_min":61,"x_max":929,"o":"m 321 603 q 319 553 319 585 q 318 487 318 521 q 319 420 318 453 q 321 369 319 388 q 333 308 324 338 q 364 257 343 279 q 417 222 385 235 q 496 208 449 208 q 574 219 543 208 q 624 247 604 231 q 653 282 643 263 q 669 318 664 301 q 685 349 676 340 q 717 358 693 358 l 899 358 q 920 349 911 358 q 929 328 929 340 q 894 194 928 257 q 803 86 861 132 q 666 13 744 40 q 496 -14 588 -14 q 317 16 396 -14 q 183 97 239 46 q 98 217 128 149 q 64 363 68 286 q 61 485 61 419 q 64 610 61 550 q 97 755 67 686 q 183 875 128 824 q 317 956 238 926 q 496 986 396 986 q 666 959 588 986 q 803 886 744 932 q 894 778 861 840 q 929 644 928 715 q 920 623 929 632 q 899 614 911 614 l 717 614 q 685 623 693 614 q 669 654 676 632 q 653 690 664 671 q 624 726 643 710 q 574 753 604 742 q 496 764 543 764 q 417 751 449 764 q 364 715 385 738 q 333 664 343 693 q 321 603 324 635 z "},"Ć":{"ha":975,"x_min":61,"x_max":929,"o":"m 321 603 q 319 553 319 585 q 318 487 318 521 q 319 420 318 453 q 321 369 319 388 q 333 308 324 338 q 364 257 343 279 q 417 222 385 235 q 496 208 449 208 q 574 219 543 208 q 624 247 604 231 q 653 282 643 263 q 669 318 664 301 q 685 349 676 340 q 717 358 693 358 l 899 358 q 920 349 911 358 q 929 328 929 340 q 894 194 928 257 q 803 86 861 132 q 666 13 744 40 q 496 -14 588 -14 q 317 16 396 -14 q 183 97 239 46 q 98 217 128 149 q 64 363 68 286 q 61 485 61 419 q 64 610 61 550 q 97 755 67 686 q 183 875 128 824 q 317 956 238 926 q 496 986 396 986 q 666 959 588 986 q 803 886 744 932 q 894 778 861 840 q 929 644 928 715 q 920 623 929 632 q 899 614 911 614 l 717 614 q 685 623 693 614 q 669 654 676 632 q 653 690 664 671 q 624 726 643 710 q 574 753 604 742 q 496 764 543 764 q 417 751 449 764 q 364 715 385 738 q 333 664 343 693 q 321 603 324 635 m 517 1238 q 542 1260 532 1256 q 568 1264 553 1264 l 767 1264 q 793 1236 793 1264 q 786 1219 793 1226 l 599 1065 q 575 1049 588 1056 q 540 1042 563 1042 l 404 1042 q 382 1064 382 1042 q 389 1082 382 1075 l 517 1238 z "},"Č":{"ha":975,"x_min":61,"x_max":929,"o":"m 321 603 q 319 553 319 585 q 318 487 318 521 q 319 420 318 453 q 321 369 319 388 q 333 308 324 338 q 364 257 343 279 q 417 222 385 235 q 496 208 449 208 q 574 219 543 208 q 624 247 604 231 q 653 282 643 263 q 669 318 664 301 q 685 349 676 340 q 717 358 693 358 l 899 358 q 920 349 911 358 q 929 328 929 340 q 894 194 928 257 q 803 86 861 132 q 666 13 744 40 q 496 -14 588 -14 q 317 16 396 -14 q 183 97 239 46 q 98 217 128 149 q 64 363 68 286 q 61 485 61 419 q 64 610 61 550 q 97 755 67 686 q 183 875 128 824 q 317 956 238 926 q 496 986 396 986 q 666 959 588 986 q 803 886 744 932 q 894 778 861 840 q 929 644 928 715 q 920 623 929 632 q 899 614 911 614 l 717 614 q 685 623 693 614 q 669 654 676 632 q 653 690 664 671 q 624 726 643 710 q 574 753 604 742 q 496 764 543 764 q 417 751 449 764 q 364 715 385 738 q 333 664 343 693 q 321 603 324 635 m 426 1042 q 400 1047 411 1042 q 375 1068 389 1053 l 233 1224 q 226 1242 226 1231 q 249 1264 226 1264 l 349 1264 q 371 1260 363 1264 q 392 1249 379 1256 l 494 1189 l 597 1249 q 618 1260 610 1256 q 640 1264 626 1264 l 740 1264 q 763 1242 763 1264 q 756 1224 763 1231 l 614 1068 q 589 1047 600 1053 q 563 1042 578 1042 l 426 1042 z "},"Ç":{"ha":975,"x_min":61,"x_max":929,"o":"m 321 603 q 319 553 319 585 q 318 487 318 521 q 319 420 318 453 q 321 369 319 388 q 333 308 324 338 q 364 257 343 279 q 417 222 385 235 q 496 208 449 208 q 574 219 543 208 q 624 247 604 231 q 653 282 643 263 q 669 318 664 301 q 685 349 676 340 q 717 358 693 358 l 899 358 q 920 349 911 358 q 929 328 929 340 q 894 195 928 257 q 803 87 861 133 q 668 13 746 40 q 499 -14 590 -14 l 469 -75 q 492 -65 478 -69 q 521 -61 506 -61 q 600 -97 574 -61 q 626 -183 626 -133 q 589 -269 626 -233 q 489 -306 551 -306 q 442 -299 467 -306 q 401 -281 418 -292 q 376 -258 383 -269 q 382 -235 369 -246 l 407 -212 q 426 -203 418 -203 q 441 -207 433 -203 q 460 -216 449 -211 q 489 -221 471 -221 q 522 -212 508 -221 q 535 -183 535 -204 q 522 -155 535 -164 q 489 -146 510 -146 q 469 -149 479 -146 q 449 -153 458 -151 q 430 -155 439 -156 q 414 -147 421 -154 l 389 -118 q 378 -99 381 -107 q 386 -72 376 -92 l 417 -8 q 271 37 335 3 q 162 120 207 71 q 92 231 117 169 q 64 363 67 293 q 61 485 61 419 q 64 610 61 550 q 97 755 67 686 q 183 875 128 824 q 317 956 238 926 q 496 986 396 986 q 666 959 588 986 q 803 886 744 932 q 894 778 861 840 q 929 644 928 715 q 920 623 929 632 q 899 614 911 614 l 717 614 q 685 623 693 614 q 669 654 676 632 q 653 690 664 671 q 624 726 643 710 q 574 753 604 742 q 496 764 543 764 q 417 751 449 764 q 364 715 385 738 q 333 664 343 693 q 321 603 324 635 z "},"Ĉ":{"ha":975,"x_min":61,"x_max":929,"o":"m 321 603 q 319 553 319 585 q 318 487 318 521 q 319 420 318 453 q 321 369 319 388 q 333 308 324 338 q 364 257 343 279 q 417 222 385 235 q 496 208 449 208 q 574 219 543 208 q 624 247 604 231 q 653 282 643 263 q 669 318 664 301 q 685 349 676 340 q 717 358 693 358 l 899 358 q 920 349 911 358 q 929 328 929 340 q 894 194 928 257 q 803 86 861 132 q 666 13 744 40 q 496 -14 588 -14 q 317 16 396 -14 q 183 97 239 46 q 98 217 128 149 q 64 363 68 286 q 61 485 61 419 q 64 610 61 550 q 97 755 67 686 q 183 875 128 824 q 317 956 238 926 q 496 986 396 986 q 666 959 588 986 q 803 886 744 932 q 894 778 861 840 q 929 644 928 715 q 920 623 929 632 q 899 614 911 614 l 717 614 q 685 623 693 614 q 669 654 676 632 q 653 690 664 671 q 624 726 643 710 q 574 753 604 742 q 496 764 543 764 q 417 751 449 764 q 364 715 385 738 q 333 664 343 693 q 321 603 324 635 m 563 1264 q 589 1258 578 1264 q 614 1238 600 1253 l 756 1082 q 763 1064 763 1075 q 740 1042 763 1042 l 640 1042 q 618 1046 626 1042 q 597 1057 610 1050 l 494 1117 l 392 1057 q 371 1046 379 1050 q 349 1042 363 1042 l 249 1042 q 226 1064 226 1042 q 233 1082 226 1075 l 375 1238 q 400 1258 389 1253 q 426 1264 411 1264 l 563 1264 z "},"Ċ":{"ha":975,"x_min":61,"x_max":929,"o":"m 321 603 q 319 553 319 585 q 318 487 318 521 q 319 420 318 453 q 321 369 319 388 q 333 308 324 338 q 364 257 343 279 q 417 222 385 235 q 496 208 449 208 q 574 219 543 208 q 624 247 604 231 q 653 282 643 263 q 669 318 664 301 q 685 349 676 340 q 717 358 693 358 l 899 358 q 920 349 911 358 q 929 328 929 340 q 894 194 928 257 q 803 86 861 132 q 666 13 744 40 q 496 -14 588 -14 q 317 16 396 -14 q 183 97 239 46 q 98 217 128 149 q 64 363 68 286 q 61 485 61 419 q 64 610 61 550 q 97 755 67 686 q 183 875 128 824 q 317 956 238 926 q 496 986 396 986 q 666 959 588 986 q 803 886 744 932 q 894 778 861 840 q 929 644 928 715 q 920 623 929 632 q 899 614 911 614 l 717 614 q 685 623 693 614 q 669 654 676 632 q 653 690 664 671 q 624 726 643 710 q 574 753 604 742 q 496 764 543 764 q 417 751 449 764 q 364 715 385 738 q 333 664 343 693 q 321 603 324 635 m 610 1079 q 599 1053 610 1064 q 572 1042 588 1042 l 418 1042 q 392 1053 403 1042 q 381 1079 381 1064 l 381 1233 q 392 1260 381 1249 q 418 1271 403 1271 l 572 1271 q 599 1260 588 1271 q 610 1233 610 1249 l 610 1079 z "},"D":{"ha":1004,"x_min":97,"x_max":943,"o":"m 503 972 q 678 944 599 972 q 815 864 757 915 q 905 741 872 813 q 942 585 938 669 q 943 531 943 556 q 943 485 943 507 q 943 439 943 463 q 942 388 943 415 q 906 231 938 301 q 817 108 874 160 q 683 28 761 57 q 510 0 606 0 l 135 0 q 108 11 119 0 q 97 38 97 22 l 97 935 q 108 961 97 950 q 135 972 119 972 l 503 972 m 685 590 q 496 750 676 750 l 354 750 l 354 222 l 503 222 q 685 382 678 222 q 686 437 686 411 q 686 487 686 463 q 686 536 686 511 q 685 590 686 561 z "},"Ď":{"ha":1004,"x_min":97,"x_max":943,"o":"m 503 972 q 678 944 599 972 q 815 864 757 915 q 905 741 872 813 q 942 585 938 669 q 943 531 943 556 q 943 485 943 507 q 943 439 943 463 q 942 388 943 415 q 906 231 938 301 q 817 108 874 160 q 683 28 761 57 q 510 0 606 0 l 135 0 q 108 11 119 0 q 97 38 97 22 l 97 935 q 108 961 97 950 q 135 972 119 972 l 503 972 m 685 590 q 496 750 676 750 l 354 750 l 354 222 l 503 222 q 685 382 678 222 q 686 437 686 411 q 686 487 686 463 q 686 536 686 511 q 685 590 686 561 m 411 1042 q 385 1047 396 1042 q 360 1068 374 1053 l 218 1224 q 211 1242 211 1231 q 233 1264 211 1264 l 333 1264 q 356 1260 347 1264 q 376 1249 364 1256 l 479 1189 l 582 1249 q 603 1260 594 1256 q 625 1264 611 1264 l 725 1264 q 747 1242 747 1264 q 740 1224 747 1231 l 599 1068 q 574 1047 585 1053 q 547 1042 563 1042 l 411 1042 z "},"Đ":{"ha":1049,"x_min":31,"x_max":988,"o":"m 547 972 q 722 944 643 972 q 859 864 801 915 q 949 741 917 813 q 986 585 982 669 q 988 531 988 556 q 988 485 988 507 q 988 439 988 463 q 986 388 988 415 q 950 231 982 301 q 862 108 918 160 q 728 28 806 57 q 554 0 650 0 l 179 0 q 153 11 164 0 q 142 38 142 22 l 142 394 l 68 394 q 42 406 53 394 q 31 432 31 417 l 31 551 q 42 578 31 567 q 68 589 53 589 l 142 589 l 142 935 q 153 961 142 950 q 179 972 164 972 l 547 972 m 729 590 q 540 750 721 750 l 399 750 l 399 589 l 503 589 q 529 578 518 589 q 540 551 540 567 l 540 432 q 529 406 540 417 q 503 394 518 394 l 399 394 l 399 222 l 547 222 q 729 382 722 222 q 731 437 731 411 q 731 487 731 463 q 731 536 731 511 q 729 590 731 561 z "},"E":{"ha":893,"x_min":97,"x_max":831,"o":"m 793 222 q 819 211 808 222 q 831 185 831 200 l 831 38 q 819 11 831 22 q 793 0 808 0 l 135 0 q 108 11 119 0 q 97 38 97 22 l 97 935 q 108 961 97 950 q 135 972 119 972 l 782 972 q 808 961 797 972 q 819 935 819 950 l 819 788 q 808 761 819 772 q 782 750 797 750 l 354 750 l 354 600 l 751 600 q 778 589 767 600 q 789 563 789 578 l 789 415 q 778 389 789 400 q 751 378 767 378 l 354 378 l 354 222 l 793 222 z "},"É":{"ha":893,"x_min":97,"x_max":831,"o":"m 793 222 q 819 211 808 222 q 831 185 831 200 l 831 38 q 819 11 831 22 q 793 0 808 0 l 135 0 q 108 11 119 0 q 97 38 97 22 l 97 935 q 108 961 97 950 q 135 972 119 972 l 782 972 q 808 961 797 972 q 819 935 819 950 l 819 788 q 808 761 819 772 q 782 750 797 750 l 354 750 l 354 600 l 751 600 q 778 589 767 600 q 789 563 789 578 l 789 415 q 778 389 789 400 q 751 378 767 378 l 354 378 l 354 222 l 793 222 m 492 1238 q 517 1260 507 1256 q 543 1264 528 1264 l 742 1264 q 768 1236 768 1264 q 761 1219 768 1226 l 574 1065 q 550 1049 563 1056 q 515 1042 538 1042 l 379 1042 q 357 1064 357 1042 q 364 1082 357 1075 l 492 1238 z "},"Ĕ":{"ha":893,"x_min":97,"x_max":831,"o":"m 793 222 q 819 211 808 222 q 831 185 831 200 l 831 38 q 819 11 831 22 q 793 0 808 0 l 135 0 q 108 11 119 0 q 97 38 97 22 l 97 935 q 108 961 97 950 q 135 972 119 972 l 782 972 q 808 961 797 972 q 819 935 819 950 l 819 788 q 808 761 819 772 q 782 750 797 750 l 354 750 l 354 600 l 751 600 q 778 589 767 600 q 789 563 789 578 l 789 415 q 778 389 789 400 q 751 378 767 378 l 354 378 l 354 222 l 793 222 m 464 1035 q 356 1053 400 1035 q 283 1102 311 1072 q 242 1168 254 1132 q 229 1238 229 1204 q 236 1256 229 1249 q 256 1264 243 1264 l 372 1264 q 392 1256 385 1264 q 399 1238 399 1249 q 415 1190 399 1211 q 464 1168 432 1168 q 513 1190 496 1168 q 529 1238 529 1211 q 536 1256 529 1249 q 556 1264 543 1264 l 672 1264 q 692 1256 685 1264 q 699 1238 699 1249 q 686 1168 699 1204 q 645 1102 674 1132 q 572 1053 617 1072 q 464 1035 528 1035 z "},"Ě":{"ha":893,"x_min":97,"x_max":831,"o":"m 793 222 q 819 211 808 222 q 831 185 831 200 l 831 38 q 819 11 831 22 q 793 0 808 0 l 135 0 q 108 11 119 0 q 97 38 97 22 l 97 935 q 108 961 97 950 q 135 972 119 972 l 782 972 q 808 961 797 972 q 819 935 819 950 l 819 788 q 808 761 819 772 q 782 750 797 750 l 354 750 l 354 600 l 751 600 q 778 589 767 600 q 789 563 789 578 l 789 415 q 778 389 789 400 q 751 378 767 378 l 354 378 l 354 222 l 793 222 m 396 1042 q 369 1047 381 1042 q 344 1068 358 1053 l 203 1224 q 196 1242 196 1231 q 218 1264 196 1264 l 318 1264 q 340 1260 332 1264 q 361 1249 349 1256 l 464 1189 l 567 1249 q 588 1260 579 1256 q 610 1264 596 1264 l 710 1264 q 732 1242 732 1264 q 725 1224 732 1231 l 583 1068 q 558 1047 569 1053 q 532 1042 547 1042 l 396 1042 z "},"Ê":{"ha":893,"x_min":97,"x_max":831,"o":"m 793 222 q 819 211 808 222 q 831 185 831 200 l 831 38 q 819 11 831 22 q 793 0 808 0 l 135 0 q 108 11 119 0 q 97 38 97 22 l 97 935 q 108 961 97 950 q 135 972 119 972 l 782 972 q 808 961 797 972 q 819 935 819 950 l 819 788 q 808 761 819 772 q 782 750 797 750 l 354 750 l 354 600 l 751 600 q 778 589 767 600 q 789 563 789 578 l 789 415 q 778 389 789 400 q 751 378 767 378 l 354 378 l 354 222 l 793 222 m 532 1264 q 558 1258 547 1264 q 583 1238 569 1253 l 725 1082 q 732 1064 732 1075 q 710 1042 732 1042 l 610 1042 q 588 1046 596 1042 q 567 1057 579 1050 l 464 1117 l 361 1057 q 340 1046 349 1050 q 318 1042 332 1042 l 218 1042 q 196 1064 196 1042 q 203 1082 196 1075 l 344 1238 q 369 1258 358 1253 q 396 1264 381 1264 l 532 1264 z "},"Ë":{"ha":893,"x_min":97,"x_max":831,"o":"m 793 222 q 819 211 808 222 q 831 185 831 200 l 831 38 q 819 11 831 22 q 793 0 808 0 l 135 0 q 108 11 119 0 q 97 38 97 22 l 97 935 q 108 961 97 950 q 135 972 119 972 l 782 972 q 808 961 797 972 q 819 935 819 950 l 819 788 q 808 761 819 772 q 782 750 797 750 l 354 750 l 354 600 l 751 600 q 778 589 767 600 q 789 563 789 578 l 789 415 q 778 389 789 400 q 751 378 767 378 l 354 378 l 354 222 l 793 222 m 394 1079 q 383 1053 394 1064 q 357 1042 372 1042 l 217 1042 q 190 1053 201 1042 q 179 1079 179 1064 l 179 1219 q 190 1246 179 1235 q 217 1257 201 1257 l 357 1257 q 383 1246 372 1257 q 394 1219 394 1235 l 394 1079 m 749 1079 q 738 1053 749 1064 q 711 1042 726 1042 l 571 1042 q 544 1053 556 1042 q 533 1079 533 1064 l 533 1219 q 544 1246 533 1235 q 571 1257 556 1257 l 711 1257 q 738 1246 726 1257 q 749 1219 749 1235 l 749 1079 z "},"Ė":{"ha":893,"x_min":97,"x_max":831,"o":"m 793 222 q 819 211 808 222 q 831 185 831 200 l 831 38 q 819 11 831 22 q 793 0 808 0 l 135 0 q 108 11 119 0 q 97 38 97 22 l 97 935 q 108 961 97 950 q 135 972 119 972 l 782 972 q 808 961 797 972 q 819 935 819 950 l 819 788 q 808 761 819 772 q 782 750 797 750 l 354 750 l 354 600 l 751 600 q 778 589 767 600 q 789 563 789 578 l 789 415 q 778 389 789 400 q 751 378 767 378 l 354 378 l 354 222 l 793 222 m 579 1079 q 568 1053 579 1064 q 542 1042 557 1042 l 388 1042 q 361 1053 372 1042 q 350 1079 350 1064 l 350 1233 q 361 1260 350 1249 q 388 1271 372 1271 l 542 1271 q 568 1260 557 1271 q 579 1233 579 1249 l 579 1079 z "},"È":{"ha":893,"x_min":97,"x_max":831,"o":"m 793 222 q 819 211 808 222 q 831 185 831 200 l 831 38 q 819 11 831 22 q 793 0 808 0 l 135 0 q 108 11 119 0 q 97 38 97 22 l 97 935 q 108 961 97 950 q 135 972 119 972 l 782 972 q 808 961 797 972 q 819 935 819 950 l 819 788 q 808 761 819 772 q 782 750 797 750 l 354 750 l 354 600 l 751 600 q 778 589 767 600 q 789 563 789 578 l 789 415 q 778 389 789 400 q 751 378 767 378 l 354 378 l 354 222 l 793 222 m 563 1082 q 569 1064 569 1075 q 547 1042 569 1042 l 411 1042 q 376 1049 389 1042 q 353 1065 364 1056 l 165 1219 q 158 1236 158 1226 q 185 1264 158 1264 l 383 1264 q 409 1260 399 1264 q 435 1238 419 1256 l 563 1082 z "},"Ē":{"ha":893,"x_min":97,"x_max":831,"o":"m 793 222 q 819 211 808 222 q 831 185 831 200 l 831 38 q 819 11 831 22 q 793 0 808 0 l 135 0 q 108 11 119 0 q 97 38 97 22 l 97 935 q 108 961 97 950 q 135 972 119 972 l 782 972 q 808 961 797 972 q 819 935 819 950 l 819 788 q 808 761 819 772 q 782 750 797 750 l 354 750 l 354 600 l 751 600 q 778 589 767 600 q 789 563 789 578 l 789 415 q 778 389 789 400 q 751 378 767 378 l 354 378 l 354 222 l 793 222 m 243 1042 q 217 1053 228 1042 q 206 1079 206 1064 l 206 1199 q 217 1225 206 1214 q 243 1236 228 1236 l 686 1236 q 713 1225 701 1236 q 724 1199 724 1214 l 724 1079 q 713 1053 724 1064 q 686 1042 701 1042 l 243 1042 z "},"Ę":{"ha":893,"x_min":97,"x_max":831,"o":"m 774 -306 q 679 -288 721 -306 q 608 -241 638 -271 q 564 -169 579 -211 q 549 -78 549 -128 q 560 0 549 -37 l 135 0 q 108 11 119 0 q 97 38 97 22 l 97 935 q 108 961 97 950 q 135 972 119 972 l 782 972 q 808 961 797 972 q 819 935 819 950 l 819 788 q 808 761 819 772 q 782 750 797 750 l 354 750 l 354 600 l 751 600 q 778 589 767 600 q 789 563 789 578 l 789 415 q 778 389 789 400 q 751 378 767 378 l 354 378 l 354 222 l 793 222 q 819 211 808 222 q 831 185 831 200 l 831 38 q 819 11 831 22 q 793 0 808 0 l 772 0 q 722 -23 740 0 q 704 -78 704 -46 q 724 -133 704 -110 q 779 -156 743 -156 l 800 -156 q 831 -186 831 -156 l 831 -275 q 800 -306 831 -306 l 774 -306 z "},"F":{"ha":857,"x_min":97,"x_max":807,"o":"m 769 972 q 796 961 785 972 q 807 935 807 950 l 807 788 q 796 761 807 772 q 769 750 785 750 l 354 750 l 354 560 l 742 560 q 768 549 757 560 q 779 522 779 538 l 779 375 q 768 349 779 360 q 742 338 757 338 l 354 338 l 354 38 q 343 11 354 22 q 317 0 332 0 l 135 0 q 108 11 119 0 q 97 38 97 22 l 97 935 q 108 961 97 950 q 135 972 119 972 l 769 972 z "},"G":{"ha":988,"x_min":61,"x_max":928,"o":"m 496 764 q 417 751 449 764 q 365 715 385 738 q 335 664 344 693 q 321 603 325 635 q 317 553 318 585 q 317 487 317 521 q 318 420 317 453 q 321 369 319 388 q 334 308 324 338 q 365 257 344 279 q 417 222 385 235 q 496 208 450 208 q 564 217 532 208 q 619 243 596 225 q 657 290 643 261 q 671 361 671 319 l 554 361 q 528 372 539 361 q 517 399 517 383 l 517 546 q 528 572 517 561 q 554 583 539 583 l 890 583 q 917 572 906 583 q 928 546 928 561 l 928 368 q 894 208 928 279 q 803 88 861 138 q 666 13 744 39 q 496 -14 588 -14 q 317 16 396 -14 q 183 97 239 46 q 98 217 128 149 q 64 363 68 286 q 61 485 61 419 q 64 610 61 550 q 97 755 67 686 q 183 875 128 824 q 317 956 238 926 q 496 986 396 986 q 671 958 593 986 q 803 885 749 929 q 888 790 857 842 q 921 690 918 738 q 913 669 922 678 q 890 660 903 660 l 706 660 q 673 672 685 660 q 650 697 661 685 q 597 743 631 722 q 496 764 564 764 z "},"Ğ":{"ha":988,"x_min":61,"x_max":928,"o":"m 496 764 q 417 751 449 764 q 365 715 385 738 q 335 664 344 693 q 321 603 325 635 q 317 553 318 585 q 317 487 317 521 q 318 420 317 453 q 321 369 319 388 q 334 308 324 338 q 365 257 344 279 q 417 222 385 235 q 496 208 450 208 q 564 217 532 208 q 619 243 596 225 q 657 290 643 261 q 671 361 671 319 l 554 361 q 528 372 539 361 q 517 399 517 383 l 517 546 q 528 572 517 561 q 554 583 539 583 l 890 583 q 917 572 906 583 q 928 546 928 561 l 928 368 q 894 208 928 279 q 803 88 861 138 q 666 13 744 39 q 496 -14 588 -14 q 317 16 396 -14 q 183 97 239 46 q 98 217 128 149 q 64 363 68 286 q 61 485 61 419 q 64 610 61 550 q 97 755 67 686 q 183 875 128 824 q 317 956 238 926 q 496 986 396 986 q 671 958 593 986 q 803 885 749 929 q 888 790 857 842 q 921 690 918 738 q 913 669 922 678 q 890 660 903 660 l 706 660 q 673 672 685 660 q 650 697 661 685 q 597 743 631 722 q 496 764 564 764 m 493 1035 q 385 1053 429 1035 q 312 1102 340 1072 q 271 1168 283 1132 q 258 1238 258 1204 q 265 1256 258 1249 q 285 1264 272 1264 l 401 1264 q 421 1256 414 1264 q 428 1238 428 1249 q 444 1190 428 1211 q 493 1168 461 1168 q 542 1190 525 1168 q 558 1238 558 1211 q 565 1256 558 1249 q 585 1264 572 1264 l 701 1264 q 721 1256 714 1264 q 728 1238 728 1249 q 715 1168 728 1204 q 674 1102 703 1132 q 601 1053 646 1072 q 493 1035 557 1035 z "},"Ĝ":{"ha":988,"x_min":61,"x_max":928,"o":"m 496 764 q 417 751 449 764 q 365 715 385 738 q 335 664 344 693 q 321 603 325 635 q 317 553 318 585 q 317 487 317 521 q 318 420 317 453 q 321 369 319 388 q 334 308 324 338 q 365 257 344 279 q 417 222 385 235 q 496 208 450 208 q 564 217 532 208 q 619 243 596 225 q 657 290 643 261 q 671 361 671 319 l 554 361 q 528 372 539 361 q 517 399 517 383 l 517 546 q 528 572 517 561 q 554 583 539 583 l 890 583 q 917 572 906 583 q 928 546 928 561 l 928 368 q 894 208 928 279 q 803 88 861 138 q 666 13 744 39 q 496 -14 588 -14 q 317 16 396 -14 q 183 97 239 46 q 98 217 128 149 q 64 363 68 286 q 61 485 61 419 q 64 610 61 550 q 97 755 67 686 q 183 875 128 824 q 317 956 238 926 q 496 986 396 986 q 671 958 593 986 q 803 885 749 929 q 888 790 857 842 q 921 690 918 738 q 913 669 922 678 q 890 660 903 660 l 706 660 q 673 672 685 660 q 650 697 661 685 q 597 743 631 722 q 496 764 564 764 m 561 1264 q 588 1258 576 1264 q 613 1238 599 1253 l 754 1082 q 761 1064 761 1075 q 739 1042 761 1042 l 639 1042 q 617 1046 625 1042 q 596 1057 608 1050 l 493 1117 l 390 1057 q 369 1046 378 1050 q 347 1042 361 1042 l 247 1042 q 225 1064 225 1042 q 232 1082 225 1075 l 374 1238 q 399 1258 388 1253 q 425 1264 410 1264 l 561 1264 z "},"Ģ":{"ha":988,"x_min":61,"x_max":928,"o":"m 496 764 q 417 751 449 764 q 365 715 385 738 q 335 664 344 693 q 321 603 325 635 q 317 553 318 585 q 317 487 317 521 q 318 420 317 453 q 321 369 319 388 q 334 308 324 338 q 365 257 344 279 q 417 222 385 235 q 496 208 450 208 q 564 217 532 208 q 619 243 596 225 q 657 290 643 261 q 671 361 671 319 l 554 361 q 528 372 539 361 q 517 399 517 383 l 517 546 q 528 572 517 561 q 554 583 539 583 l 890 583 q 917 572 906 583 q 928 546 928 561 l 928 368 q 894 208 928 279 q 803 88 861 138 q 666 13 744 39 q 496 -14 588 -14 q 317 16 396 -14 q 183 97 239 46 q 98 217 128 149 q 64 363 68 286 q 61 485 61 419 q 64 610 61 550 q 97 755 67 686 q 183 875 128 824 q 317 956 238 926 q 496 986 396 986 q 671 958 593 986 q 803 885 749 929 q 888 790 857 842 q 921 690 918 738 q 913 669 922 678 q 890 660 903 660 l 706 660 q 673 672 685 660 q 650 697 661 685 q 597 743 631 722 q 496 764 564 764 m 365 -124 q 383 -87 368 -104 q 425 -69 397 -69 l 596 -69 q 617 -78 608 -69 q 626 -100 626 -87 q 625 -110 626 -106 l 549 -303 q 530 -332 543 -317 q 489 -347 517 -347 l 365 -347 q 344 -338 353 -347 q 335 -317 335 -329 l 335 -314 l 365 -124 z "},"Ġ":{"ha":988,"x_min":61,"x_max":928,"o":"m 496 764 q 417 751 449 764 q 365 715 385 738 q 335 664 344 693 q 321 603 325 635 q 317 553 318 585 q 317 487 317 521 q 318 420 317 453 q 321 369 319 388 q 334 308 324 338 q 365 257 344 279 q 417 222 385 235 q 496 208 450 208 q 564 217 532 208 q 619 243 596 225 q 657 290 643 261 q 671 361 671 319 l 554 361 q 528 372 539 361 q 517 399 517 383 l 517 546 q 528 572 517 561 q 554 583 539 583 l 890 583 q 917 572 906 583 q 928 546 928 561 l 928 368 q 894 208 928 279 q 803 88 861 138 q 666 13 744 39 q 496 -14 588 -14 q 317 16 396 -14 q 183 97 239 46 q 98 217 128 149 q 64 363 68 286 q 61 485 61 419 q 64 610 61 550 q 97 755 67 686 q 183 875 128 824 q 317 956 238 926 q 496 986 396 986 q 671 958 593 986 q 803 885 749 929 q 888 790 857 842 q 921 690 918 738 q 913 669 922 678 q 890 660 903 660 l 706 660 q 673 672 685 660 q 650 697 661 685 q 597 743 631 722 q 496 764 564 764 m 608 1079 q 597 1053 608 1064 q 571 1042 586 1042 l 417 1042 q 390 1053 401 1042 q 379 1079 379 1064 l 379 1233 q 390 1260 379 1249 q 417 1271 401 1271 l 571 1271 q 597 1260 586 1271 q 608 1233 608 1249 l 608 1079 z "},"H":{"ha":1017,"x_min":97,"x_max":919,"o":"m 882 972 q 908 961 897 972 q 919 935 919 950 l 919 38 q 908 11 919 22 q 882 0 897 0 l 700 0 q 674 11 685 0 q 663 38 663 22 l 663 378 l 354 378 l 354 38 q 343 11 354 22 q 317 0 332 0 l 135 0 q 108 10 119 0 q 97 38 97 21 l 97 935 q 108 961 97 950 q 135 972 119 972 l 317 972 q 343 961 332 972 q 354 935 354 950 l 354 600 l 663 600 l 663 935 q 674 961 663 950 q 700 972 685 972 l 882 972 z "},"Ħ":{"ha":1017,"x_min":97,"x_max":919,"o":"m 882 972 q 908 961 897 972 q 919 935 919 950 l 919 38 q 908 11 919 22 q 882 0 897 0 l 700 0 q 674 11 685 0 q 663 38 663 22 l 663 378 l 354 378 l 354 38 q 343 11 354 22 q 317 0 332 0 l 135 0 q 108 10 119 0 q 97 38 97 21 l 97 935 q 108 961 97 950 q 135 972 119 972 l 317 972 q 343 961 332 972 q 354 935 354 950 l 354 881 l 663 881 l 663 935 q 674 961 663 950 q 700 972 685 972 l 882 972 m 663 600 l 663 693 l 354 693 l 354 600 l 663 600 z "},"Ĥ":{"ha":1017,"x_min":97,"x_max":919,"o":"m 882 972 q 908 961 897 972 q 919 935 919 950 l 919 38 q 908 11 919 22 q 882 0 897 0 l 700 0 q 674 11 685 0 q 663 38 663 22 l 663 378 l 354 378 l 354 38 q 343 11 354 22 q 317 0 332 0 l 135 0 q 108 10 119 0 q 97 38 97 21 l 97 935 q 108 961 97 950 q 135 972 119 972 l 317 972 q 343 961 332 972 q 354 935 354 950 l 354 600 l 663 600 l 663 935 q 674 961 663 950 q 700 972 685 972 l 882 972 m 576 1264 q 603 1258 592 1264 q 628 1238 614 1253 l 769 1082 q 776 1064 776 1075 q 754 1042 776 1042 l 654 1042 q 632 1046 640 1042 q 611 1057 624 1050 l 508 1117 l 406 1057 q 385 1046 393 1050 q 363 1042 376 1042 l 263 1042 q 240 1064 240 1042 q 247 1082 240 1075 l 389 1238 q 414 1258 403 1253 q 440 1264 425 1264 l 576 1264 z "},"I":{"ha":451,"x_min":97,"x_max":354,"o":"m 135 0 q 108 11 119 0 q 97 38 97 22 l 97 935 q 108 961 97 950 q 135 972 119 972 l 317 972 q 343 961 332 972 q 354 935 354 950 l 354 38 q 343 11 354 22 q 317 0 332 0 l 135 0 z "},"Í":{"ha":451,"x_min":97,"x_max":529,"o":"m 135 0 q 108 11 119 0 q 97 38 97 22 l 97 935 q 108 961 97 950 q 135 972 119 972 l 317 972 q 343 961 332 972 q 354 935 354 950 l 354 38 q 343 11 354 22 q 317 0 332 0 l 135 0 m 253 1238 q 278 1260 268 1256 q 304 1264 289 1264 l 503 1264 q 529 1236 529 1264 q 522 1219 529 1226 l 335 1065 q 311 1049 324 1056 q 276 1042 299 1042 l 140 1042 q 118 1064 118 1042 q 125 1082 118 1075 l 253 1238 z "},"Ĭ":{"ha":451,"x_min":-10,"x_max":460,"o":"m 135 0 q 108 11 119 0 q 97 38 97 22 l 97 935 q 108 961 97 950 q 135 972 119 972 l 317 972 q 343 961 332 972 q 354 935 354 950 l 354 38 q 343 11 354 22 q 317 0 332 0 l 135 0 m 225 1035 q 117 1053 161 1035 q 44 1102 72 1072 q 3 1168 15 1132 q -10 1238 -10 1204 q -3 1256 -10 1249 q 17 1264 4 1264 l 133 1264 q 153 1256 146 1264 q 160 1238 160 1249 q 176 1190 160 1211 q 225 1168 193 1168 q 274 1190 257 1168 q 290 1238 290 1211 q 297 1256 290 1249 q 317 1264 304 1264 l 433 1264 q 453 1256 446 1264 q 460 1238 460 1249 q 447 1168 460 1204 q 406 1102 435 1132 q 333 1053 378 1072 q 225 1035 289 1035 z "},"Î":{"ha":451,"x_min":-43,"x_max":493,"o":"m 135 0 q 108 11 119 0 q 97 38 97 22 l 97 935 q 108 961 97 950 q 135 972 119 972 l 317 972 q 343 961 332 972 q 354 935 354 950 l 354 38 q 343 11 354 22 q 317 0 332 0 l 135 0 m 293 1264 q 319 1258 308 1264 q 344 1238 331 1253 l 486 1082 q 493 1064 493 1075 q 471 1042 493 1042 l 371 1042 q 349 1046 357 1042 q 328 1057 340 1050 l 225 1117 l 122 1057 q 101 1046 110 1050 q 79 1042 93 1042 l -21 1042 q -43 1064 -43 1042 q -36 1082 -43 1075 l 106 1238 q 131 1258 119 1253 q 157 1264 142 1264 l 293 1264 z "},"Ï":{"ha":451,"x_min":-60,"x_max":510,"o":"m 135 0 q 108 11 119 0 q 97 38 97 22 l 97 935 q 108 961 97 950 q 135 972 119 972 l 317 972 q 343 961 332 972 q 354 935 354 950 l 354 38 q 343 11 354 22 q 317 0 332 0 l 135 0 m 156 1079 q 144 1053 156 1064 q 118 1042 133 1042 l -22 1042 q -49 1053 -37 1042 q -60 1079 -60 1064 l -60 1219 q -49 1246 -60 1235 q -22 1257 -37 1257 l 118 1257 q 144 1246 133 1257 q 156 1219 156 1235 l 156 1079 m 510 1079 q 499 1053 510 1064 q 472 1042 488 1042 l 332 1042 q 306 1053 317 1042 q 294 1079 294 1064 l 294 1219 q 306 1246 294 1235 q 332 1257 317 1257 l 472 1257 q 499 1246 488 1257 q 510 1219 510 1235 l 510 1079 z "},"İ":{"ha":451,"x_min":97,"x_max":354,"o":"m 135 0 q 108 11 119 0 q 97 38 97 22 l 97 935 q 108 961 97 950 q 135 972 119 972 l 317 972 q 343 961 332 972 q 354 935 354 950 l 354 38 q 343 11 354 22 q 317 0 332 0 l 135 0 m 340 1079 q 329 1053 340 1064 q 303 1042 318 1042 l 149 1042 q 122 1053 133 1042 q 111 1079 111 1064 l 111 1233 q 122 1260 111 1249 q 149 1271 133 1271 l 303 1271 q 329 1260 318 1271 q 340 1233 340 1249 l 340 1079 z "},"Ì":{"ha":451,"x_min":-79,"x_max":354,"o":"m 135 0 q 108 11 119 0 q 97 38 97 22 l 97 935 q 108 961 97 950 q 135 972 119 972 l 317 972 q 343 961 332 972 q 354 935 354 950 l 354 38 q 343 11 354 22 q 317 0 332 0 l 135 0 m 325 1082 q 332 1064 332 1075 q 310 1042 332 1042 l 174 1042 q 139 1049 151 1042 q 115 1065 126 1056 l -72 1219 q -79 1236 -79 1226 q -53 1264 -79 1264 l 146 1264 q 172 1260 161 1264 q 197 1238 182 1256 l 325 1082 z "},"Ī":{"ha":451,"x_min":-33,"x_max":485,"o":"m 135 0 q 108 11 119 0 q 97 38 97 22 l 97 935 q 108 961 97 950 q 135 972 119 972 l 317 972 q 343 961 332 972 q 354 935 354 950 l 354 38 q 343 11 354 22 q 317 0 332 0 l 135 0 m 4 1042 q -22 1053 -11 1042 q -33 1079 -33 1064 l -33 1199 q -22 1225 -33 1214 q 4 1236 -11 1236 l 447 1236 q 474 1225 463 1236 q 485 1199 485 1214 l 485 1079 q 474 1053 485 1064 q 447 1042 463 1042 l 4 1042 z "},"Į":{"ha":451,"x_min":72,"x_max":354,"o":"m 303 0 q 247 -23 267 0 q 228 -78 228 -46 q 247 -133 228 -110 q 303 -156 267 -156 l 324 -156 q 354 -186 354 -156 l 354 -275 q 324 -306 354 -306 l 297 -306 q 203 -288 244 -306 q 132 -241 161 -271 q 88 -169 103 -211 q 72 -78 72 -128 q 97 36 72 -14 l 97 935 q 108 961 97 950 q 135 972 119 972 l 317 972 q 343 961 332 972 q 354 935 354 950 l 354 38 q 343 11 354 22 q 317 0 332 0 l 303 0 z "},"Ĩ":{"ha":451,"x_min":-51,"x_max":501,"o":"m 135 0 q 108 11 119 0 q 97 38 97 22 l 97 935 q 108 961 97 950 q 135 972 119 972 l 317 972 q 343 961 332 972 q 354 935 354 950 l 354 38 q 343 11 354 22 q 317 0 332 0 l 135 0 m 346 1035 q 275 1044 303 1035 q 226 1066 247 1054 q 188 1088 206 1078 q 149 1097 171 1097 q 124 1088 132 1097 q 109 1069 115 1079 q 97 1050 103 1058 q 81 1042 92 1042 l -25 1042 q -44 1049 -37 1042 q -51 1068 -51 1057 q -42 1133 -51 1099 q -14 1194 -33 1167 q 35 1239 6 1221 q 104 1257 64 1257 q 175 1247 147 1257 q 224 1226 203 1238 q 262 1204 244 1214 q 301 1194 279 1194 q 326 1203 318 1194 q 341 1222 335 1211 q 353 1241 347 1232 q 369 1250 358 1250 l 475 1250 q 494 1242 488 1250 q 501 1224 501 1235 q 490 1158 501 1192 q 458 1098 479 1125 q 409 1053 438 1071 q 346 1035 381 1035 z "},"J":{"ha":951,"x_min":35,"x_max":863,"o":"m 863 354 q 829 194 863 263 q 739 78 796 125 q 607 9 682 32 q 449 -14 532 -14 q 283 10 358 -14 q 153 76 208 33 q 67 178 99 118 q 35 314 36 239 q 44 335 35 326 q 65 344 53 344 l 243 344 q 278 336 269 344 q 294 304 286 328 q 347 233 311 257 q 449 208 382 208 q 567 248 528 208 q 607 363 607 288 l 607 750 l 132 750 q 106 761 117 750 q 94 788 94 772 l 94 935 q 106 961 94 950 q 132 972 117 972 l 825 972 q 851 961 840 972 q 863 935 863 950 l 863 354 z "},"Ĵ":{"ha":951,"x_min":35,"x_max":863,"o":"m 863 354 q 829 194 863 263 q 739 78 796 125 q 607 9 682 32 q 449 -14 532 -14 q 283 10 358 -14 q 153 76 208 33 q 67 178 99 118 q 35 314 36 239 q 44 335 35 326 q 65 344 53 344 l 243 344 q 278 336 269 344 q 294 304 286 328 q 347 233 311 257 q 449 208 382 208 q 567 248 528 208 q 607 363 607 288 l 607 750 l 132 750 q 106 761 117 750 q 94 788 94 772 l 94 935 q 106 961 94 950 q 132 972 117 972 l 825 972 q 851 961 840 972 q 863 935 863 950 l 863 354 m 558 1264 q 585 1258 574 1264 q 610 1238 596 1253 l 751 1082 q 758 1064 758 1075 q 736 1042 758 1042 l 636 1042 q 614 1046 622 1042 q 593 1057 606 1050 l 490 1117 l 388 1057 q 367 1046 375 1050 q 344 1042 358 1042 l 244 1042 q 222 1064 222 1042 q 229 1082 222 1075 l 371 1238 q 396 1258 385 1253 q 422 1264 407 1264 l 558 1264 z "},"K":{"ha":935,"x_min":97,"x_max":925,"o":"m 921 46 q 925 31 925 40 q 916 9 925 18 q 894 0 907 0 l 674 0 q 642 8 654 0 q 617 32 629 17 l 354 363 l 354 38 q 343 11 354 22 q 317 0 332 0 l 135 0 q 108 11 119 0 q 97 38 97 22 l 97 935 q 108 961 97 950 q 135 972 119 972 l 317 972 q 343 961 332 972 q 354 935 354 950 l 354 642 l 599 942 q 617 961 606 950 q 654 972 628 972 l 871 972 q 892 963 883 972 q 901 942 901 954 q 897 926 901 932 l 554 507 l 921 46 z "},"Ķ":{"ha":935,"x_min":97,"x_max":925,"o":"m 921 46 q 925 31 925 40 q 916 9 925 18 q 894 0 907 0 l 674 0 q 642 8 654 0 q 617 32 629 17 l 354 363 l 354 38 q 343 11 354 22 q 317 0 332 0 l 135 0 q 108 11 119 0 q 97 38 97 22 l 97 935 q 108 961 97 950 q 135 972 119 972 l 317 972 q 343 961 332 972 q 354 935 354 950 l 354 642 l 599 942 q 617 961 606 950 q 654 972 628 972 l 871 972 q 892 963 883 972 q 901 942 901 954 q 897 926 901 932 l 554 507 l 921 46 m 363 -124 q 380 -87 365 -104 q 422 -69 394 -69 l 593 -69 q 615 -78 606 -69 q 624 -100 624 -87 q 622 -110 624 -106 l 546 -303 q 527 -332 540 -317 q 486 -347 514 -347 l 363 -347 q 341 -338 350 -347 q 332 -317 332 -329 l 332 -314 l 363 -124 z "},"L":{"ha":838,"x_min":97,"x_max":815,"o":"m 778 222 q 804 211 793 222 q 815 185 815 200 l 815 38 q 804 11 815 22 q 778 0 793 0 l 135 0 q 108 11 119 0 q 97 38 97 22 l 97 935 q 108 961 97 950 q 135 972 119 972 l 317 972 q 343 961 332 972 q 354 935 354 950 l 354 222 l 778 222 z "},"Ĺ":{"ha":838,"x_min":97,"x_max":815,"o":"m 778 222 q 804 211 793 222 q 815 185 815 200 l 815 38 q 804 11 815 22 q 778 0 793 0 l 135 0 q 108 11 119 0 q 97 38 97 22 l 97 935 q 108 961 97 950 q 135 972 119 972 l 317 972 q 343 961 332 972 q 354 935 354 950 l 354 222 l 778 222 m 256 1238 q 281 1260 271 1256 q 307 1264 292 1264 l 506 1264 q 532 1236 532 1264 q 525 1219 532 1226 l 338 1065 q 314 1049 326 1056 q 279 1042 301 1042 l 143 1042 q 121 1064 121 1042 q 128 1082 121 1075 l 256 1238 z "},"Ľ":{"ha":839,"x_min":97,"x_max":815,"o":"m 778 222 q 804 211 793 222 q 815 185 815 200 l 815 38 q 804 11 815 22 q 778 0 793 0 l 135 0 q 108 11 119 0 q 97 38 97 22 l 97 935 q 108 961 97 950 q 135 972 119 972 l 317 972 q 343 961 332 972 q 354 935 354 950 l 354 222 l 778 222 m 483 932 q 501 969 486 951 q 543 986 515 986 l 714 986 q 735 977 726 986 q 744 956 744 968 q 743 946 744 950 l 667 753 q 648 724 661 739 q 607 708 635 708 l 483 708 q 462 717 471 708 q 453 739 453 726 l 453 742 l 483 932 z "},"Ļ":{"ha":838,"x_min":97,"x_max":815,"o":"m 778 222 q 804 211 793 222 q 815 185 815 200 l 815 38 q 804 11 815 22 q 778 0 793 0 l 135 0 q 108 11 119 0 q 97 38 97 22 l 97 935 q 108 961 97 950 q 135 972 119 972 l 317 972 q 343 961 332 972 q 354 935 354 950 l 354 222 l 778 222 m 331 -124 q 348 -87 333 -104 q 390 -69 363 -69 l 561 -69 q 583 -78 574 -69 q 592 -100 592 -87 q 590 -110 592 -106 l 514 -303 q 495 -332 508 -317 q 454 -347 482 -347 l 331 -347 q 309 -338 318 -347 q 300 -317 300 -329 l 300 -314 l 331 -124 z "},"Ŀ":{"ha":839,"x_min":97,"x_max":815,"o":"m 778 222 q 804 211 793 222 q 815 185 815 200 l 815 38 q 804 11 815 22 q 778 0 793 0 l 135 0 q 108 11 119 0 q 97 38 97 22 l 97 935 q 108 961 97 950 q 135 972 119 972 l 317 972 q 343 961 332 972 q 354 935 354 950 l 354 222 l 778 222 m 704 464 q 693 438 704 449 q 667 426 682 426 l 485 426 q 458 438 469 426 q 447 464 447 449 l 447 646 q 458 672 447 661 q 485 683 469 683 l 667 683 q 693 672 682 683 q 704 646 704 661 l 704 464 z "},"Ł":{"ha":847,"x_min":24,"x_max":825,"o":"m 788 222 q 814 211 803 222 q 825 185 825 200 l 825 38 q 814 11 825 22 q 788 0 803 0 l 144 0 q 118 11 129 0 q 107 38 107 22 l 107 350 l 68 335 q 53 331 57 331 q 32 339 40 331 q 24 360 24 347 l 24 440 q 54 486 24 475 l 107 507 l 107 935 q 118 961 107 950 q 144 972 129 972 l 326 972 q 353 961 342 972 q 364 935 364 950 l 364 607 l 550 681 q 565 685 560 685 q 586 676 578 685 q 594 656 594 668 l 594 575 q 564 529 594 540 l 364 450 l 364 222 l 788 222 z "},"M":{"ha":1161,"x_min":97,"x_max":1064,"o":"m 536 233 q 503 245 515 233 q 485 268 492 257 l 354 497 l 354 38 q 343 11 354 22 q 317 0 332 0 l 135 0 q 108 11 119 0 q 97 38 97 22 l 97 935 q 108 961 97 950 q 135 972 119 972 l 296 972 q 338 957 324 972 q 356 935 351 942 l 581 550 l 806 935 q 824 957 810 942 q 865 972 838 972 l 1026 972 q 1053 961 1042 972 q 1064 935 1064 950 l 1064 38 q 1053 11 1064 22 q 1026 0 1042 0 l 844 0 q 818 11 829 0 q 807 38 807 22 l 807 497 l 676 268 q 658 245 669 257 q 625 233 646 233 l 536 233 l 536 233 z "},"N":{"ha":1008,"x_min":97,"x_max":911,"o":"m 729 0 q 691 13 706 0 q 672 32 676 25 l 354 507 l 354 38 q 343 11 354 22 q 317 0 332 0 l 135 0 q 108 11 119 0 q 97 38 97 22 l 97 935 q 108 961 97 950 q 135 972 119 972 l 279 972 q 317 960 303 972 q 336 940 332 947 l 654 465 l 654 935 q 665 961 654 950 q 692 972 676 972 l 874 972 q 900 961 889 972 q 911 935 911 950 l 911 38 q 900 11 911 22 q 874 0 889 0 l 729 0 z "},"Ń":{"ha":1008,"x_min":97,"x_max":911,"o":"m 729 0 q 691 13 706 0 q 672 32 676 25 l 354 507 l 354 38 q 343 11 354 22 q 317 0 332 0 l 135 0 q 108 11 119 0 q 97 38 97 22 l 97 935 q 108 961 97 950 q 135 972 119 972 l 279 972 q 317 960 303 972 q 336 940 332 947 l 654 465 l 654 935 q 665 961 654 950 q 692 972 676 972 l 874 972 q 900 961 889 972 q 911 935 911 950 l 911 38 q 900 11 911 22 q 874 0 889 0 l 729 0 m 538 1238 q 563 1260 553 1256 q 589 1264 574 1264 l 788 1264 q 814 1236 814 1264 q 807 1219 814 1226 l 619 1065 q 596 1049 608 1056 q 561 1042 583 1042 l 425 1042 q 403 1064 403 1042 q 410 1082 403 1075 l 538 1238 z "},"Ň":{"ha":1008,"x_min":97,"x_max":911,"o":"m 729 0 q 691 13 706 0 q 672 32 676 25 l 354 507 l 354 38 q 343 11 354 22 q 317 0 332 0 l 135 0 q 108 11 119 0 q 97 38 97 22 l 97 935 q 108 961 97 950 q 135 972 119 972 l 279 972 q 317 960 303 972 q 336 940 332 947 l 654 465 l 654 935 q 665 961 654 950 q 692 972 676 972 l 874 972 q 900 961 889 972 q 911 935 911 950 l 911 38 q 900 11 911 22 q 874 0 889 0 l 729 0 m 436 1042 q 410 1047 421 1042 q 385 1068 399 1053 l 243 1224 q 236 1242 236 1231 q 258 1264 236 1264 l 358 1264 q 381 1260 372 1264 q 401 1249 389 1256 l 504 1189 l 607 1249 q 628 1260 619 1256 q 650 1264 636 1264 l 750 1264 q 772 1242 772 1264 q 765 1224 772 1231 l 624 1068 q 599 1047 610 1053 q 572 1042 588 1042 l 436 1042 z "},"Ņ":{"ha":1008,"x_min":97,"x_max":911,"o":"m 729 0 q 691 13 706 0 q 672 32 676 25 l 354 507 l 354 38 q 343 11 354 22 q 317 0 332 0 l 135 0 q 108 11 119 0 q 97 38 97 22 l 97 935 q 108 961 97 950 q 135 972 119 972 l 279 972 q 317 960 303 972 q 336 940 332 947 l 654 465 l 654 935 q 665 961 654 950 q 692 972 676 972 l 874 972 q 900 961 889 972 q 911 935 911 950 l 911 38 q 900 11 911 22 q 874 0 889 0 l 729 0 m 374 -124 q 391 -87 376 -104 q 433 -69 406 -69 l 604 -69 q 626 -78 617 -69 q 635 -100 635 -87 q 633 -110 635 -106 l 557 -303 q 538 -332 551 -317 q 497 -347 525 -347 l 374 -347 q 352 -338 361 -347 q 343 -317 343 -329 l 343 -314 l 374 -124 z "},"Ñ":{"ha":1008,"x_min":97,"x_max":911,"o":"m 729 0 q 691 13 706 0 q 672 32 676 25 l 354 507 l 354 38 q 343 11 354 22 q 317 0 332 0 l 135 0 q 108 11 119 0 q 97 38 97 22 l 97 935 q 108 961 97 950 q 135 972 119 972 l 279 972 q 317 960 303 972 q 336 940 332 947 l 654 465 l 654 935 q 665 961 654 950 q 692 972 676 972 l 874 972 q 900 961 889 972 q 911 935 911 950 l 911 38 q 900 11 911 22 q 874 0 889 0 l 729 0 m 625 1035 q 554 1044 582 1035 q 506 1066 526 1054 q 467 1088 485 1078 q 428 1097 450 1097 q 403 1088 411 1097 q 388 1069 394 1079 q 376 1050 382 1058 q 360 1042 371 1042 l 254 1042 q 235 1049 242 1042 q 228 1068 228 1057 q 237 1133 228 1099 q 265 1194 246 1167 q 314 1239 285 1221 q 383 1257 343 1257 q 454 1247 426 1257 q 503 1226 482 1238 q 541 1204 524 1214 q 581 1194 558 1194 q 606 1203 597 1194 q 620 1222 614 1211 q 632 1241 626 1232 q 649 1250 638 1250 l 754 1250 q 774 1242 767 1250 q 781 1224 781 1235 q 769 1158 781 1192 q 738 1098 758 1125 q 688 1053 717 1071 q 625 1035 660 1035 z "},"O":{"ha":997,"x_min":63,"x_max":935,"o":"m 65 610 q 99 756 69 688 q 184 876 129 825 q 317 956 239 926 q 499 986 396 986 q 679 956 600 986 q 813 876 758 926 q 898 756 868 825 q 932 610 928 688 q 935 485 935 550 q 932 363 935 419 q 898 216 928 285 q 813 96 868 147 q 679 15 758 44 q 499 -14 600 -14 q 317 15 396 -14 q 184 96 239 44 q 99 216 129 147 q 65 363 69 285 q 63 485 63 419 q 65 610 63 550 m 675 369 q 678 425 676 394 q 679 488 679 456 q 678 549 679 519 q 675 603 676 579 q 660 667 672 638 q 627 717 649 696 q 574 751 606 739 q 499 764 542 764 q 424 751 456 764 q 370 717 392 739 q 337 667 349 696 q 322 603 325 638 q 319 549 319 579 q 318 488 318 519 q 319 425 318 456 q 322 369 319 394 q 370 254 328 300 q 499 208 413 208 q 626 254 585 208 q 675 369 668 300 z "},"Ó":{"ha":997,"x_min":63,"x_max":935,"o":"m 65 610 q 99 756 69 688 q 184 876 129 825 q 317 956 239 926 q 499 986 396 986 q 679 956 600 986 q 813 876 758 926 q 898 756 868 825 q 932 610 928 688 q 935 485 935 550 q 932 363 935 419 q 898 216 928 285 q 813 96 868 147 q 679 15 758 44 q 499 -14 600 -14 q 317 15 396 -14 q 184 96 239 44 q 99 216 129 147 q 65 363 69 285 q 63 485 63 419 q 65 610 63 550 m 675 369 q 678 425 676 394 q 679 488 679 456 q 678 549 679 519 q 675 603 676 579 q 660 667 672 638 q 627 717 649 696 q 574 751 606 739 q 499 764 542 764 q 424 751 456 764 q 370 717 392 739 q 337 667 349 696 q 322 603 325 638 q 319 549 319 579 q 318 488 318 519 q 319 425 318 456 q 322 369 319 394 q 370 254 328 300 q 499 208 413 208 q 626 254 585 208 q 675 369 668 300 m 518 1238 q 544 1260 533 1256 q 569 1264 554 1264 l 768 1264 q 794 1236 794 1264 q 788 1219 794 1226 l 600 1065 q 576 1049 589 1056 q 542 1042 564 1042 l 406 1042 q 383 1064 383 1042 q 390 1082 383 1075 l 518 1238 z "},"Ŏ":{"ha":997,"x_min":63,"x_max":935,"o":"m 65 610 q 99 756 69 688 q 184 876 129 825 q 317 956 239 926 q 499 986 396 986 q 679 956 600 986 q 813 876 758 926 q 898 756 868 825 q 932 610 928 688 q 935 485 935 550 q 932 363 935 419 q 898 216 928 285 q 813 96 868 147 q 679 15 758 44 q 499 -14 600 -14 q 317 15 396 -14 q 184 96 239 44 q 99 216 129 147 q 65 363 69 285 q 63 485 63 419 q 65 610 63 550 m 675 369 q 678 425 676 394 q 679 488 679 456 q 678 549 679 519 q 675 603 676 579 q 660 667 672 638 q 627 717 649 696 q 574 751 606 739 q 499 764 542 764 q 424 751 456 764 q 370 717 392 739 q 337 667 349 696 q 322 603 325 638 q 319 549 319 579 q 318 488 318 519 q 319 425 318 456 q 322 369 319 394 q 370 254 328 300 q 499 208 413 208 q 626 254 585 208 q 675 369 668 300 m 499 1035 q 390 1053 435 1035 q 317 1102 346 1072 q 276 1168 289 1132 q 264 1238 264 1204 q 271 1256 264 1249 q 290 1264 278 1264 l 407 1264 q 426 1256 419 1264 q 433 1238 433 1249 q 450 1190 433 1211 q 499 1168 467 1168 q 547 1190 531 1168 q 564 1238 564 1211 q 571 1256 564 1249 q 590 1264 578 1264 l 707 1264 q 726 1256 719 1264 q 733 1238 733 1249 q 721 1168 733 1204 q 680 1102 708 1132 q 607 1053 651 1072 q 499 1035 563 1035 z "},"Ô":{"ha":997,"x_min":63,"x_max":935,"o":"m 65 610 q 99 756 69 688 q 184 876 129 825 q 317 956 239 926 q 499 986 396 986 q 679 956 600 986 q 813 876 758 926 q 898 756 868 825 q 932 610 928 688 q 935 485 935 550 q 932 363 935 419 q 898 216 928 285 q 813 96 868 147 q 679 15 758 44 q 499 -14 600 -14 q 317 15 396 -14 q 184 96 239 44 q 99 216 129 147 q 65 363 69 285 q 63 485 63 419 q 65 610 63 550 m 675 369 q 678 425 676 394 q 679 488 679 456 q 678 549 679 519 q 675 603 676 579 q 660 667 672 638 q 627 717 649 696 q 574 751 606 739 q 499 764 542 764 q 424 751 456 764 q 370 717 392 739 q 337 667 349 696 q 322 603 325 638 q 319 549 319 579 q 318 488 318 519 q 319 425 318 456 q 322 369 319 394 q 370 254 328 300 q 499 208 413 208 q 626 254 585 208 q 675 369 668 300 m 567 1264 q 593 1258 582 1264 q 618 1238 604 1253 l 760 1082 q 767 1064 767 1075 q 744 1042 767 1042 l 644 1042 q 622 1046 631 1042 q 601 1057 614 1050 l 499 1117 l 396 1057 q 375 1046 383 1050 q 353 1042 367 1042 l 253 1042 q 231 1064 231 1042 q 238 1082 231 1075 l 379 1238 q 404 1258 393 1253 q 431 1264 415 1264 l 567 1264 z "},"Ö":{"ha":997,"x_min":63,"x_max":935,"o":"m 65 610 q 99 756 69 688 q 184 876 129 825 q 317 956 239 926 q 499 986 396 986 q 679 956 600 986 q 813 876 758 926 q 898 756 868 825 q 932 610 928 688 q 935 485 935 550 q 932 363 935 419 q 898 216 928 285 q 813 96 868 147 q 679 15 758 44 q 499 -14 600 -14 q 317 15 396 -14 q 184 96 239 44 q 99 216 129 147 q 65 363 69 285 q 63 485 63 419 q 65 610 63 550 m 675 369 q 678 425 676 394 q 679 488 679 456 q 678 549 679 519 q 675 603 676 579 q 660 667 672 638 q 627 717 649 696 q 574 751 606 739 q 499 764 542 764 q 424 751 456 764 q 370 717 392 739 q 337 667 349 696 q 322 603 325 638 q 319 549 319 579 q 318 488 318 519 q 319 425 318 456 q 322 369 319 394 q 370 254 328 300 q 499 208 413 208 q 626 254 585 208 q 675 369 668 300 m 429 1079 q 418 1053 429 1064 q 392 1042 407 1042 l 251 1042 q 225 1053 236 1042 q 214 1079 214 1064 l 214 1219 q 225 1246 214 1235 q 251 1257 236 1257 l 392 1257 q 418 1246 407 1257 q 429 1219 429 1235 l 429 1079 m 783 1079 q 772 1053 783 1064 q 746 1042 761 1042 l 606 1042 q 579 1053 590 1042 q 568 1079 568 1064 l 568 1219 q 579 1246 568 1235 q 606 1257 590 1257 l 746 1257 q 772 1246 761 1257 q 783 1219 783 1235 l 783 1079 z "},"Ò":{"ha":997,"x_min":63,"x_max":935,"o":"m 65 610 q 99 756 69 688 q 184 876 129 825 q 317 956 239 926 q 499 986 396 986 q 679 956 600 986 q 813 876 758 926 q 898 756 868 825 q 932 610 928 688 q 935 485 935 550 q 932 363 935 419 q 898 216 928 285 q 813 96 868 147 q 679 15 758 44 q 499 -14 600 -14 q 317 15 396 -14 q 184 96 239 44 q 99 216 129 147 q 65 363 69 285 q 63 485 63 419 q 65 610 63 550 m 675 369 q 678 425 676 394 q 679 488 679 456 q 678 549 679 519 q 675 603 676 579 q 660 667 672 638 q 627 717 649 696 q 574 751 606 739 q 499 764 542 764 q 424 751 456 764 q 370 717 392 739 q 337 667 349 696 q 322 603 325 638 q 319 549 319 579 q 318 488 318 519 q 319 425 318 456 q 322 369 319 394 q 370 254 328 300 q 499 208 413 208 q 626 254 585 208 q 675 369 668 300 m 588 1082 q 594 1064 594 1075 q 572 1042 594 1042 l 436 1042 q 401 1049 414 1042 q 378 1065 389 1056 l 190 1219 q 183 1236 183 1226 q 210 1264 183 1264 l 408 1264 q 434 1260 424 1264 q 460 1238 444 1256 l 588 1082 z "},"Ő":{"ha":997,"x_min":63,"x_max":935,"o":"m 65 610 q 99 756 69 688 q 184 876 129 825 q 317 956 239 926 q 499 986 396 986 q 679 956 600 986 q 813 876 758 926 q 898 756 868 825 q 932 610 928 688 q 935 485 935 550 q 932 363 935 419 q 898 216 928 285 q 813 96 868 147 q 679 15 758 44 q 499 -14 600 -14 q 317 15 396 -14 q 184 96 239 44 q 99 216 129 147 q 65 363 69 285 q 63 485 63 419 q 65 610 63 550 m 675 369 q 678 425 676 394 q 679 488 679 456 q 678 549 679 519 q 675 603 676 579 q 660 667 672 638 q 627 717 649 696 q 574 751 606 739 q 499 764 542 764 q 424 751 456 764 q 370 717 392 739 q 337 667 349 696 q 322 603 325 638 q 319 549 319 579 q 318 488 318 519 q 319 425 318 456 q 322 369 319 394 q 370 254 328 300 q 499 208 413 208 q 626 254 585 208 q 675 369 668 300 m 317 1238 q 335 1258 324 1251 q 368 1264 346 1264 l 538 1264 q 565 1238 565 1264 q 557 1219 565 1228 l 411 1061 q 364 1042 394 1042 l 263 1042 q 240 1064 240 1042 q 242 1075 240 1069 q 247 1085 244 1081 l 317 1238 m 638 1238 q 656 1258 644 1251 q 689 1264 667 1264 l 858 1264 q 886 1238 886 1264 q 878 1219 886 1228 l 732 1061 q 685 1042 715 1042 l 583 1042 q 561 1064 561 1042 q 563 1075 561 1069 q 568 1085 565 1081 l 638 1238 z "},"Ō":{"ha":997,"x_min":63,"x_max":935,"o":"m 65 610 q 99 756 69 688 q 184 876 129 825 q 317 956 239 926 q 499 986 396 986 q 679 956 600 986 q 813 876 758 926 q 898 756 868 825 q 932 610 928 688 q 935 485 935 550 q 932 363 935 419 q 898 216 928 285 q 813 96 868 147 q 679 15 758 44 q 499 -14 600 -14 q 317 15 396 -14 q 184 96 239 44 q 99 216 129 147 q 65 363 69 285 q 63 485 63 419 q 65 610 63 550 m 675 369 q 678 425 676 394 q 679 488 679 456 q 678 549 679 519 q 675 603 676 579 q 660 667 672 638 q 627 717 649 696 q 574 751 606 739 q 499 764 542 764 q 424 751 456 764 q 370 717 392 739 q 337 667 349 696 q 322 603 325 638 q 319 549 319 579 q 318 488 318 519 q 319 425 318 456 q 322 369 319 394 q 370 254 328 300 q 499 208 413 208 q 626 254 585 208 q 675 369 668 300 m 278 1042 q 251 1053 263 1042 q 240 1079 240 1064 l 240 1199 q 251 1225 240 1214 q 278 1236 263 1236 l 721 1236 q 747 1225 736 1236 q 758 1199 758 1214 l 758 1079 q 747 1053 758 1064 q 721 1042 736 1042 l 278 1042 z "},"Ø":{"ha":1050,"x_min":19,"x_max":1031,"o":"m 92 610 q 126 756 96 688 q 210 876 156 825 q 344 956 265 926 q 525 986 422 986 q 676 967 608 986 q 795 912 743 947 q 883 828 847 876 q 938 721 918 779 l 986 740 q 1001 744 996 744 q 1022 736 1014 744 q 1031 715 1031 728 l 1031 635 q 1000 589 1031 600 l 960 574 q 962 466 963 521 q 958 363 961 411 q 924 216 954 285 q 840 96 894 147 q 706 15 785 44 q 525 -14 626 -14 q 374 6 442 -14 q 255 60 307 25 q 167 142 203 94 q 113 247 132 190 l 64 229 q 49 225 53 225 q 28 233 36 225 q 19 254 19 242 l 19 335 q 50 381 19 369 l 89 396 q 88 503 86 447 q 92 610 89 558 m 349 603 q 344 493 344 557 l 697 629 q 645 726 686 688 q 525 764 604 764 q 450 751 482 764 q 397 717 418 739 q 363 667 375 696 q 349 603 351 638 m 701 369 q 705 419 704 392 q 706 475 706 447 l 353 340 q 406 245 365 282 q 525 208 447 208 q 653 254 611 208 q 701 369 694 300 z "},"Ǿ":{"ha":1050,"x_min":19,"x_max":1031,"o":"m 554 1238 q 580 1260 569 1256 q 606 1264 590 1264 l 804 1264 q 831 1236 831 1264 q 824 1219 831 1226 l 636 1065 q 613 1049 625 1056 q 578 1042 600 1042 l 442 1042 q 419 1064 419 1042 q 426 1082 419 1075 l 554 1238 m 92 610 q 126 756 96 688 q 210 876 156 825 q 344 956 265 926 q 525 986 422 986 q 676 967 608 986 q 795 912 743 947 q 883 828 847 876 q 938 721 918 779 l 986 740 q 1001 744 996 744 q 1022 736 1014 744 q 1031 715 1031 728 l 1031 635 q 1000 589 1031 600 l 960 574 q 962 466 963 521 q 958 363 961 411 q 924 216 954 285 q 840 96 894 147 q 706 15 785 44 q 525 -14 626 -14 q 374 6 442 -14 q 255 60 307 25 q 167 142 203 94 q 113 247 132 190 l 64 229 q 49 225 53 225 q 28 233 36 225 q 19 254 19 242 l 19 335 q 50 381 19 369 l 89 396 q 88 503 86 447 q 92 610 89 558 m 349 603 q 344 493 344 557 l 697 629 q 645 726 686 688 q 525 764 604 764 q 450 751 482 764 q 397 717 418 739 q 363 667 375 696 q 349 603 351 638 m 701 369 q 705 419 704 392 q 706 475 706 447 l 353 340 q 406 245 365 282 q 525 208 447 208 q 653 254 611 208 q 701 369 694 300 z "},"Õ":{"ha":997,"x_min":63,"x_max":935,"o":"m 65 610 q 99 756 69 688 q 184 876 129 825 q 317 956 239 926 q 499 986 396 986 q 679 956 600 986 q 813 876 758 926 q 898 756 868 825 q 932 610 928 688 q 935 485 935 550 q 932 363 935 419 q 898 216 928 285 q 813 96 868 147 q 679 15 758 44 q 499 -14 600 -14 q 317 15 396 -14 q 184 96 239 44 q 99 216 129 147 q 65 363 69 285 q 63 485 63 419 q 65 610 63 550 m 675 369 q 678 425 676 394 q 679 488 679 456 q 678 549 679 519 q 675 603 676 579 q 660 667 672 638 q 627 717 649 696 q 574 751 606 739 q 499 764 542 764 q 424 751 456 764 q 370 717 392 739 q 337 667 349 696 q 322 603 325 638 q 319 549 319 579 q 318 488 318 519 q 319 425 318 456 q 322 369 319 394 q 370 254 328 300 q 499 208 413 208 q 626 254 585 208 q 675 369 668 300 m 619 1035 q 549 1044 576 1035 q 500 1066 521 1054 q 462 1088 479 1078 q 422 1097 444 1097 q 397 1088 406 1097 q 383 1069 389 1079 q 371 1050 376 1058 q 354 1042 365 1042 l 249 1042 q 229 1049 236 1042 q 222 1068 222 1057 q 231 1133 222 1099 q 260 1194 240 1167 q 308 1239 279 1221 q 378 1257 338 1257 q 449 1247 421 1257 q 497 1226 476 1238 q 535 1204 518 1214 q 575 1194 553 1194 q 600 1203 592 1194 q 615 1222 608 1211 q 626 1241 621 1232 q 643 1250 632 1250 l 749 1250 q 768 1242 761 1250 q 775 1224 775 1235 q 764 1158 775 1192 q 732 1098 753 1125 q 683 1053 711 1071 q 619 1035 654 1035 z "},"Œ":{"ha":1364,"x_min":60,"x_max":1300,"o":"m 1263 222 q 1289 211 1278 222 q 1300 185 1300 200 l 1300 38 q 1289 11 1300 22 q 1263 0 1278 0 l 494 0 q 321 28 399 0 q 187 108 243 57 q 99 231 131 160 q 63 388 67 301 q 60 439 61 415 q 60 485 60 463 q 60 531 60 507 q 63 585 61 556 q 99 741 67 669 q 190 864 132 813 q 326 944 247 915 q 501 972 406 972 l 1251 972 q 1278 961 1267 972 q 1289 935 1289 950 l 1289 788 q 1278 761 1289 772 q 1251 750 1267 750 l 865 750 l 865 600 l 1221 600 q 1247 589 1236 600 q 1258 563 1258 578 l 1258 415 q 1247 389 1258 400 q 1221 378 1236 378 l 865 378 l 865 222 l 1263 222 m 319 590 q 317 536 318 561 q 317 487 317 511 q 317 437 317 463 q 319 382 318 411 q 501 222 326 222 l 608 222 l 608 750 l 508 750 q 319 590 328 750 z "},"P":{"ha":953,"x_min":97,"x_max":917,"o":"m 532 972 q 692 952 621 972 q 813 891 763 932 q 890 789 863 850 q 917 647 917 728 q 890 504 917 565 q 813 403 863 443 q 692 342 763 363 q 532 321 621 321 l 354 321 l 354 38 q 343 11 354 22 q 317 0 332 0 l 135 0 q 108 11 119 0 q 97 38 97 22 l 97 935 q 108 961 97 950 q 135 972 119 972 l 532 972 m 354 538 l 525 538 q 622 563 583 538 q 660 647 660 589 q 622 731 660 706 q 525 757 583 757 l 354 757 l 354 538 z "},"Q":{"ha":997,"x_min":63,"x_max":946,"o":"m 65 610 q 99 756 69 688 q 184 876 129 825 q 317 956 239 926 q 499 986 396 986 q 679 956 600 986 q 813 876 758 926 q 898 756 868 825 q 932 610 928 688 q 935 485 935 550 q 932 363 935 419 q 902 225 928 289 q 829 111 876 161 l 939 -47 q 942 -53 940 -50 q 943 -60 943 -57 q 937 -81 946 -72 q 915 -90 928 -90 l 719 -90 q 681 -78 693 -90 q 661 -58 668 -67 l 622 0 q 563 -10 593 -7 q 499 -14 532 -14 q 317 15 396 -14 q 184 96 239 44 q 99 216 129 147 q 65 363 69 285 q 63 485 63 419 q 65 610 63 550 m 675 369 q 678 425 676 394 q 679 488 679 456 q 678 549 679 519 q 675 603 676 579 q 660 667 672 638 q 627 717 649 696 q 574 751 606 739 q 499 764 542 764 q 424 751 456 764 q 370 717 392 739 q 337 667 349 696 q 322 603 325 638 q 319 549 319 579 q 318 488 318 519 q 319 425 318 456 q 322 369 319 394 q 370 254 328 300 q 499 208 413 208 q 626 254 585 208 q 675 369 668 300 z "},"R":{"ha":965,"x_min":97,"x_max":914,"o":"m 511 972 q 675 953 603 972 q 798 894 747 933 q 876 795 849 856 q 903 654 903 735 q 860 481 903 550 q 738 376 817 413 l 910 46 q 914 31 914 38 q 905 9 914 18 q 883 0 896 0 l 694 0 q 655 13 667 0 q 636 38 643 25 l 482 335 l 354 335 l 354 38 q 343 11 354 22 q 317 0 332 0 l 135 0 q 108 11 119 0 q 97 38 97 22 l 97 935 q 108 961 97 950 q 135 972 119 972 l 511 972 m 354 551 l 511 551 q 608 574 569 551 q 646 654 646 596 q 608 735 646 713 q 511 757 569 757 l 354 757 l 354 551 z "},"Ŕ":{"ha":965,"x_min":97,"x_max":914,"o":"m 511 972 q 675 953 603 972 q 798 894 747 933 q 876 795 849 856 q 903 654 903 735 q 860 481 903 550 q 738 376 817 413 l 910 46 q 914 31 914 38 q 905 9 914 18 q 883 0 896 0 l 694 0 q 655 13 667 0 q 636 38 643 25 l 482 335 l 354 335 l 354 38 q 343 11 354 22 q 317 0 332 0 l 135 0 q 108 11 119 0 q 97 38 97 22 l 97 935 q 108 961 97 950 q 135 972 119 972 l 511 972 m 354 551 l 511 551 q 608 574 569 551 q 646 654 646 596 q 608 735 646 713 q 511 757 569 757 l 354 757 l 354 551 m 504 1238 q 530 1260 519 1256 q 556 1264 540 1264 l 754 1264 q 781 1236 781 1264 q 774 1219 781 1226 l 586 1065 q 563 1049 575 1056 q 528 1042 550 1042 l 392 1042 q 369 1064 369 1042 q 376 1082 369 1075 l 504 1238 z "},"Ř":{"ha":965,"x_min":97,"x_max":914,"o":"m 511 972 q 675 953 603 972 q 798 894 747 933 q 876 795 849 856 q 903 654 903 735 q 860 481 903 550 q 738 376 817 413 l 910 46 q 914 31 914 38 q 905 9 914 18 q 883 0 896 0 l 694 0 q 655 13 667 0 q 636 38 643 25 l 482 335 l 354 335 l 354 38 q 343 11 354 22 q 317 0 332 0 l 135 0 q 108 11 119 0 q 97 38 97 22 l 97 935 q 108 961 97 950 q 135 972 119 972 l 511 972 m 354 551 l 511 551 q 608 574 569 551 q 646 654 646 596 q 608 735 646 713 q 511 757 569 757 l 354 757 l 354 551 m 410 1042 q 383 1047 394 1042 q 358 1068 372 1053 l 217 1224 q 210 1242 210 1231 q 232 1264 210 1264 l 332 1264 q 354 1260 346 1264 q 375 1249 363 1256 l 478 1189 l 581 1249 q 601 1260 593 1256 q 624 1264 610 1264 l 724 1264 q 746 1242 746 1264 q 739 1224 746 1231 l 597 1068 q 572 1047 583 1053 q 546 1042 561 1042 l 410 1042 z "},"Ŗ":{"ha":965,"x_min":97,"x_max":914,"o":"m 511 972 q 675 953 603 972 q 798 894 747 933 q 876 795 849 856 q 903 654 903 735 q 860 481 903 550 q 738 376 817 413 l 910 46 q 914 31 914 38 q 905 9 914 18 q 883 0 896 0 l 694 0 q 655 13 667 0 q 636 38 643 25 l 482 335 l 354 335 l 354 38 q 343 11 354 22 q 317 0 332 0 l 135 0 q 108 11 119 0 q 97 38 97 22 l 97 935 q 108 961 97 950 q 135 972 119 972 l 511 972 m 354 551 l 511 551 q 608 574 569 551 q 646 654 646 596 q 608 735 646 713 q 511 757 569 757 l 354 757 l 354 551 m 349 -124 q 366 -87 351 -104 q 408 -69 381 -69 l 579 -69 q 601 -78 592 -69 q 610 -100 610 -87 q 608 -110 610 -106 l 532 -303 q 513 -332 526 -317 q 472 -347 500 -347 l 349 -347 q 327 -338 336 -347 q 318 -317 318 -329 l 318 -314 l 349 -124 z "},"S":{"ha":936,"x_min":38,"x_max":894,"o":"m 458 986 q 622 960 547 986 q 750 894 696 935 q 835 806 804 854 q 867 713 865 757 q 858 691 867 700 q 838 682 849 682 l 656 682 q 624 688 636 682 q 600 704 613 693 q 587 718 596 708 q 561 738 578 728 q 519 756 544 749 q 458 764 494 764 q 408 760 432 764 q 365 749 383 757 q 334 728 346 742 q 322 693 322 714 q 335 658 322 672 q 380 633 349 644 q 463 610 411 621 q 590 583 514 599 q 724 544 667 568 q 819 485 781 521 q 876 402 857 450 q 894 289 894 354 q 863 163 894 218 q 773 67 831 107 q 637 7 715 28 q 465 -14 558 -14 q 293 11 371 -14 q 159 77 215 36 q 71 169 103 118 q 38 274 39 221 q 47 295 38 286 q 67 304 56 304 l 249 304 q 279 299 268 304 q 301 285 290 294 q 318 267 307 279 q 348 241 329 254 q 395 218 367 228 q 465 208 424 208 q 588 224 539 208 q 638 282 638 240 q 619 317 638 303 q 565 342 601 331 q 473 365 529 354 q 340 393 417 376 q 131 495 197 424 q 65 686 65 567 q 92 800 65 746 q 171 896 119 854 q 295 962 222 938 q 458 986 368 986 z "},"Ś":{"ha":936,"x_min":38,"x_max":894,"o":"m 458 986 q 622 960 547 986 q 750 894 696 935 q 835 806 804 854 q 867 713 865 757 q 858 691 867 700 q 838 682 849 682 l 656 682 q 624 688 636 682 q 600 704 613 693 q 587 718 596 708 q 561 738 578 728 q 519 756 544 749 q 458 764 494 764 q 408 760 432 764 q 365 749 383 757 q 334 728 346 742 q 322 693 322 714 q 335 658 322 672 q 380 633 349 644 q 463 610 411 621 q 590 583 514 599 q 724 544 667 568 q 819 485 781 521 q 876 402 857 450 q 894 289 894 354 q 863 163 894 218 q 773 67 831 107 q 637 7 715 28 q 465 -14 558 -14 q 293 11 371 -14 q 159 77 215 36 q 71 169 103 118 q 38 274 39 221 q 47 295 38 286 q 67 304 56 304 l 249 304 q 279 299 268 304 q 301 285 290 294 q 318 267 307 279 q 348 241 329 254 q 395 218 367 228 q 465 208 424 208 q 588 224 539 208 q 638 282 638 240 q 619 317 638 303 q 565 342 601 331 q 473 365 529 354 q 340 393 417 376 q 131 495 197 424 q 65 686 65 567 q 92 800 65 746 q 171 896 119 854 q 295 962 222 938 q 458 986 368 986 m 497 1238 q 523 1260 513 1256 q 549 1264 533 1264 l 747 1264 q 774 1236 774 1264 q 767 1219 774 1226 l 579 1065 q 556 1049 568 1056 q 521 1042 543 1042 l 385 1042 q 363 1064 363 1042 q 369 1082 363 1075 l 497 1238 z "},"Š":{"ha":936,"x_min":38,"x_max":894,"o":"m 458 986 q 622 960 547 986 q 750 894 696 935 q 835 806 804 854 q 867 713 865 757 q 858 691 867 700 q 838 682 849 682 l 656 682 q 624 688 636 682 q 600 704 613 693 q 587 718 596 708 q 561 738 578 728 q 519 756 544 749 q 458 764 494 764 q 408 760 432 764 q 365 749 383 757 q 334 728 346 742 q 322 693 322 714 q 335 658 322 672 q 380 633 349 644 q 463 610 411 621 q 590 583 514 599 q 724 544 667 568 q 819 485 781 521 q 876 402 857 450 q 894 289 894 354 q 863 163 894 218 q 773 67 831 107 q 637 7 715 28 q 465 -14 558 -14 q 293 11 371 -14 q 159 77 215 36 q 71 169 103 118 q 38 274 39 221 q 47 295 38 286 q 67 304 56 304 l 249 304 q 279 299 268 304 q 301 285 290 294 q 318 267 307 279 q 348 241 329 254 q 395 218 367 228 q 465 208 424 208 q 588 224 539 208 q 638 282 638 240 q 619 317 638 303 q 565 342 601 331 q 473 365 529 354 q 340 393 417 376 q 131 495 197 424 q 65 686 65 567 q 92 800 65 746 q 171 896 119 854 q 295 962 222 938 q 458 986 368 986 m 397 1042 q 371 1047 382 1042 q 346 1068 360 1053 l 204 1224 q 197 1242 197 1231 q 219 1264 197 1264 l 319 1264 q 342 1260 333 1264 q 363 1249 350 1256 l 465 1189 l 568 1249 q 589 1260 581 1256 q 611 1264 597 1264 l 711 1264 q 733 1242 733 1264 q 726 1224 733 1231 l 585 1068 q 560 1047 571 1053 q 533 1042 549 1042 l 397 1042 z "},"Ş":{"ha":936,"x_min":38,"x_max":894,"o":"m 458 986 q 622 960 547 986 q 750 894 696 935 q 835 806 804 854 q 867 713 865 757 q 858 691 867 700 q 838 682 849 682 l 656 682 q 624 688 636 682 q 600 704 613 693 q 587 718 596 708 q 561 738 578 728 q 519 756 544 749 q 458 764 494 764 q 408 760 432 764 q 365 749 383 757 q 334 728 346 742 q 322 693 322 714 q 335 658 322 672 q 380 633 349 644 q 463 610 411 621 q 590 583 514 599 q 724 544 667 568 q 819 485 781 521 q 876 402 857 450 q 894 289 894 354 q 863 164 894 219 q 776 69 832 108 q 644 9 721 31 q 476 -14 568 -12 l 447 -75 q 469 -65 456 -69 q 499 -61 483 -61 q 578 -97 551 -61 q 604 -183 604 -133 q 567 -269 604 -233 q 467 -306 529 -306 q 420 -299 444 -306 q 378 -281 396 -292 q 354 -258 361 -269 q 360 -235 347 -246 l 385 -212 q 403 -203 396 -203 q 419 -207 411 -203 q 438 -216 426 -211 q 467 -221 449 -221 q 499 -212 486 -221 q 513 -183 513 -204 q 500 -155 513 -164 q 467 -146 488 -146 q 447 -149 457 -146 q 426 -153 436 -151 q 408 -155 417 -156 q 392 -147 399 -154 l 367 -118 q 356 -99 358 -107 q 364 -72 354 -92 l 393 -10 q 249 28 314 0 q 137 94 183 56 q 65 180 90 133 q 38 274 39 226 q 47 295 38 286 q 67 304 56 304 l 249 304 q 279 299 268 304 q 301 285 290 294 q 318 267 307 279 q 348 241 329 254 q 395 218 367 228 q 465 208 424 208 q 588 224 539 208 q 638 282 638 240 q 619 317 638 303 q 565 342 601 331 q 473 365 529 354 q 340 393 417 376 q 131 495 197 424 q 65 686 65 567 q 92 800 65 746 q 171 896 119 854 q 295 962 222 938 q 458 986 368 986 z "},"Ŝ":{"ha":936,"x_min":38,"x_max":894,"o":"m 458 986 q 622 960 547 986 q 750 894 696 935 q 835 806 804 854 q 867 713 865 757 q 858 691 867 700 q 838 682 849 682 l 656 682 q 624 688 636 682 q 600 704 613 693 q 587 718 596 708 q 561 738 578 728 q 519 756 544 749 q 458 764 494 764 q 408 760 432 764 q 365 749 383 757 q 334 728 346 742 q 322 693 322 714 q 335 658 322 672 q 380 633 349 644 q 463 610 411 621 q 590 583 514 599 q 724 544 667 568 q 819 485 781 521 q 876 402 857 450 q 894 289 894 354 q 863 163 894 218 q 773 67 831 107 q 637 7 715 28 q 465 -14 558 -14 q 293 11 371 -14 q 159 77 215 36 q 71 169 103 118 q 38 274 39 221 q 47 295 38 286 q 67 304 56 304 l 249 304 q 279 299 268 304 q 301 285 290 294 q 318 267 307 279 q 348 241 329 254 q 395 218 367 228 q 465 208 424 208 q 588 224 539 208 q 638 282 638 240 q 619 317 638 303 q 565 342 601 331 q 473 365 529 354 q 340 393 417 376 q 131 495 197 424 q 65 686 65 567 q 92 800 65 746 q 171 896 119 854 q 295 962 222 938 q 458 986 368 986 m 533 1264 q 560 1258 549 1264 q 585 1238 571 1253 l 726 1082 q 733 1064 733 1075 q 711 1042 733 1042 l 611 1042 q 589 1046 597 1042 q 568 1057 581 1050 l 465 1117 l 363 1057 q 342 1046 350 1050 q 319 1042 333 1042 l 219 1042 q 197 1064 197 1042 q 204 1082 197 1075 l 346 1238 q 371 1258 360 1253 q 397 1264 382 1264 l 533 1264 z "},"Ș":{"ha":936,"x_min":38,"x_max":894,"o":"m 458 986 q 622 960 547 986 q 750 894 696 935 q 835 806 804 854 q 867 713 865 757 q 858 691 867 700 q 838 682 849 682 l 656 682 q 624 688 636 682 q 600 704 613 693 q 587 718 596 708 q 561 738 578 728 q 519 756 544 749 q 458 764 494 764 q 408 760 432 764 q 365 749 383 757 q 334 728 346 742 q 322 693 322 714 q 335 658 322 672 q 380 633 349 644 q 463 610 411 621 q 590 583 514 599 q 724 544 667 568 q 819 485 781 521 q 876 402 857 450 q 894 289 894 354 q 863 163 894 218 q 773 67 831 107 q 637 7 715 28 q 465 -14 558 -14 q 293 11 371 -14 q 159 77 215 36 q 71 169 103 118 q 38 274 39 221 q 47 295 38 286 q 67 304 56 304 l 249 304 q 279 299 268 304 q 301 285 290 294 q 318 267 307 279 q 348 241 329 254 q 395 218 367 228 q 465 208 424 208 q 588 224 539 208 q 638 282 638 240 q 619 317 638 303 q 565 342 601 331 q 473 365 529 354 q 340 393 417 376 q 131 495 197 424 q 65 686 65 567 q 92 800 65 746 q 171 896 119 854 q 295 962 222 938 q 458 986 368 986 m 335 -124 q 352 -87 338 -104 q 394 -69 367 -69 l 565 -69 q 587 -78 578 -69 q 596 -100 596 -87 q 594 -110 596 -106 l 518 -303 q 499 -332 513 -317 q 458 -347 486 -347 l 335 -347 q 313 -338 322 -347 q 304 -317 304 -329 l 304 -314 l 335 -124 z "},"T":{"ha":876,"x_min":28,"x_max":849,"o":"m 811 972 q 838 961 826 972 q 849 935 849 950 l 849 788 q 838 761 849 772 q 811 750 826 750 l 567 750 l 567 38 q 556 11 567 22 q 529 0 544 0 l 347 0 q 321 11 332 0 q 310 38 310 22 l 310 750 l 65 750 q 39 761 50 750 q 28 788 28 772 l 28 935 q 39 961 28 950 q 65 972 50 972 l 811 972 z "},"Ŧ":{"ha":889,"x_min":33,"x_max":854,"o":"m 572 399 l 572 38 q 561 11 572 22 q 535 0 550 0 l 353 0 q 326 11 338 0 q 315 38 315 22 l 315 399 l 186 399 q 160 410 171 399 q 149 436 149 421 l 149 510 q 160 536 149 525 q 186 547 171 547 l 315 547 l 315 750 l 71 750 q 44 761 56 750 q 33 788 33 772 l 33 935 q 44 961 33 950 q 71 972 56 972 l 817 972 q 843 961 832 972 q 854 935 854 950 l 854 788 q 843 761 854 772 q 817 750 832 750 l 572 750 l 572 547 l 701 547 q 728 536 717 547 q 739 510 739 525 l 739 436 q 728 410 739 421 q 701 399 717 399 l 572 399 z "},"Ť":{"ha":876,"x_min":28,"x_max":849,"o":"m 811 972 q 838 961 826 972 q 849 935 849 950 l 849 788 q 838 761 849 772 q 811 750 826 750 l 567 750 l 567 38 q 556 11 567 22 q 529 0 544 0 l 347 0 q 321 11 332 0 q 310 38 310 22 l 310 750 l 65 750 q 39 761 50 750 q 28 788 28 772 l 28 935 q 39 961 28 950 q 65 972 50 972 l 811 972 m 369 1042 q 343 1047 354 1042 q 318 1068 332 1053 l 176 1224 q 169 1242 169 1231 q 192 1264 169 1264 l 292 1264 q 314 1260 306 1264 q 335 1249 322 1256 l 438 1189 l 540 1249 q 561 1260 553 1256 q 583 1264 569 1264 l 683 1264 q 706 1242 706 1264 q 699 1224 706 1231 l 557 1068 q 532 1047 543 1053 q 506 1042 521 1042 l 369 1042 z "},"Ţ":{"ha":876,"x_min":28,"x_max":849,"o":"m 811 972 q 838 961 826 972 q 849 935 849 950 l 849 788 q 838 761 849 772 q 811 750 826 750 l 567 750 l 567 38 q 556 11 567 22 q 529 0 544 0 l 347 0 q 321 11 332 0 q 310 38 310 22 l 310 750 l 65 750 q 39 761 50 750 q 28 788 28 772 l 28 935 q 39 961 28 950 q 65 972 50 972 l 811 972 m 306 -124 q 323 -87 308 -104 q 365 -69 338 -69 l 536 -69 q 558 -78 549 -69 q 567 -100 567 -87 q 565 -110 567 -106 l 489 -303 q 470 -332 483 -317 q 429 -347 457 -347 l 306 -347 q 284 -338 293 -347 q 275 -317 275 -329 l 275 -314 l 306 -124 z "},"U":{"ha":1019,"x_min":88,"x_max":932,"o":"m 894 972 q 921 961 910 972 q 932 935 932 950 l 932 381 q 901 211 932 285 q 815 88 871 138 q 681 12 758 38 q 510 -14 603 -14 q 338 12 415 -14 q 204 88 260 38 q 118 211 149 138 q 88 381 88 285 l 88 935 q 99 961 88 950 q 125 972 110 972 l 307 972 q 333 961 322 972 q 344 935 344 950 l 344 386 q 385 256 344 303 q 510 208 426 208 q 634 256 593 208 q 675 386 675 303 l 675 935 q 686 961 675 950 q 713 972 697 972 l 894 972 z "},"Ú":{"ha":1019,"x_min":88,"x_max":932,"o":"m 894 972 q 921 961 910 972 q 932 935 932 950 l 932 381 q 901 211 932 285 q 815 88 871 138 q 681 12 758 38 q 510 -14 603 -14 q 338 12 415 -14 q 204 88 260 38 q 118 211 149 138 q 88 381 88 285 l 88 935 q 99 961 88 950 q 125 972 110 972 l 307 972 q 333 961 322 972 q 344 935 344 950 l 344 386 q 385 256 344 303 q 510 208 426 208 q 634 256 593 208 q 675 386 675 303 l 675 935 q 686 961 675 950 q 713 972 697 972 l 894 972 m 529 1238 q 555 1260 544 1256 q 581 1264 565 1264 l 779 1264 q 806 1236 806 1264 q 799 1219 806 1226 l 611 1065 q 588 1049 600 1056 q 553 1042 575 1042 l 417 1042 q 394 1064 394 1042 q 401 1082 394 1075 l 529 1238 z "},"Ŭ":{"ha":1019,"x_min":88,"x_max":932,"o":"m 894 972 q 921 961 910 972 q 932 935 932 950 l 932 381 q 901 211 932 285 q 815 88 871 138 q 681 12 758 38 q 510 -14 603 -14 q 338 12 415 -14 q 204 88 260 38 q 118 211 149 138 q 88 381 88 285 l 88 935 q 99 961 88 950 q 125 972 110 972 l 307 972 q 333 961 322 972 q 344 935 344 950 l 344 386 q 385 256 344 303 q 510 208 426 208 q 634 256 593 208 q 675 386 675 303 l 675 935 q 686 961 675 950 q 713 972 697 972 l 894 972 m 510 1035 q 401 1053 446 1035 q 328 1102 357 1072 q 288 1168 300 1132 q 275 1238 275 1204 q 282 1256 275 1249 q 301 1264 289 1264 l 418 1264 q 438 1256 431 1264 q 444 1238 444 1249 q 461 1190 444 1211 q 510 1168 478 1168 q 558 1190 542 1168 q 575 1238 575 1211 q 582 1256 575 1249 q 601 1264 589 1264 l 718 1264 q 738 1256 731 1264 q 744 1238 744 1249 q 732 1168 744 1204 q 691 1102 719 1132 q 618 1053 663 1072 q 510 1035 574 1035 z "},"Û":{"ha":1019,"x_min":88,"x_max":932,"o":"m 894 972 q 921 961 910 972 q 932 935 932 950 l 932 381 q 901 211 932 285 q 815 88 871 138 q 681 12 758 38 q 510 -14 603 -14 q 338 12 415 -14 q 204 88 260 38 q 118 211 149 138 q 88 381 88 285 l 88 935 q 99 961 88 950 q 125 972 110 972 l 307 972 q 333 961 322 972 q 344 935 344 950 l 344 386 q 385 256 344 303 q 510 208 426 208 q 634 256 593 208 q 675 386 675 303 l 675 935 q 686 961 675 950 q 713 972 697 972 l 894 972 m 578 1264 q 604 1258 593 1264 q 629 1238 615 1253 l 771 1082 q 778 1064 778 1075 q 756 1042 778 1042 l 656 1042 q 633 1046 642 1042 q 613 1057 625 1050 l 510 1117 l 407 1057 q 386 1046 394 1050 q 364 1042 378 1042 l 264 1042 q 242 1064 242 1042 q 249 1082 242 1075 l 390 1238 q 415 1258 404 1253 q 442 1264 426 1264 l 578 1264 z "},"Ü":{"ha":1019,"x_min":88,"x_max":932,"o":"m 894 972 q 921 961 910 972 q 932 935 932 950 l 932 381 q 901 211 932 285 q 815 88 871 138 q 681 12 758 38 q 510 -14 603 -14 q 338 12 415 -14 q 204 88 260 38 q 118 211 149 138 q 88 381 88 285 l 88 935 q 99 961 88 950 q 125 972 110 972 l 307 972 q 333 961 322 972 q 344 935 344 950 l 344 386 q 385 256 344 303 q 510 208 426 208 q 634 256 593 208 q 675 386 675 303 l 675 935 q 686 961 675 950 q 713 972 697 972 l 894 972 m 440 1079 q 429 1053 440 1064 q 403 1042 418 1042 l 263 1042 q 236 1053 247 1042 q 225 1079 225 1064 l 225 1219 q 236 1246 225 1235 q 263 1257 247 1257 l 403 1257 q 429 1246 418 1257 q 440 1219 440 1235 l 440 1079 m 794 1079 q 783 1053 794 1064 q 757 1042 772 1042 l 617 1042 q 590 1053 601 1042 q 579 1079 579 1064 l 579 1219 q 590 1246 579 1235 q 617 1257 601 1257 l 757 1257 q 783 1246 772 1257 q 794 1219 794 1235 l 794 1079 z "},"Ù":{"ha":1019,"x_min":88,"x_max":932,"o":"m 894 972 q 921 961 910 972 q 932 935 932 950 l 932 381 q 901 211 932 285 q 815 88 871 138 q 681 12 758 38 q 510 -14 603 -14 q 338 12 415 -14 q 204 88 260 38 q 118 211 149 138 q 88 381 88 285 l 88 935 q 99 961 88 950 q 125 972 110 972 l 307 972 q 333 961 322 972 q 344 935 344 950 l 344 386 q 385 256 344 303 q 510 208 426 208 q 634 256 593 208 q 675 386 675 303 l 675 935 q 686 961 675 950 q 713 972 697 972 l 894 972 m 617 1082 q 624 1064 624 1075 q 601 1042 624 1042 l 465 1042 q 431 1049 443 1042 q 407 1065 418 1056 l 219 1219 q 213 1236 213 1226 q 239 1264 213 1264 l 438 1264 q 463 1260 453 1264 q 489 1238 474 1256 l 617 1082 z "},"Ű":{"ha":1019,"x_min":88,"x_max":932,"o":"m 894 972 q 921 961 910 972 q 932 935 932 950 l 932 381 q 901 211 932 285 q 815 88 871 138 q 681 12 758 38 q 510 -14 603 -14 q 338 12 415 -14 q 204 88 260 38 q 118 211 149 138 q 88 381 88 285 l 88 935 q 99 961 88 950 q 125 972 110 972 l 307 972 q 333 961 322 972 q 344 935 344 950 l 344 386 q 385 256 344 303 q 510 208 426 208 q 634 256 593 208 q 675 386 675 303 l 675 935 q 686 961 675 950 q 713 972 697 972 l 894 972 m 322 1238 q 340 1258 329 1251 q 374 1264 351 1264 l 543 1264 q 571 1238 571 1264 q 563 1219 571 1228 l 417 1061 q 369 1042 400 1042 l 268 1042 q 246 1064 246 1042 q 248 1075 246 1069 q 253 1085 250 1081 l 322 1238 m 643 1238 q 661 1258 650 1251 q 694 1264 672 1264 l 864 1264 q 892 1238 892 1264 q 883 1219 892 1228 l 738 1061 q 690 1042 721 1042 l 589 1042 q 567 1064 567 1042 q 569 1075 567 1069 q 574 1085 571 1081 l 643 1238 z "},"Ū":{"ha":1019,"x_min":88,"x_max":932,"o":"m 894 972 q 921 961 910 972 q 932 935 932 950 l 932 381 q 901 211 932 285 q 815 88 871 138 q 681 12 758 38 q 510 -14 603 -14 q 338 12 415 -14 q 204 88 260 38 q 118 211 149 138 q 88 381 88 285 l 88 935 q 99 961 88 950 q 125 972 110 972 l 307 972 q 333 961 322 972 q 344 935 344 950 l 344 386 q 385 256 344 303 q 510 208 426 208 q 634 256 593 208 q 675 386 675 303 l 675 935 q 686 961 675 950 q 713 972 697 972 l 894 972 m 289 1042 q 263 1053 274 1042 q 251 1079 251 1064 l 251 1199 q 263 1225 251 1214 q 289 1236 274 1236 l 732 1236 q 758 1225 747 1236 q 769 1199 769 1214 l 769 1079 q 758 1053 769 1064 q 732 1042 747 1042 l 289 1042 z "},"Ų":{"ha":1019,"x_min":88,"x_max":932,"o":"m 894 972 q 921 961 910 972 q 932 935 932 950 l 932 381 q 904 217 932 286 q 826 101 876 149 q 707 27 776 54 q 553 -12 638 0 q 516 -33 529 -15 q 503 -78 503 -50 q 522 -133 503 -110 q 578 -156 542 -156 l 599 -156 q 629 -186 629 -156 l 629 -275 q 599 -306 629 -306 l 572 -306 q 478 -288 519 -306 q 407 -241 436 -271 q 363 -169 378 -211 q 347 -78 347 -128 q 351 -33 347 -54 q 361 4 354 -12 q 161 134 235 39 q 88 381 88 229 l 88 935 q 99 961 88 950 q 125 972 110 972 l 307 972 q 333 961 322 972 q 344 935 344 950 l 344 386 q 385 256 344 303 q 510 208 426 208 q 634 256 593 208 q 675 386 675 303 l 675 935 q 686 961 675 950 q 713 972 697 972 l 894 972 z "},"Ů":{"ha":1019,"x_min":88,"x_max":932,"o":"m 894 972 q 921 961 910 972 q 932 935 932 950 l 932 381 q 901 211 932 285 q 815 88 871 138 q 681 12 758 38 q 510 -14 603 -14 q 338 12 415 -14 q 204 88 260 38 q 118 211 149 138 q 88 381 88 285 l 88 935 q 99 961 88 950 q 125 972 110 972 l 307 972 q 333 961 322 972 q 344 935 344 950 l 344 386 q 385 256 344 303 q 510 208 426 208 q 634 256 593 208 q 675 386 675 303 l 675 935 q 686 961 675 950 q 713 972 697 972 l 894 972 m 468 1153 q 480 1123 468 1135 q 510 1111 492 1111 q 540 1123 528 1111 q 551 1153 551 1135 q 540 1183 551 1171 q 510 1194 528 1194 q 480 1183 492 1194 q 468 1153 468 1171 m 378 1153 q 417 1242 378 1207 q 510 1278 456 1278 q 603 1242 564 1278 q 642 1153 642 1207 q 603 1063 642 1099 q 510 1028 564 1028 q 417 1063 456 1028 q 378 1153 378 1099 z "},"Ũ":{"ha":1019,"x_min":88,"x_max":932,"o":"m 894 972 q 921 961 910 972 q 932 935 932 950 l 932 381 q 901 211 932 285 q 815 88 871 138 q 681 12 758 38 q 510 -14 603 -14 q 338 12 415 -14 q 204 88 260 38 q 118 211 149 138 q 88 381 88 285 l 88 935 q 99 961 88 950 q 125 972 110 972 l 307 972 q 333 961 322 972 q 344 935 344 950 l 344 386 q 385 256 344 303 q 510 208 426 208 q 634 256 593 208 q 675 386 675 303 l 675 935 q 686 961 675 950 q 713 972 697 972 l 894 972 m 631 1035 q 560 1044 588 1035 q 511 1066 532 1054 q 473 1088 490 1078 q 433 1097 456 1097 q 408 1088 417 1097 q 394 1069 400 1079 q 382 1050 388 1058 q 365 1042 376 1042 l 260 1042 q 240 1049 247 1042 q 233 1068 233 1057 q 242 1133 233 1099 q 271 1194 251 1167 q 319 1239 290 1221 q 389 1257 349 1257 q 460 1247 432 1257 q 508 1226 488 1238 q 547 1204 529 1214 q 586 1194 564 1194 q 611 1203 603 1194 q 626 1222 619 1211 q 638 1241 632 1232 q 654 1250 643 1250 l 760 1250 q 779 1242 772 1250 q 786 1224 786 1235 q 775 1158 786 1192 q 743 1098 764 1125 q 694 1053 722 1071 q 631 1035 665 1035 z "},"V":{"ha":967,"x_min":31,"x_max":936,"o":"m 392 0 q 318 56 338 0 l 35 924 q 31 936 32 933 q 31 942 31 939 q 40 963 31 954 q 61 972 49 972 l 236 972 q 276 960 264 972 q 290 938 288 949 l 483 326 l 676 938 q 691 960 679 949 q 731 972 703 972 l 906 972 q 927 963 918 972 q 936 942 936 954 q 935 936 936 939 q 932 924 935 933 l 649 56 q 575 0 629 0 l 392 0 z "},"W":{"ha":1156,"x_min":39,"x_max":1117,"o":"m 772 465 l 861 935 q 878 964 865 956 q 904 972 890 972 l 1086 972 q 1108 963 1099 972 q 1117 942 1117 954 q 1115 931 1117 938 l 936 53 q 914 17 933 33 q 867 0 894 0 l 751 0 q 706 17 724 0 q 682 53 689 33 l 578 367 l 474 53 q 449 17 467 33 q 404 0 432 0 l 289 0 q 242 17 261 0 q 219 53 222 33 l 40 931 q 39 942 39 938 q 48 963 39 954 q 69 972 57 972 l 251 972 q 278 964 265 972 q 294 935 290 956 l 383 465 l 465 717 q 478 742 468 726 q 513 757 488 757 l 643 757 q 678 742 668 757 q 690 717 688 726 l 772 465 z "},"Ẃ":{"ha":1156,"x_min":39,"x_max":1117,"o":"m 772 465 l 861 935 q 878 964 865 956 q 904 972 890 972 l 1086 972 q 1108 963 1099 972 q 1117 942 1117 954 q 1115 931 1117 938 l 936 53 q 914 17 933 33 q 867 0 894 0 l 751 0 q 706 17 724 0 q 682 53 689 33 l 578 367 l 474 53 q 449 17 467 33 q 404 0 432 0 l 289 0 q 242 17 261 0 q 219 53 222 33 l 40 931 q 39 942 39 938 q 48 963 39 954 q 69 972 57 972 l 251 972 q 278 964 265 972 q 294 935 290 956 l 383 465 l 465 717 q 478 742 468 726 q 513 757 488 757 l 643 757 q 678 742 668 757 q 690 717 688 726 l 772 465 m 611 1238 q 637 1260 626 1256 q 663 1264 647 1264 l 861 1264 q 888 1236 888 1264 q 881 1219 888 1226 l 693 1065 q 669 1049 682 1056 q 635 1042 657 1042 l 499 1042 q 476 1064 476 1042 q 483 1082 476 1075 l 611 1238 z "},"Ŵ":{"ha":1156,"x_min":39,"x_max":1117,"o":"m 772 465 l 861 935 q 878 964 865 956 q 904 972 890 972 l 1086 972 q 1108 963 1099 972 q 1117 942 1117 954 q 1115 931 1117 938 l 936 53 q 914 17 933 33 q 867 0 894 0 l 751 0 q 706 17 724 0 q 682 53 689 33 l 578 367 l 474 53 q 449 17 467 33 q 404 0 432 0 l 289 0 q 242 17 261 0 q 219 53 222 33 l 40 931 q 39 942 39 938 q 48 963 39 954 q 69 972 57 972 l 251 972 q 278 964 265 972 q 294 935 290 956 l 383 465 l 465 717 q 478 742 468 726 q 513 757 488 757 l 643 757 q 678 742 668 757 q 690 717 688 726 l 772 465 m 646 1264 q 672 1258 661 1264 q 697 1238 683 1253 l 839 1082 q 846 1064 846 1075 q 824 1042 846 1042 l 724 1042 q 701 1046 710 1042 q 681 1057 693 1050 l 578 1117 l 475 1057 q 454 1046 463 1050 q 432 1042 446 1042 l 332 1042 q 310 1064 310 1042 q 317 1082 310 1075 l 458 1238 q 483 1258 472 1253 q 510 1264 494 1264 l 646 1264 z "},"Ẅ":{"ha":1156,"x_min":39,"x_max":1117,"o":"m 772 465 l 861 935 q 878 964 865 956 q 904 972 890 972 l 1086 972 q 1108 963 1099 972 q 1117 942 1117 954 q 1115 931 1117 938 l 936 53 q 914 17 933 33 q 867 0 894 0 l 751 0 q 706 17 724 0 q 682 53 689 33 l 578 367 l 474 53 q 449 17 467 33 q 404 0 432 0 l 289 0 q 242 17 261 0 q 219 53 222 33 l 40 931 q 39 942 39 938 q 48 963 39 954 q 69 972 57 972 l 251 972 q 278 964 265 972 q 294 935 290 956 l 383 465 l 465 717 q 478 742 468 726 q 513 757 488 757 l 643 757 q 678 742 668 757 q 690 717 688 726 l 772 465 m 508 1079 q 497 1053 508 1064 q 471 1042 486 1042 l 331 1042 q 304 1053 315 1042 q 293 1079 293 1064 l 293 1219 q 304 1246 293 1235 q 331 1257 315 1257 l 471 1257 q 497 1246 486 1257 q 508 1219 508 1235 l 508 1079 m 863 1079 q 851 1053 863 1064 q 825 1042 840 1042 l 685 1042 q 658 1053 669 1042 q 647 1079 647 1064 l 647 1219 q 658 1246 647 1235 q 685 1257 669 1257 l 825 1257 q 851 1246 840 1257 q 863 1219 863 1235 l 863 1079 z "},"Ẁ":{"ha":1156,"x_min":39,"x_max":1117,"o":"m 772 465 l 861 935 q 878 964 865 956 q 904 972 890 972 l 1086 972 q 1108 963 1099 972 q 1117 942 1117 954 q 1115 931 1117 938 l 936 53 q 914 17 933 33 q 867 0 894 0 l 751 0 q 706 17 724 0 q 682 53 689 33 l 578 367 l 474 53 q 449 17 467 33 q 404 0 432 0 l 289 0 q 242 17 261 0 q 219 53 222 33 l 40 931 q 39 942 39 938 q 48 963 39 954 q 69 972 57 972 l 251 972 q 278 964 265 972 q 294 935 290 956 l 383 465 l 465 717 q 478 742 468 726 q 513 757 488 757 l 643 757 q 678 742 668 757 q 690 717 688 726 l 772 465 m 675 1082 q 682 1064 682 1075 q 660 1042 682 1042 l 524 1042 q 489 1049 501 1042 q 465 1065 476 1056 l 278 1219 q 271 1236 271 1226 q 297 1264 271 1264 l 496 1264 q 522 1260 511 1264 q 547 1238 532 1256 l 675 1082 z "},"X":{"ha":988,"x_min":15,"x_max":969,"o":"m 492 282 l 314 32 q 295 10 306 19 q 257 0 285 0 l 46 0 q 24 9 33 0 q 15 31 15 18 q 16 37 15 33 q 19 46 17 40 l 340 494 l 33 926 q 29 942 29 935 q 38 963 29 954 q 60 972 47 972 l 269 972 q 310 958 297 972 q 328 938 322 944 l 496 703 l 658 938 q 676 958 664 944 q 717 972 689 972 l 929 972 q 951 963 942 972 q 960 942 960 954 q 956 926 960 935 l 647 489 l 965 46 q 969 37 968 40 q 969 31 969 33 q 960 9 969 18 q 939 0 951 0 l 728 0 q 690 10 700 0 q 671 32 679 19 l 492 282 z "},"Y":{"ha":954,"x_min":22,"x_max":932,"o":"m 606 38 q 594 11 606 22 q 568 0 583 0 l 386 0 q 360 11 371 0 q 349 38 349 22 l 349 333 l 28 924 q 22 942 22 933 q 31 963 22 954 q 53 972 40 972 l 243 972 q 285 958 271 972 q 301 938 299 944 l 476 596 l 653 938 q 669 958 656 944 q 711 972 683 972 l 901 972 q 923 963 914 972 q 932 942 932 954 q 926 924 932 933 l 606 333 l 606 38 z "},"Ý":{"ha":954,"x_min":22,"x_max":932,"o":"m 606 38 q 594 11 606 22 q 568 0 583 0 l 386 0 q 360 11 371 0 q 349 38 349 22 l 349 333 l 28 924 q 22 942 22 933 q 31 963 22 954 q 53 972 40 972 l 243 972 q 285 958 271 972 q 301 938 299 944 l 476 596 l 653 938 q 669 958 656 944 q 711 972 683 972 l 901 972 q 923 963 914 972 q 932 942 932 954 q 926 924 932 933 l 606 333 l 606 38 m 500 1238 q 526 1260 515 1256 q 551 1264 536 1264 l 750 1264 q 776 1236 776 1264 q 769 1219 776 1226 l 582 1065 q 558 1049 571 1056 q 524 1042 546 1042 l 388 1042 q 365 1064 365 1042 q 372 1082 365 1075 l 500 1238 z "},"Ŷ":{"ha":954,"x_min":22,"x_max":932,"o":"m 606 38 q 594 11 606 22 q 568 0 583 0 l 386 0 q 360 11 371 0 q 349 38 349 22 l 349 333 l 28 924 q 22 942 22 933 q 31 963 22 954 q 53 972 40 972 l 243 972 q 285 958 271 972 q 301 938 299 944 l 476 596 l 653 938 q 669 958 656 944 q 711 972 683 972 l 901 972 q 923 963 914 972 q 932 942 932 954 q 926 924 932 933 l 606 333 l 606 38 m 544 1264 q 571 1258 560 1264 q 596 1238 582 1253 l 738 1082 q 744 1064 744 1075 q 722 1042 744 1042 l 622 1042 q 600 1046 608 1042 q 579 1057 592 1050 l 476 1117 l 374 1057 q 353 1046 361 1050 q 331 1042 344 1042 l 231 1042 q 208 1064 208 1042 q 215 1082 208 1075 l 357 1238 q 382 1258 371 1253 q 408 1264 393 1264 l 544 1264 z "},"Ÿ":{"ha":954,"x_min":22,"x_max":932,"o":"m 606 38 q 594 11 606 22 q 568 0 583 0 l 386 0 q 360 11 371 0 q 349 38 349 22 l 349 333 l 28 924 q 22 942 22 933 q 31 963 22 954 q 53 972 40 972 l 243 972 q 285 958 271 972 q 301 938 299 944 l 476 596 l 653 938 q 669 958 656 944 q 711 972 683 972 l 901 972 q 923 963 914 972 q 932 942 932 954 q 926 924 932 933 l 606 333 l 606 38 m 407 1079 q 396 1053 407 1064 q 369 1042 385 1042 l 229 1042 q 203 1053 214 1042 q 192 1079 192 1064 l 192 1219 q 203 1246 192 1235 q 229 1257 214 1257 l 369 1257 q 396 1246 385 1257 q 407 1219 407 1235 l 407 1079 m 761 1079 q 750 1053 761 1064 q 724 1042 739 1042 l 583 1042 q 557 1053 568 1042 q 546 1079 546 1064 l 546 1219 q 557 1246 546 1235 q 583 1257 568 1257 l 724 1257 q 750 1246 739 1257 q 761 1219 761 1235 l 761 1079 z "},"Ỳ":{"ha":954,"x_min":22,"x_max":932,"o":"m 606 38 q 594 11 606 22 q 568 0 583 0 l 386 0 q 360 11 371 0 q 349 38 349 22 l 349 333 l 28 924 q 22 942 22 933 q 31 963 22 954 q 53 972 40 972 l 243 972 q 285 958 271 972 q 301 938 299 944 l 476 596 l 653 938 q 669 958 656 944 q 711 972 683 972 l 901 972 q 923 963 914 972 q 932 942 932 954 q 926 924 932 933 l 606 333 l 606 38 m 590 1082 q 597 1064 597 1075 q 575 1042 597 1042 l 439 1042 q 404 1049 417 1042 q 381 1065 392 1056 l 193 1219 q 186 1236 186 1226 q 213 1264 186 1264 l 411 1264 q 437 1260 426 1264 q 463 1238 447 1256 l 590 1082 z "},"Z":{"ha":928,"x_min":54,"x_max":874,"o":"m 836 222 q 863 211 851 222 q 874 185 874 200 l 874 38 q 863 11 874 22 q 836 0 851 0 l 92 0 q 65 11 76 0 q 54 38 54 22 l 54 178 q 61 208 54 197 q 75 226 68 219 l 519 750 l 106 750 q 79 761 90 750 q 68 788 68 772 l 68 935 q 79 961 68 950 q 106 972 90 972 l 822 972 q 849 961 838 972 q 860 935 860 950 l 860 794 q 842 749 860 768 l 397 222 l 836 222 z "},"Ź":{"ha":928,"x_min":54,"x_max":874,"o":"m 836 222 q 863 211 851 222 q 874 185 874 200 l 874 38 q 863 11 874 22 q 836 0 851 0 l 92 0 q 65 11 76 0 q 54 38 54 22 l 54 178 q 61 208 54 197 q 75 226 68 219 l 519 750 l 106 750 q 79 761 90 750 q 68 788 68 772 l 68 935 q 79 961 68 950 q 106 972 90 972 l 822 972 q 849 961 838 972 q 860 935 860 950 l 860 794 q 842 749 860 768 l 397 222 l 836 222 m 489 1238 q 515 1260 504 1256 q 540 1264 525 1264 l 739 1264 q 765 1236 765 1264 q 758 1219 765 1226 l 571 1065 q 547 1049 560 1056 q 513 1042 535 1042 l 376 1042 q 354 1064 354 1042 q 361 1082 354 1075 l 489 1238 z "},"Ž":{"ha":928,"x_min":54,"x_max":874,"o":"m 836 222 q 863 211 851 222 q 874 185 874 200 l 874 38 q 863 11 874 22 q 836 0 851 0 l 92 0 q 65 11 76 0 q 54 38 54 22 l 54 178 q 61 208 54 197 q 75 226 68 219 l 519 750 l 106 750 q 79 761 90 750 q 68 788 68 772 l 68 935 q 79 961 68 950 q 106 972 90 972 l 822 972 q 849 961 838 972 q 860 935 860 950 l 860 794 q 842 749 860 768 l 397 222 l 836 222 m 396 1042 q 369 1047 381 1042 q 344 1068 358 1053 l 203 1224 q 196 1242 196 1231 q 218 1264 196 1264 l 318 1264 q 340 1260 332 1264 q 361 1249 349 1256 l 464 1189 l 567 1249 q 588 1260 579 1256 q 610 1264 596 1264 l 710 1264 q 732 1242 732 1264 q 725 1224 732 1231 l 583 1068 q 558 1047 569 1053 q 532 1042 547 1042 l 396 1042 z "},"Ż":{"ha":928,"x_min":54,"x_max":874,"o":"m 836 222 q 863 211 851 222 q 874 185 874 200 l 874 38 q 863 11 874 22 q 836 0 851 0 l 92 0 q 65 11 76 0 q 54 38 54 22 l 54 178 q 61 208 54 197 q 75 226 68 219 l 519 750 l 106 750 q 79 761 90 750 q 68 788 68 772 l 68 935 q 79 961 68 950 q 106 972 90 972 l 822 972 q 849 961 838 972 q 860 935 860 950 l 860 794 q 842 749 860 768 l 397 222 l 836 222 m 579 1079 q 568 1053 579 1064 q 542 1042 557 1042 l 388 1042 q 361 1053 372 1042 q 350 1079 350 1064 l 350 1233 q 361 1260 350 1249 q 388 1271 372 1271 l 542 1271 q 568 1260 557 1271 q 579 1233 579 1249 l 579 1079 z "},"a":{"ha":818,"x_min":33,"x_max":744,"o":"m 33 206 q 103 357 33 297 q 332 444 174 417 l 494 472 q 476 527 494 506 q 414 549 458 549 q 365 540 382 549 q 339 524 347 531 q 315 510 326 513 q 289 507 304 507 l 113 507 q 90 515 99 507 q 82 538 81 524 q 110 604 85 569 q 178 668 135 639 q 283 717 222 697 q 414 736 343 736 q 561 715 499 736 q 665 658 624 694 q 725 570 706 621 q 744 458 744 519 l 744 38 q 733 11 744 22 q 707 0 722 0 l 532 0 q 506 11 517 0 q 494 38 494 22 l 494 76 q 412 10 461 35 q 282 -14 363 -14 q 176 3 222 -14 q 98 49 129 19 q 50 118 67 78 q 33 206 33 158 m 350 174 q 407 184 381 174 q 453 213 433 194 q 483 255 472 231 q 494 307 494 279 l 367 288 q 306 264 329 281 q 283 221 283 247 q 301 184 283 194 q 350 174 318 174 z "},"á":{"ha":818,"x_min":33,"x_max":744,"o":"m 33 206 q 103 357 33 297 q 332 444 174 417 l 494 472 q 476 527 494 506 q 414 549 458 549 q 365 540 382 549 q 339 524 347 531 q 315 510 326 513 q 289 507 304 507 l 113 507 q 90 515 99 507 q 82 538 81 524 q 110 604 85 569 q 178 668 135 639 q 283 717 222 697 q 414 736 343 736 q 561 715 499 736 q 665 658 624 694 q 725 570 706 621 q 744 458 744 519 l 744 38 q 733 11 744 22 q 707 0 722 0 l 532 0 q 506 11 517 0 q 494 38 494 22 l 494 76 q 412 10 461 35 q 282 -14 363 -14 q 176 3 222 -14 q 98 49 129 19 q 50 118 67 78 q 33 206 33 158 m 350 174 q 407 184 381 174 q 453 213 433 194 q 483 255 472 231 q 494 307 494 279 l 367 288 q 306 264 329 281 q 283 221 283 247 q 301 184 283 194 q 350 174 318 174 m 449 1022 q 474 1044 464 1040 q 500 1049 485 1049 l 685 1049 q 711 1021 711 1049 q 704 1004 711 1011 l 517 850 q 493 833 506 840 q 458 826 481 826 l 336 826 q 314 849 314 826 q 321 867 314 860 l 449 1022 z "},"ă":{"ha":818,"x_min":33,"x_max":744,"o":"m 33 206 q 103 357 33 297 q 332 444 174 417 l 494 472 q 476 527 494 506 q 414 549 458 549 q 365 540 382 549 q 339 524 347 531 q 315 510 326 513 q 289 507 304 507 l 113 507 q 90 515 99 507 q 82 538 81 524 q 110 604 85 569 q 178 668 135 639 q 283 717 222 697 q 414 736 343 736 q 561 715 499 736 q 665 658 624 694 q 725 570 706 621 q 744 458 744 519 l 744 38 q 733 11 744 22 q 707 0 722 0 l 532 0 q 506 11 517 0 q 494 38 494 22 l 494 76 q 412 10 461 35 q 282 -14 363 -14 q 176 3 222 -14 q 98 49 129 19 q 50 118 67 78 q 33 206 33 158 m 350 174 q 407 184 381 174 q 453 213 433 194 q 483 255 472 231 q 494 307 494 279 l 367 288 q 306 264 329 281 q 283 221 283 247 q 301 184 283 194 q 350 174 318 174 m 403 819 q 295 838 339 819 q 225 887 251 857 q 187 953 199 917 q 175 1022 175 989 q 182 1041 175 1033 q 201 1049 189 1049 l 318 1049 q 338 1041 331 1049 q 344 1022 344 1033 q 359 974 344 996 q 403 953 374 953 q 447 974 432 953 q 461 1022 461 996 q 468 1041 461 1033 q 488 1049 475 1049 l 604 1049 q 624 1041 617 1049 q 631 1022 631 1033 q 619 953 631 989 q 581 887 607 917 q 510 838 554 857 q 403 819 467 819 z "},"â":{"ha":818,"x_min":33,"x_max":744,"o":"m 33 206 q 103 357 33 297 q 332 444 174 417 l 494 472 q 476 527 494 506 q 414 549 458 549 q 365 540 382 549 q 339 524 347 531 q 315 510 326 513 q 289 507 304 507 l 113 507 q 90 515 99 507 q 82 538 81 524 q 110 604 85 569 q 178 668 135 639 q 283 717 222 697 q 414 736 343 736 q 561 715 499 736 q 665 658 624 694 q 725 570 706 621 q 744 458 744 519 l 744 38 q 733 11 744 22 q 707 0 722 0 l 532 0 q 506 11 517 0 q 494 38 494 22 l 494 76 q 412 10 461 35 q 282 -14 363 -14 q 176 3 222 -14 q 98 49 129 19 q 50 118 67 78 q 33 206 33 158 m 350 174 q 407 184 381 174 q 453 213 433 194 q 483 255 472 231 q 494 307 494 279 l 367 288 q 306 264 329 281 q 283 221 283 247 q 301 184 283 194 q 350 174 318 174 m 464 1049 q 490 1043 479 1049 q 515 1022 501 1038 l 657 867 q 664 849 664 860 q 642 826 664 826 l 549 826 q 526 831 535 826 q 506 842 518 835 l 403 901 l 300 842 q 279 831 288 835 q 257 826 271 826 l 164 826 q 142 849 142 826 q 149 867 142 860 l 290 1022 q 315 1043 304 1038 q 342 1049 326 1049 l 464 1049 z "},"ä":{"ha":818,"x_min":33,"x_max":744,"o":"m 33 206 q 103 357 33 297 q 332 444 174 417 l 494 472 q 476 527 494 506 q 414 549 458 549 q 365 540 382 549 q 339 524 347 531 q 315 510 326 513 q 289 507 304 507 l 113 507 q 90 515 99 507 q 82 538 81 524 q 110 604 85 569 q 178 668 135 639 q 283 717 222 697 q 414 736 343 736 q 561 715 499 736 q 665 658 624 694 q 725 570 706 621 q 744 458 744 519 l 744 38 q 733 11 744 22 q 707 0 722 0 l 532 0 q 506 11 517 0 q 494 38 494 22 l 494 76 q 412 10 461 35 q 282 -14 363 -14 q 176 3 222 -14 q 98 49 129 19 q 50 118 67 78 q 33 206 33 158 m 350 174 q 407 184 381 174 q 453 213 433 194 q 483 255 472 231 q 494 307 494 279 l 367 288 q 306 264 329 281 q 283 221 283 247 q 301 184 283 194 q 350 174 318 174 m 354 864 q 343 838 354 849 q 317 826 332 826 l 176 826 q 150 838 161 826 q 139 864 139 849 l 139 1004 q 150 1031 139 1019 q 176 1042 161 1042 l 317 1042 q 343 1031 332 1042 q 354 1004 354 1019 l 354 864 m 667 864 q 656 838 667 849 q 629 826 644 826 l 489 826 q 463 838 474 826 q 451 864 451 849 l 451 1004 q 463 1031 451 1019 q 489 1042 474 1042 l 629 1042 q 656 1031 644 1042 q 667 1004 667 1019 l 667 864 z "},"à":{"ha":818,"x_min":33,"x_max":744,"o":"m 33 206 q 103 357 33 297 q 332 444 174 417 l 494 472 q 476 527 494 506 q 414 549 458 549 q 365 540 382 549 q 339 524 347 531 q 315 510 326 513 q 289 507 304 507 l 113 507 q 90 515 99 507 q 82 538 81 524 q 110 604 85 569 q 178 668 135 639 q 283 717 222 697 q 414 736 343 736 q 561 715 499 736 q 665 658 624 694 q 725 570 706 621 q 744 458 744 519 l 744 38 q 733 11 744 22 q 707 0 722 0 l 532 0 q 506 11 517 0 q 494 38 494 22 l 494 76 q 412 10 461 35 q 282 -14 363 -14 q 176 3 222 -14 q 98 49 129 19 q 50 118 67 78 q 33 206 33 158 m 350 174 q 407 184 381 174 q 453 213 433 194 q 483 255 472 231 q 494 307 494 279 l 367 288 q 306 264 329 281 q 283 221 283 247 q 301 184 283 194 q 350 174 318 174 m 506 867 q 513 849 513 860 q 490 826 513 826 l 368 826 q 333 833 346 826 q 310 850 321 840 l 122 1004 q 115 1021 115 1011 q 142 1049 115 1049 l 326 1049 q 352 1044 342 1049 q 378 1022 363 1040 l 506 867 z "},"ā":{"ha":818,"x_min":33,"x_max":744,"o":"m 33 206 q 103 357 33 297 q 332 444 174 417 l 494 472 q 476 527 494 506 q 414 549 458 549 q 365 540 382 549 q 339 524 347 531 q 315 510 326 513 q 289 507 304 507 l 113 507 q 90 515 99 507 q 82 538 81 524 q 110 604 85 569 q 178 668 135 639 q 283 717 222 697 q 414 736 343 736 q 561 715 499 736 q 665 658 624 694 q 725 570 706 621 q 744 458 744 519 l 744 38 q 733 11 744 22 q 707 0 722 0 l 532 0 q 506 11 517 0 q 494 38 494 22 l 494 76 q 412 10 461 35 q 282 -14 363 -14 q 176 3 222 -14 q 98 49 129 19 q 50 118 67 78 q 33 206 33 158 m 350 174 q 407 184 381 174 q 453 213 433 194 q 483 255 472 231 q 494 307 494 279 l 367 288 q 306 264 329 281 q 283 221 283 247 q 301 184 283 194 q 350 174 318 174 m 203 826 q 176 838 188 826 q 165 864 165 849 l 165 983 q 176 1010 165 999 q 203 1021 188 1021 l 604 1021 q 631 1010 619 1021 q 642 983 642 999 l 642 864 q 631 838 642 849 q 604 826 619 826 l 203 826 z "},"ą":{"ha":818,"x_min":33,"x_max":744,"o":"m 33 206 q 103 357 33 297 q 332 444 174 417 l 494 472 q 476 527 494 506 q 414 549 458 549 q 365 540 382 549 q 339 524 347 531 q 315 510 326 513 q 289 507 304 507 l 113 507 q 90 515 99 507 q 82 538 81 524 q 110 604 85 569 q 178 668 135 639 q 283 717 222 697 q 414 736 343 736 q 561 715 499 736 q 665 658 624 694 q 725 570 706 621 q 744 458 744 519 l 744 38 q 733 11 744 22 q 707 0 722 0 l 675 0 q 628 -25 644 -3 q 611 -78 611 -47 q 631 -133 611 -110 q 686 -156 650 -156 l 707 -156 q 738 -186 738 -156 l 738 -275 q 707 -306 738 -306 l 681 -306 q 586 -288 628 -306 q 515 -241 544 -271 q 471 -169 486 -211 q 456 -78 456 -128 q 494 33 456 -14 l 494 76 q 412 10 461 35 q 282 -14 363 -14 q 176 3 222 -14 q 98 49 129 19 q 50 118 67 78 q 33 206 33 158 m 350 174 q 407 184 381 174 q 453 213 433 194 q 483 255 472 231 q 494 307 494 279 l 367 288 q 306 264 329 281 q 283 221 283 247 q 301 184 283 194 q 350 174 318 174 z "},"å":{"ha":818,"x_min":33,"x_max":744,"o":"m 33 206 q 103 357 33 297 q 332 444 174 417 l 494 472 q 476 527 494 506 q 414 549 458 549 q 365 540 382 549 q 339 524 347 531 q 315 510 326 513 q 289 507 304 507 l 113 507 q 90 515 99 507 q 82 538 81 524 q 110 604 85 569 q 178 668 135 639 q 283 717 222 697 q 414 736 343 736 q 561 715 499 736 q 665 658 624 694 q 725 570 706 621 q 744 458 744 519 l 744 38 q 733 11 744 22 q 707 0 722 0 l 532 0 q 506 11 517 0 q 494 38 494 22 l 494 76 q 412 10 461 35 q 282 -14 363 -14 q 176 3 222 -14 q 98 49 129 19 q 50 118 67 78 q 33 206 33 158 m 350 174 q 407 184 381 174 q 453 213 433 194 q 483 255 472 231 q 494 307 494 279 l 367 288 q 306 264 329 281 q 283 221 283 247 q 301 184 283 194 q 350 174 318 174 m 361 944 q 373 915 361 926 q 403 903 385 903 q 433 915 421 903 q 444 944 444 926 q 433 974 444 963 q 403 986 421 986 q 373 974 385 986 q 361 944 361 963 m 271 944 q 310 1034 271 999 q 403 1069 349 1069 q 496 1034 457 1069 q 535 944 535 999 q 496 855 535 890 q 403 819 457 819 q 310 855 349 819 q 271 944 271 890 z "},"ã":{"ha":818,"x_min":33,"x_max":744,"o":"m 33 206 q 103 357 33 297 q 332 444 174 417 l 494 472 q 476 527 494 506 q 414 549 458 549 q 365 540 382 549 q 339 524 347 531 q 315 510 326 513 q 289 507 304 507 l 113 507 q 90 515 99 507 q 82 538 81 524 q 110 604 85 569 q 178 668 135 639 q 283 717 222 697 q 414 736 343 736 q 561 715 499 736 q 665 658 624 694 q 725 570 706 621 q 744 458 744 519 l 744 38 q 733 11 744 22 q 707 0 722 0 l 532 0 q 506 11 517 0 q 494 38 494 22 l 494 76 q 412 10 461 35 q 282 -14 363 -14 q 176 3 222 -14 q 98 49 129 19 q 50 118 67 78 q 33 206 33 158 m 350 174 q 407 184 381 174 q 453 213 433 194 q 483 255 472 231 q 494 307 494 279 l 367 288 q 306 264 329 281 q 283 221 283 247 q 301 184 283 194 q 350 174 318 174 m 517 819 q 450 829 475 819 q 406 851 425 839 q 372 872 388 863 q 333 882 356 882 q 308 873 317 882 q 294 853 300 864 q 282 835 288 843 q 265 826 276 826 l 160 826 q 140 834 147 826 q 133 853 133 842 q 142 917 133 883 q 171 978 151 951 q 219 1024 190 1006 q 289 1042 249 1042 q 356 1032 331 1042 q 399 1010 381 1022 q 434 989 418 999 q 472 979 450 979 q 497 988 489 979 q 512 1006 506 996 q 524 1026 518 1017 q 540 1035 529 1035 l 646 1035 q 665 1027 658 1035 q 672 1008 672 1019 q 661 943 672 976 q 629 883 650 910 q 580 838 608 856 q 517 819 551 819 z "},"æ":{"ha":1290,"x_min":33,"x_max":1244,"o":"m 744 282 q 756 229 744 250 q 786 196 768 208 q 826 178 804 183 q 869 174 849 174 q 935 182 911 174 q 976 206 960 190 q 999 222 992 218 q 1022 225 1006 225 l 1203 225 q 1233 194 1233 225 q 1213 144 1233 178 q 1148 74 1192 110 q 1035 13 1104 39 q 869 -14 965 -14 q 706 13 776 -14 q 588 90 636 40 q 535 46 563 65 q 474 13 507 26 q 401 -7 442 0 q 310 -14 361 -14 q 188 3 239 -14 q 101 49 136 19 q 50 118 67 78 q 33 206 33 158 q 103 357 33 297 q 332 444 174 417 l 494 472 q 476 527 494 506 q 414 549 458 549 q 365 540 382 549 q 339 524 347 531 q 315 510 326 513 q 289 507 304 507 l 113 507 q 90 515 99 507 q 82 538 81 524 q 110 604 85 569 q 178 668 135 639 q 283 717 222 697 q 414 736 343 736 q 547 719 489 736 q 644 674 604 703 q 869 736 735 736 q 1042 702 971 736 q 1159 614 1114 668 q 1224 492 1204 560 q 1244 358 1244 425 l 1244 319 q 1233 293 1244 304 q 1207 282 1222 282 l 744 282 m 869 549 q 781 514 811 549 q 744 436 750 479 l 994 436 q 958 514 989 479 q 869 549 928 549 m 350 174 q 407 184 381 174 q 453 213 433 194 q 483 255 472 231 q 494 307 494 279 l 367 288 q 306 264 329 281 q 283 221 283 247 q 301 184 283 194 q 350 174 318 174 z "},"ǽ":{"ha":1290,"x_min":33,"x_max":1244,"o":"m 744 282 q 756 229 744 250 q 786 196 768 208 q 826 178 804 183 q 869 174 849 174 q 935 182 911 174 q 976 206 960 190 q 999 222 992 218 q 1022 225 1006 225 l 1203 225 q 1233 194 1233 225 q 1213 144 1233 178 q 1148 74 1192 110 q 1035 13 1104 39 q 869 -14 965 -14 q 706 13 776 -14 q 588 90 636 40 q 535 46 563 65 q 474 13 507 26 q 401 -7 442 0 q 310 -14 361 -14 q 188 3 239 -14 q 101 49 136 19 q 50 118 67 78 q 33 206 33 158 q 103 357 33 297 q 332 444 174 417 l 494 472 q 476 527 494 506 q 414 549 458 549 q 365 540 382 549 q 339 524 347 531 q 315 510 326 513 q 289 507 304 507 l 113 507 q 90 515 99 507 q 82 538 81 524 q 110 604 85 569 q 178 668 135 639 q 283 717 222 697 q 414 736 343 736 q 547 719 489 736 q 644 674 604 703 q 869 736 735 736 q 1042 702 971 736 q 1159 614 1114 668 q 1224 492 1204 560 q 1244 358 1244 425 l 1244 319 q 1233 293 1244 304 q 1207 282 1222 282 l 744 282 m 869 549 q 781 514 811 549 q 744 436 750 479 l 994 436 q 958 514 989 479 q 869 549 928 549 m 350 174 q 407 184 381 174 q 453 213 433 194 q 483 255 472 231 q 494 307 494 279 l 367 288 q 306 264 329 281 q 283 221 283 247 q 301 184 283 194 q 350 174 318 174 m 644 1022 q 670 1044 660 1040 q 696 1049 681 1049 l 881 1049 q 907 1021 907 1049 q 900 1004 907 1011 l 713 850 q 689 833 701 840 q 654 826 676 826 l 532 826 q 510 849 510 826 q 517 867 510 860 l 644 1022 z "},"b":{"ha":881,"x_min":81,"x_max":829,"o":"m 517 736 q 635 717 579 736 q 732 658 690 697 q 799 558 774 618 q 828 417 825 499 q 829 360 829 396 q 828 304 829 325 q 799 163 825 222 q 732 63 774 103 q 635 5 690 24 q 517 -14 579 -14 q 440 -6 471 -14 q 387 13 408 1 q 351 40 365 25 q 324 69 336 54 l 324 38 q 313 11 324 22 q 286 0 301 0 l 118 0 q 92 11 103 0 q 81 38 81 22 l 81 949 q 92 975 81 964 q 118 986 103 986 l 293 986 q 319 975 308 986 q 331 949 331 964 l 331 653 q 356 680 340 665 q 393 707 371 694 q 446 728 415 719 q 517 736 476 736 m 579 400 q 547 485 575 449 q 454 521 519 521 q 401 511 424 521 q 365 485 379 501 q 342 450 350 469 q 331 410 333 431 q 328 361 328 389 q 331 313 328 333 q 342 272 333 292 q 365 237 350 253 q 401 211 379 221 q 454 201 424 201 q 547 238 519 201 q 579 322 575 274 q 579 400 583 361 z "},"c":{"ha":836,"x_min":50,"x_max":799,"o":"m 301 410 q 299 361 299 389 q 301 313 299 333 q 339 232 306 263 q 428 201 372 201 q 498 215 474 201 q 538 251 522 228 q 553 271 544 263 q 578 279 563 279 l 760 279 q 787 268 775 279 q 797 242 799 257 q 779 176 796 219 q 721 91 763 133 q 608 17 679 49 q 428 -14 538 -14 q 283 8 350 -14 q 165 72 215 31 q 84 173 114 114 q 51 306 54 232 q 50 361 50 326 q 51 417 50 396 q 84 549 54 490 q 165 650 114 608 q 283 714 215 692 q 428 736 350 736 q 608 705 538 736 q 721 631 679 674 q 779 546 763 589 q 797 481 796 503 q 787 454 799 465 q 760 443 775 443 l 578 443 q 553 451 563 443 q 538 471 544 460 q 498 508 522 494 q 428 521 474 521 q 339 490 372 521 q 301 410 306 460 z "},"ć":{"ha":836,"x_min":50,"x_max":799,"o":"m 301 410 q 299 361 299 389 q 301 313 299 333 q 339 232 306 263 q 428 201 372 201 q 498 215 474 201 q 538 251 522 228 q 553 271 544 263 q 578 279 563 279 l 760 279 q 787 268 775 279 q 797 242 799 257 q 779 176 796 219 q 721 91 763 133 q 608 17 679 49 q 428 -14 538 -14 q 283 8 350 -14 q 165 72 215 31 q 84 173 114 114 q 51 306 54 232 q 50 361 50 326 q 51 417 50 396 q 84 549 54 490 q 165 650 114 608 q 283 714 215 692 q 428 736 350 736 q 608 705 538 736 q 721 631 679 674 q 779 546 763 589 q 797 481 796 503 q 787 454 799 465 q 760 443 775 443 l 578 443 q 553 451 563 443 q 538 471 544 460 q 498 508 522 494 q 428 521 474 521 q 339 490 372 521 q 301 410 306 460 m 463 1022 q 488 1044 478 1040 q 514 1049 499 1049 l 699 1049 q 725 1021 725 1049 q 718 1004 725 1011 l 531 850 q 507 833 519 840 q 472 826 494 826 l 350 826 q 328 849 328 826 q 335 867 328 860 l 463 1022 z "},"č":{"ha":836,"x_min":50,"x_max":799,"o":"m 301 410 q 299 361 299 389 q 301 313 299 333 q 339 232 306 263 q 428 201 372 201 q 498 215 474 201 q 538 251 522 228 q 553 271 544 263 q 578 279 563 279 l 760 279 q 787 268 775 279 q 797 242 799 257 q 779 176 796 219 q 721 91 763 133 q 608 17 679 49 q 428 -14 538 -14 q 283 8 350 -14 q 165 72 215 31 q 84 173 114 114 q 51 306 54 232 q 50 361 50 326 q 51 417 50 396 q 84 549 54 490 q 165 650 114 608 q 283 714 215 692 q 428 736 350 736 q 608 705 538 736 q 721 631 679 674 q 779 546 763 589 q 797 481 796 503 q 787 454 799 465 q 760 443 775 443 l 578 443 q 553 451 563 443 q 538 471 544 460 q 498 508 522 494 q 428 521 474 521 q 339 490 372 521 q 301 410 306 460 m 363 826 q 336 832 347 826 q 311 853 325 838 l 169 1008 q 163 1026 163 1015 q 185 1049 163 1049 l 278 1049 q 300 1044 292 1049 q 321 1033 308 1040 l 424 974 l 526 1033 q 547 1044 539 1040 q 569 1049 556 1049 l 663 1049 q 685 1026 685 1049 q 678 1008 685 1015 l 536 853 q 511 832 522 838 q 485 826 500 826 l 363 826 z "},"ç":{"ha":836,"x_min":50,"x_max":799,"o":"m 301 410 q 299 361 299 389 q 301 313 299 333 q 339 232 306 263 q 428 201 372 201 q 498 215 474 201 q 538 251 522 228 q 553 271 544 263 q 578 279 563 279 l 760 279 q 787 268 775 279 q 797 242 799 257 q 779 176 796 219 q 721 91 763 133 q 608 17 679 49 q 428 -14 538 -14 l 424 -14 l 394 -75 q 417 -65 403 -69 q 446 -61 431 -61 q 525 -97 499 -61 q 551 -183 551 -133 q 514 -269 551 -233 q 414 -306 476 -306 q 367 -299 392 -306 q 326 -281 343 -292 q 301 -258 308 -269 q 307 -235 294 -246 l 332 -212 q 351 -203 343 -203 q 366 -207 358 -203 q 385 -216 374 -211 q 414 -221 396 -221 q 447 -212 433 -221 q 460 -183 460 -204 q 447 -155 460 -164 q 414 -146 435 -146 q 394 -149 404 -146 q 374 -153 383 -151 q 355 -155 364 -156 q 339 -147 346 -154 l 314 -118 q 303 -99 306 -107 q 311 -72 301 -92 l 343 -6 q 228 31 281 4 q 138 97 176 57 q 76 190 99 138 q 51 306 53 243 q 50 361 50 326 q 51 417 50 396 q 84 549 54 490 q 165 650 114 608 q 283 714 215 692 q 428 736 350 736 q 608 705 538 736 q 721 631 679 674 q 779 546 763 589 q 797 481 796 503 q 787 454 799 465 q 760 443 775 443 l 578 443 q 553 451 563 443 q 538 471 544 460 q 498 508 522 494 q 428 521 474 521 q 339 490 372 521 q 301 410 306 460 z "},"ĉ":{"ha":836,"x_min":50,"x_max":799,"o":"m 301 410 q 299 361 299 389 q 301 313 299 333 q 339 232 306 263 q 428 201 372 201 q 498 215 474 201 q 538 251 522 228 q 553 271 544 263 q 578 279 563 279 l 760 279 q 787 268 775 279 q 797 242 799 257 q 779 176 796 219 q 721 91 763 133 q 608 17 679 49 q 428 -14 538 -14 q 283 8 350 -14 q 165 72 215 31 q 84 173 114 114 q 51 306 54 232 q 50 361 50 326 q 51 417 50 396 q 84 549 54 490 q 165 650 114 608 q 283 714 215 692 q 428 736 350 736 q 608 705 538 736 q 721 631 679 674 q 779 546 763 589 q 797 481 796 503 q 787 454 799 465 q 760 443 775 443 l 578 443 q 553 451 563 443 q 538 471 544 460 q 498 508 522 494 q 428 521 474 521 q 339 490 372 521 q 301 410 306 460 m 485 1049 q 511 1043 500 1049 q 536 1022 522 1038 l 678 867 q 685 849 685 860 q 663 826 685 826 l 569 826 q 547 831 556 826 q 526 842 539 835 l 424 901 l 321 842 q 300 831 308 835 q 278 826 292 826 l 185 826 q 163 849 163 826 q 169 867 163 860 l 311 1022 q 336 1043 325 1038 q 363 1049 347 1049 l 485 1049 z "},"ċ":{"ha":836,"x_min":50,"x_max":799,"o":"m 301 410 q 299 361 299 389 q 301 313 299 333 q 339 232 306 263 q 428 201 372 201 q 498 215 474 201 q 538 251 522 228 q 553 271 544 263 q 578 279 563 279 l 760 279 q 787 268 775 279 q 797 242 799 257 q 779 176 796 219 q 721 91 763 133 q 608 17 679 49 q 428 -14 538 -14 q 283 8 350 -14 q 165 72 215 31 q 84 173 114 114 q 51 306 54 232 q 50 361 50 326 q 51 417 50 396 q 84 549 54 490 q 165 650 114 608 q 283 714 215 692 q 428 736 350 736 q 608 705 538 736 q 721 631 679 674 q 779 546 763 589 q 797 481 796 503 q 787 454 799 465 q 760 443 775 443 l 578 443 q 553 451 563 443 q 538 471 544 460 q 498 508 522 494 q 428 521 474 521 q 339 490 372 521 q 301 410 306 460 m 539 864 q 528 838 539 849 q 501 826 517 826 l 347 826 q 321 838 332 826 q 310 864 310 849 l 310 1018 q 321 1044 310 1033 q 347 1056 332 1056 l 501 1056 q 528 1044 517 1056 q 539 1018 539 1033 l 539 864 z "},"d":{"ha":881,"x_min":51,"x_max":800,"o":"m 364 736 q 435 728 404 736 q 488 707 465 719 q 525 680 510 694 q 550 653 540 665 l 550 949 q 561 975 550 964 q 588 986 572 986 l 763 986 q 789 975 778 986 q 800 949 800 964 l 800 38 q 789 11 800 22 q 763 0 778 0 l 594 0 q 568 11 579 0 q 557 38 557 22 l 557 69 q 530 40 544 54 q 494 13 515 25 q 441 -6 472 1 q 364 -14 410 -14 q 246 5 301 -14 q 149 63 190 24 q 81 163 107 103 q 53 304 56 222 q 51 360 51 325 q 53 417 51 396 q 81 558 56 499 q 149 658 107 618 q 246 717 190 697 q 364 736 301 736 m 301 400 q 301 322 297 361 q 333 238 306 274 q 426 201 361 201 q 479 211 457 201 q 516 237 501 221 q 539 272 531 253 q 550 313 547 292 q 553 361 553 333 q 550 410 553 389 q 539 450 547 431 q 516 485 531 469 q 479 511 501 501 q 426 521 457 521 q 333 485 361 521 q 301 400 306 449 z "},"ď":{"ha":1042,"x_min":51,"x_max":1156,"o":"m 364 736 q 435 728 404 736 q 488 707 465 719 q 525 680 510 694 q 550 653 540 665 l 550 949 q 561 975 550 964 q 588 986 572 986 l 763 986 q 789 975 778 986 q 800 949 800 964 l 800 38 q 789 11 800 22 q 763 0 778 0 l 594 0 q 568 11 579 0 q 557 38 557 22 l 557 69 q 530 40 544 54 q 494 13 515 25 q 441 -6 472 1 q 364 -14 410 -14 q 246 5 301 -14 q 149 63 190 24 q 81 163 107 103 q 53 304 56 222 q 51 360 51 325 q 53 417 51 396 q 81 558 56 499 q 149 658 107 618 q 246 717 190 697 q 364 736 301 736 m 301 400 q 301 322 297 361 q 333 238 306 274 q 426 201 361 201 q 479 211 457 201 q 516 237 501 221 q 539 272 531 253 q 550 313 547 292 q 553 361 553 333 q 550 410 553 389 q 539 450 547 431 q 516 485 531 469 q 479 511 501 501 q 426 521 457 521 q 333 485 361 521 q 301 400 306 449 m 906 932 q 923 969 908 951 q 965 986 938 986 l 1125 986 q 1147 977 1138 986 q 1156 956 1156 968 q 1154 946 1156 950 l 1078 753 q 1059 724 1072 739 q 1018 708 1046 708 l 906 708 q 884 717 893 708 q 875 739 875 726 l 875 742 l 906 932 z "},"đ":{"ha":874,"x_min":53,"x_max":904,"o":"m 361 736 q 431 728 401 736 q 483 707 461 719 q 519 680 504 694 q 543 653 533 665 l 543 767 l 469 767 q 443 778 454 767 q 432 804 432 789 l 432 864 q 443 890 432 879 q 469 901 454 901 l 543 901 l 543 949 q 554 975 543 964 q 581 986 565 986 l 756 986 q 782 975 771 986 q 793 949 793 964 l 793 901 l 867 901 q 893 890 882 901 q 904 864 904 879 l 904 804 q 893 778 904 789 q 867 767 882 767 l 793 767 l 793 38 q 782 11 793 22 q 756 0 771 0 l 588 0 q 561 11 572 0 q 550 38 550 22 l 550 69 q 524 40 538 54 q 489 13 510 25 q 438 -6 468 1 q 361 -14 407 -14 q 244 5 299 -14 q 148 63 189 24 q 82 163 107 103 q 54 304 57 222 q 53 360 53 325 q 54 417 53 396 q 82 558 57 499 q 148 658 107 618 q 244 717 189 697 q 361 736 299 736 m 303 400 q 303 322 299 361 q 312 276 304 297 q 333 238 319 254 q 369 211 347 221 q 424 201 392 201 q 476 211 454 201 q 511 237 497 221 q 533 272 525 253 q 543 313 540 292 q 546 361 546 333 q 543 410 546 389 q 533 450 540 431 q 511 485 525 469 q 476 511 497 501 q 424 521 454 521 q 369 511 392 521 q 333 485 347 501 q 312 447 319 468 q 303 400 304 425 z "},"e":{"ha":843,"x_min":47,"x_max":797,"o":"m 297 282 q 309 229 297 250 q 339 196 321 208 q 379 178 357 183 q 422 174 401 174 q 488 182 464 174 q 529 206 513 190 q 551 222 544 218 q 575 225 558 225 l 756 225 q 786 194 786 225 q 765 144 786 178 q 701 74 744 110 q 588 13 657 39 q 422 -14 518 -14 q 262 12 332 -14 q 144 86 192 38 q 72 204 96 135 q 47 361 47 274 q 72 510 47 442 q 144 629 96 579 q 262 708 192 679 q 422 736 332 736 q 595 702 524 736 q 712 614 667 668 q 777 492 757 560 q 797 358 797 425 l 797 319 q 786 293 797 304 q 760 282 775 282 l 297 282 m 422 549 q 333 514 364 549 q 297 436 303 479 l 547 436 q 511 514 542 479 q 422 549 481 549 z "},"é":{"ha":843,"x_min":47,"x_max":797,"o":"m 297 282 q 309 229 297 250 q 339 196 321 208 q 379 178 357 183 q 422 174 401 174 q 488 182 464 174 q 529 206 513 190 q 551 222 544 218 q 575 225 558 225 l 756 225 q 786 194 786 225 q 765 144 786 178 q 701 74 744 110 q 588 13 657 39 q 422 -14 518 -14 q 262 12 332 -14 q 144 86 192 38 q 72 204 96 135 q 47 361 47 274 q 72 510 47 442 q 144 629 96 579 q 262 708 192 679 q 422 736 332 736 q 595 702 524 736 q 712 614 667 668 q 777 492 757 560 q 797 358 797 425 l 797 319 q 786 293 797 304 q 760 282 775 282 l 297 282 m 422 549 q 333 514 364 549 q 297 436 303 479 l 547 436 q 511 514 542 479 q 422 549 481 549 m 451 1022 q 477 1044 467 1040 q 503 1049 488 1049 l 688 1049 q 714 1021 714 1049 q 707 1004 714 1011 l 519 850 q 496 833 508 840 q 461 826 483 826 l 339 826 q 317 849 317 826 q 324 867 317 860 l 451 1022 z "},"ĕ":{"ha":843,"x_min":47,"x_max":797,"o":"m 297 282 q 309 229 297 250 q 339 196 321 208 q 379 178 357 183 q 422 174 401 174 q 488 182 464 174 q 529 206 513 190 q 551 222 544 218 q 575 225 558 225 l 756 225 q 786 194 786 225 q 765 144 786 178 q 701 74 744 110 q 588 13 657 39 q 422 -14 518 -14 q 262 12 332 -14 q 144 86 192 38 q 72 204 96 135 q 47 361 47 274 q 72 510 47 442 q 144 629 96 579 q 262 708 192 679 q 422 736 332 736 q 595 702 524 736 q 712 614 667 668 q 777 492 757 560 q 797 358 797 425 l 797 319 q 786 293 797 304 q 760 282 775 282 l 297 282 m 422 549 q 333 514 364 549 q 297 436 303 479 l 547 436 q 511 514 542 479 q 422 549 481 549 m 422 819 q 315 838 358 819 q 244 887 271 857 q 206 953 218 917 q 194 1022 194 989 q 201 1041 194 1033 q 221 1049 208 1049 l 338 1049 q 357 1041 350 1049 q 364 1022 364 1033 q 378 974 364 996 q 422 953 393 953 q 466 974 451 953 q 481 1022 481 996 q 488 1041 481 1033 q 507 1049 494 1049 l 624 1049 q 643 1041 636 1049 q 650 1022 650 1033 q 638 953 650 989 q 600 887 626 917 q 530 838 574 857 q 422 819 486 819 z "},"ě":{"ha":843,"x_min":47,"x_max":797,"o":"m 297 282 q 309 229 297 250 q 339 196 321 208 q 379 178 357 183 q 422 174 401 174 q 488 182 464 174 q 529 206 513 190 q 551 222 544 218 q 575 225 558 225 l 756 225 q 786 194 786 225 q 765 144 786 178 q 701 74 744 110 q 588 13 657 39 q 422 -14 518 -14 q 262 12 332 -14 q 144 86 192 38 q 72 204 96 135 q 47 361 47 274 q 72 510 47 442 q 144 629 96 579 q 262 708 192 679 q 422 736 332 736 q 595 702 524 736 q 712 614 667 668 q 777 492 757 560 q 797 358 797 425 l 797 319 q 786 293 797 304 q 760 282 775 282 l 297 282 m 422 549 q 333 514 364 549 q 297 436 303 479 l 547 436 q 511 514 542 479 q 422 549 481 549 m 361 826 q 335 832 346 826 q 310 853 324 838 l 168 1008 q 161 1026 161 1015 q 183 1049 161 1049 l 276 1049 q 299 1044 290 1049 q 319 1033 307 1040 l 422 974 l 525 1033 q 546 1044 538 1040 q 568 1049 554 1049 l 661 1049 q 683 1026 683 1049 q 676 1008 683 1015 l 535 853 q 510 832 521 838 q 483 826 499 826 l 361 826 z "},"ê":{"ha":843,"x_min":47,"x_max":797,"o":"m 297 282 q 309 229 297 250 q 339 196 321 208 q 379 178 357 183 q 422 174 401 174 q 488 182 464 174 q 529 206 513 190 q 551 222 544 218 q 575 225 558 225 l 756 225 q 786 194 786 225 q 765 144 786 178 q 701 74 744 110 q 588 13 657 39 q 422 -14 518 -14 q 262 12 332 -14 q 144 86 192 38 q 72 204 96 135 q 47 361 47 274 q 72 510 47 442 q 144 629 96 579 q 262 708 192 679 q 422 736 332 736 q 595 702 524 736 q 712 614 667 668 q 777 492 757 560 q 797 358 797 425 l 797 319 q 786 293 797 304 q 760 282 775 282 l 297 282 m 422 549 q 333 514 364 549 q 297 436 303 479 l 547 436 q 511 514 542 479 q 422 549 481 549 m 483 1049 q 510 1043 499 1049 q 535 1022 521 1038 l 676 867 q 683 849 683 860 q 661 826 683 826 l 568 826 q 546 831 554 826 q 525 842 538 835 l 422 901 l 319 842 q 299 831 307 835 q 276 826 290 826 l 183 826 q 161 849 161 826 q 168 867 161 860 l 310 1022 q 335 1043 324 1038 q 361 1049 346 1049 l 483 1049 z "},"ë":{"ha":843,"x_min":47,"x_max":797,"o":"m 297 282 q 309 229 297 250 q 339 196 321 208 q 379 178 357 183 q 422 174 401 174 q 488 182 464 174 q 529 206 513 190 q 551 222 544 218 q 575 225 558 225 l 756 225 q 786 194 786 225 q 765 144 786 178 q 701 74 744 110 q 588 13 657 39 q 422 -14 518 -14 q 262 12 332 -14 q 144 86 192 38 q 72 204 96 135 q 47 361 47 274 q 72 510 47 442 q 144 629 96 579 q 262 708 192 679 q 422 736 332 736 q 595 702 524 736 q 712 614 667 668 q 777 492 757 560 q 797 358 797 425 l 797 319 q 786 293 797 304 q 760 282 775 282 l 297 282 m 422 549 q 333 514 364 549 q 297 436 303 479 l 547 436 q 511 514 542 479 q 422 549 481 549 m 374 864 q 363 838 374 849 q 336 826 351 826 l 196 826 q 169 838 181 826 q 158 864 158 849 l 158 1004 q 169 1031 158 1019 q 196 1042 181 1042 l 336 1042 q 363 1031 351 1042 q 374 1004 374 1019 l 374 864 m 686 864 q 675 838 686 849 q 649 826 664 826 l 508 826 q 482 838 493 826 q 471 864 471 849 l 471 1004 q 482 1031 471 1019 q 508 1042 493 1042 l 649 1042 q 675 1031 664 1042 q 686 1004 686 1019 l 686 864 z "},"ė":{"ha":843,"x_min":47,"x_max":797,"o":"m 297 282 q 309 229 297 250 q 339 196 321 208 q 379 178 357 183 q 422 174 401 174 q 488 182 464 174 q 529 206 513 190 q 551 222 544 218 q 575 225 558 225 l 756 225 q 786 194 786 225 q 765 144 786 178 q 701 74 744 110 q 588 13 657 39 q 422 -14 518 -14 q 262 12 332 -14 q 144 86 192 38 q 72 204 96 135 q 47 361 47 274 q 72 510 47 442 q 144 629 96 579 q 262 708 192 679 q 422 736 332 736 q 595 702 524 736 q 712 614 667 668 q 777 492 757 560 q 797 358 797 425 l 797 319 q 786 293 797 304 q 760 282 775 282 l 297 282 m 422 549 q 333 514 364 549 q 297 436 303 479 l 547 436 q 511 514 542 479 q 422 549 481 549 m 538 864 q 526 838 538 849 q 500 826 515 826 l 346 826 q 319 838 331 826 q 308 864 308 849 l 308 1018 q 319 1044 308 1033 q 346 1056 331 1056 l 500 1056 q 526 1044 515 1056 q 538 1018 538 1033 l 538 864 z "},"è":{"ha":843,"x_min":47,"x_max":797,"o":"m 297 282 q 309 229 297 250 q 339 196 321 208 q 379 178 357 183 q 422 174 401 174 q 488 182 464 174 q 529 206 513 190 q 551 222 544 218 q 575 225 558 225 l 756 225 q 786 194 786 225 q 765 144 786 178 q 701 74 744 110 q 588 13 657 39 q 422 -14 518 -14 q 262 12 332 -14 q 144 86 192 38 q 72 204 96 135 q 47 361 47 274 q 72 510 47 442 q 144 629 96 579 q 262 708 192 679 q 422 736 332 736 q 595 702 524 736 q 712 614 667 668 q 777 492 757 560 q 797 358 797 425 l 797 319 q 786 293 797 304 q 760 282 775 282 l 297 282 m 422 549 q 333 514 364 549 q 297 436 303 479 l 547 436 q 511 514 542 479 q 422 549 481 549 m 513 867 q 519 849 519 860 q 497 826 519 826 l 375 826 q 340 833 353 826 q 317 850 328 840 l 129 1004 q 122 1021 122 1011 q 149 1049 122 1049 l 333 1049 q 359 1044 349 1049 q 385 1022 369 1040 l 513 867 z "},"ē":{"ha":843,"x_min":47,"x_max":797,"o":"m 297 282 q 309 229 297 250 q 339 196 321 208 q 379 178 357 183 q 422 174 401 174 q 488 182 464 174 q 529 206 513 190 q 551 222 544 218 q 575 225 558 225 l 756 225 q 786 194 786 225 q 765 144 786 178 q 701 74 744 110 q 588 13 657 39 q 422 -14 518 -14 q 262 12 332 -14 q 144 86 192 38 q 72 204 96 135 q 47 361 47 274 q 72 510 47 442 q 144 629 96 579 q 262 708 192 679 q 422 736 332 736 q 595 702 524 736 q 712 614 667 668 q 777 492 757 560 q 797 358 797 425 l 797 319 q 786 293 797 304 q 760 282 775 282 l 297 282 m 422 549 q 333 514 364 549 q 297 436 303 479 l 547 436 q 511 514 542 479 q 422 549 481 549 m 222 826 q 196 838 207 826 q 185 864 185 849 l 185 983 q 196 1010 185 999 q 222 1021 207 1021 l 624 1021 q 650 1010 639 1021 q 661 983 661 999 l 661 864 q 650 838 661 849 q 624 826 639 826 l 222 826 z "},"ę":{"ha":843,"x_min":47,"x_max":797,"o":"m 297 282 q 309 229 297 250 q 339 196 321 208 q 379 178 357 183 q 422 174 401 174 q 488 182 464 174 q 529 206 513 190 q 551 222 544 218 q 575 225 558 225 l 756 225 q 786 194 786 225 q 769 150 786 179 q 717 89 753 121 q 625 29 681 57 q 492 -10 569 1 q 437 -31 456 -15 q 418 -78 418 -46 q 438 -133 418 -110 q 493 -156 457 -156 l 514 -156 q 544 -186 544 -156 l 544 -275 q 514 -306 544 -306 l 488 -306 q 393 -288 435 -306 q 322 -241 351 -271 q 278 -169 293 -211 q 263 -78 263 -128 q 275 7 263 -31 q 105 134 163 43 q 47 361 47 225 q 72 510 47 442 q 144 629 96 579 q 262 708 192 679 q 422 736 332 736 q 595 702 524 736 q 712 614 667 668 q 777 492 757 560 q 797 358 797 425 l 797 319 q 786 293 797 304 q 760 282 775 282 l 297 282 m 422 549 q 333 514 364 549 q 297 436 303 479 l 547 436 q 511 514 542 479 q 422 549 481 549 z "},"f":{"ha":639,"x_min":29,"x_max":635,"o":"m 413 722 l 583 722 q 610 711 599 722 q 621 685 621 700 l 621 544 q 610 518 621 529 q 583 507 599 507 l 413 507 l 413 38 q 401 11 413 22 q 375 0 390 0 l 200 0 q 174 11 185 0 q 163 38 163 22 l 163 507 l 67 507 q 40 518 51 507 q 29 544 29 529 l 29 685 q 40 711 29 700 q 67 722 51 722 l 163 722 l 163 760 q 185 874 163 824 q 249 958 208 924 q 344 1010 289 992 q 465 1028 400 1028 l 597 1028 q 624 1017 613 1028 q 635 990 635 1006 l 635 850 q 624 824 635 835 q 597 813 613 813 l 472 813 q 426 796 439 813 q 413 753 413 779 l 413 722 z "},"g":{"ha":881,"x_min":51,"x_max":800,"o":"m 424 -97 q 517 -73 476 -97 q 557 0 557 -49 l 557 97 q 530 67 544 82 q 494 41 515 53 q 441 22 472 29 q 364 14 410 14 q 246 33 301 14 q 149 90 190 51 q 81 188 107 129 q 53 325 56 246 q 51 374 51 346 q 53 424 51 403 q 81 562 56 503 q 149 659 107 621 q 246 717 190 697 q 364 736 301 736 q 443 728 410 736 q 500 707 476 719 q 539 680 524 694 q 564 653 554 665 l 564 685 q 575 711 564 700 q 601 722 586 722 l 763 722 q 789 711 778 722 q 800 685 800 700 l 800 8 q 772 -128 800 -69 q 693 -227 743 -187 q 574 -286 643 -267 q 421 -306 504 -306 q 244 -278 313 -306 q 136 -213 175 -251 q 82 -133 97 -175 q 65 -61 67 -92 q 76 -35 64 -46 q 103 -24 88 -24 l 283 -24 q 326 -51 313 -24 q 356 -83 336 -69 q 424 -97 376 -97 m 301 410 q 299 376 299 389 q 301 342 299 363 q 335 261 306 293 q 426 229 365 229 q 513 260 483 229 q 550 332 543 292 q 550 419 557 375 q 514 490 544 460 q 426 521 483 521 q 336 490 367 521 q 301 410 306 458 z "},"ğ":{"ha":881,"x_min":51,"x_max":800,"o":"m 424 -97 q 517 -73 476 -97 q 557 0 557 -49 l 557 97 q 530 67 544 82 q 494 41 515 53 q 441 22 472 29 q 364 14 410 14 q 246 33 301 14 q 149 90 190 51 q 81 188 107 129 q 53 325 56 246 q 51 374 51 346 q 53 424 51 403 q 81 562 56 503 q 149 659 107 621 q 246 717 190 697 q 364 736 301 736 q 443 728 410 736 q 500 707 476 719 q 539 680 524 694 q 564 653 554 665 l 564 685 q 575 711 564 700 q 601 722 586 722 l 763 722 q 789 711 778 722 q 800 685 800 700 l 800 8 q 772 -128 800 -69 q 693 -227 743 -187 q 574 -286 643 -267 q 421 -306 504 -306 q 244 -278 313 -306 q 136 -213 175 -251 q 82 -133 97 -175 q 65 -61 67 -92 q 76 -35 64 -46 q 103 -24 88 -24 l 283 -24 q 326 -51 313 -24 q 356 -83 336 -69 q 424 -97 376 -97 m 301 410 q 299 376 299 389 q 301 342 299 363 q 335 261 306 293 q 426 229 365 229 q 513 260 483 229 q 550 332 543 292 q 550 419 557 375 q 514 490 544 460 q 426 521 483 521 q 336 490 367 521 q 301 410 306 458 m 425 819 q 317 838 361 819 q 247 887 274 857 q 209 953 221 917 q 197 1022 197 989 q 204 1041 197 1033 q 224 1049 211 1049 l 340 1049 q 360 1041 353 1049 q 367 1022 367 1033 q 381 974 367 996 q 425 953 396 953 q 469 974 454 953 q 483 1022 483 996 q 490 1041 483 1033 q 510 1049 497 1049 l 626 1049 q 646 1041 639 1049 q 653 1022 653 1033 q 641 953 653 989 q 603 887 629 917 q 533 838 576 857 q 425 819 489 819 z "},"ĝ":{"ha":881,"x_min":51,"x_max":800,"o":"m 424 -97 q 517 -73 476 -97 q 557 0 557 -49 l 557 97 q 530 67 544 82 q 494 41 515 53 q 441 22 472 29 q 364 14 410 14 q 246 33 301 14 q 149 90 190 51 q 81 188 107 129 q 53 325 56 246 q 51 374 51 346 q 53 424 51 403 q 81 562 56 503 q 149 659 107 621 q 246 717 190 697 q 364 736 301 736 q 443 728 410 736 q 500 707 476 719 q 539 680 524 694 q 564 653 554 665 l 564 685 q 575 711 564 700 q 601 722 586 722 l 763 722 q 789 711 778 722 q 800 685 800 700 l 800 8 q 772 -128 800 -69 q 693 -227 743 -187 q 574 -286 643 -267 q 421 -306 504 -306 q 244 -278 313 -306 q 136 -213 175 -251 q 82 -133 97 -175 q 65 -61 67 -92 q 76 -35 64 -46 q 103 -24 88 -24 l 283 -24 q 326 -51 313 -24 q 356 -83 336 -69 q 424 -97 376 -97 m 301 410 q 299 376 299 389 q 301 342 299 363 q 335 261 306 293 q 426 229 365 229 q 513 260 483 229 q 550 332 543 292 q 550 419 557 375 q 514 490 544 460 q 426 521 483 521 q 336 490 367 521 q 301 410 306 458 m 486 1049 q 513 1043 501 1049 q 538 1022 524 1038 l 679 867 q 686 849 686 860 q 664 826 686 826 l 571 826 q 549 831 557 826 q 528 842 540 835 l 425 901 l 322 842 q 301 831 310 835 q 279 826 293 826 l 186 826 q 164 849 164 826 q 171 867 164 860 l 313 1022 q 338 1043 326 1038 q 364 1049 349 1049 l 486 1049 z "},"ģ":{"ha":881,"x_min":51,"x_max":800,"o":"m 424 -97 q 517 -73 476 -97 q 557 0 557 -49 l 557 97 q 530 67 544 82 q 494 41 515 53 q 441 22 472 29 q 364 14 410 14 q 246 33 301 14 q 149 90 190 51 q 81 188 107 129 q 53 325 56 246 q 51 374 51 346 q 53 424 51 403 q 81 562 56 503 q 149 659 107 621 q 246 717 190 697 q 364 736 301 736 q 443 728 410 736 q 500 707 476 719 q 539 680 524 694 q 564 653 554 665 l 564 685 q 575 711 564 700 q 601 722 586 722 l 763 722 q 789 711 778 722 q 800 685 800 700 l 800 8 q 772 -128 800 -69 q 693 -227 743 -187 q 574 -286 643 -267 q 421 -306 504 -306 q 244 -278 313 -306 q 136 -213 175 -251 q 82 -133 97 -175 q 65 -61 67 -92 q 76 -35 64 -46 q 103 -24 88 -24 l 283 -24 q 326 -51 313 -24 q 356 -83 336 -69 q 424 -97 376 -97 m 301 410 q 299 376 299 389 q 301 342 299 363 q 335 261 306 293 q 426 229 365 229 q 513 260 483 229 q 550 332 543 292 q 550 419 557 375 q 514 490 544 460 q 426 521 483 521 q 336 490 367 521 q 301 410 306 458 m 539 881 q 522 844 536 861 q 479 826 507 826 l 319 826 q 298 835 307 826 q 289 857 289 844 q 290 867 289 862 l 367 1060 q 385 1089 372 1074 q 426 1104 399 1104 l 539 1104 q 560 1095 551 1104 q 569 1074 569 1086 l 569 1071 l 539 881 z "},"ġ":{"ha":881,"x_min":51,"x_max":800,"o":"m 424 -97 q 517 -73 476 -97 q 557 0 557 -49 l 557 97 q 530 67 544 82 q 494 41 515 53 q 441 22 472 29 q 364 14 410 14 q 246 33 301 14 q 149 90 190 51 q 81 188 107 129 q 53 325 56 246 q 51 374 51 346 q 53 424 51 403 q 81 562 56 503 q 149 659 107 621 q 246 717 190 697 q 364 736 301 736 q 443 728 410 736 q 500 707 476 719 q 539 680 524 694 q 564 653 554 665 l 564 685 q 575 711 564 700 q 601 722 586 722 l 763 722 q 789 711 778 722 q 800 685 800 700 l 800 8 q 772 -128 800 -69 q 693 -227 743 -187 q 574 -286 643 -267 q 421 -306 504 -306 q 244 -278 313 -306 q 136 -213 175 -251 q 82 -133 97 -175 q 65 -61 67 -92 q 76 -35 64 -46 q 103 -24 88 -24 l 283 -24 q 326 -51 313 -24 q 356 -83 336 -69 q 424 -97 376 -97 m 301 410 q 299 376 299 389 q 301 342 299 363 q 335 261 306 293 q 426 229 365 229 q 513 260 483 229 q 550 332 543 292 q 550 419 557 375 q 514 490 544 460 q 426 521 483 521 q 336 490 367 521 q 301 410 306 458 m 540 864 q 529 838 540 849 q 503 826 518 826 l 349 826 q 322 838 333 826 q 311 864 311 849 l 311 1018 q 322 1044 311 1033 q 349 1056 333 1056 l 503 1056 q 529 1044 518 1056 q 540 1018 540 1033 l 540 864 z "},"h":{"ha":894,"x_min":81,"x_max":821,"o":"m 821 38 q 810 11 821 22 q 783 0 799 0 l 608 0 q 582 11 593 0 q 571 38 571 22 l 571 389 q 542 485 571 449 q 450 521 513 521 q 359 485 388 521 q 331 389 331 449 l 331 38 q 319 11 331 22 q 293 0 308 0 l 118 0 q 92 11 103 0 q 81 38 81 22 l 81 949 q 92 975 81 964 q 118 986 103 986 l 293 986 q 319 975 308 986 q 331 949 331 964 l 331 653 q 404 709 354 682 q 519 736 454 736 q 642 717 586 736 q 737 660 697 699 q 799 561 776 621 q 821 419 821 501 l 821 38 z "},"ħ":{"ha":894,"x_min":-31,"x_max":821,"o":"m 821 38 q 810 11 821 22 q 783 0 799 0 l 608 0 q 582 11 593 0 q 571 38 571 22 l 571 389 q 542 485 571 449 q 450 521 513 521 q 359 485 388 521 q 331 389 331 449 l 331 38 q 319 11 331 22 q 293 0 308 0 l 118 0 q 92 11 103 0 q 81 38 81 22 l 81 760 l 7 760 q -19 771 -8 760 q -31 797 -31 782 l -31 857 q -19 883 -31 872 q 7 894 -8 894 l 81 894 l 81 949 q 92 975 81 964 q 118 986 103 986 l 293 986 q 319 975 308 986 q 331 949 331 964 l 331 894 l 404 894 q 431 883 419 894 q 442 857 442 872 l 442 797 q 431 771 442 782 q 404 760 419 760 l 331 760 l 331 653 q 404 709 354 682 q 519 736 454 736 q 642 717 586 736 q 737 660 697 699 q 799 561 776 621 q 821 419 821 501 l 821 38 z "},"ĥ":{"ha":894,"x_min":81,"x_max":821,"o":"m 821 38 q 810 11 821 22 q 783 0 799 0 l 608 0 q 582 11 593 0 q 571 38 571 22 l 571 389 q 542 485 571 449 q 450 521 513 521 q 359 485 388 521 q 331 389 331 449 l 331 38 q 319 11 331 22 q 293 0 308 0 l 118 0 q 92 11 103 0 q 81 38 81 22 l 81 949 q 92 975 81 964 q 118 986 103 986 l 293 986 q 319 975 308 986 q 331 949 331 964 l 331 653 q 404 709 354 682 q 519 736 454 736 q 642 717 586 736 q 737 660 697 699 q 799 561 776 621 q 821 419 821 501 l 821 38 m 511 1264 q 538 1258 526 1264 q 563 1238 549 1253 l 704 1082 q 711 1064 711 1075 q 689 1042 711 1042 l 596 1042 q 574 1046 582 1042 q 553 1057 565 1050 l 450 1117 l 347 1057 q 326 1046 335 1050 q 304 1042 318 1042 l 211 1042 q 189 1064 189 1042 q 196 1082 189 1075 l 338 1238 q 363 1258 351 1253 q 389 1264 374 1264 l 511 1264 z "},"i":{"ha":411,"x_min":81,"x_max":331,"o":"m 331 38 q 319 11 331 22 q 293 0 308 0 l 118 0 q 92 11 103 0 q 81 38 81 22 l 81 685 q 92 711 81 700 q 118 722 103 722 l 293 722 q 319 711 308 722 q 331 685 331 700 l 331 38 m 331 836 q 319 810 331 821 q 293 799 308 799 l 118 799 q 92 810 103 799 q 81 836 81 821 l 81 976 q 92 1003 81 992 q 118 1014 103 1014 l 293 1014 q 319 1003 308 1014 q 331 976 331 992 l 331 836 z "},"í":{"ha":411,"x_min":81,"x_max":501,"o":"m 331 38 q 319 11 331 22 q 293 0 308 0 l 118 0 q 92 11 103 0 q 81 38 81 22 l 81 685 q 92 711 81 700 q 118 722 103 722 l 293 722 q 319 711 308 722 q 331 685 331 700 l 331 38 m 239 1022 q 265 1044 254 1040 q 290 1049 275 1049 l 475 1049 q 501 1021 501 1049 q 494 1004 501 1011 l 307 850 q 283 833 296 840 q 249 826 271 826 l 126 826 q 104 849 104 826 q 111 867 104 860 l 239 1022 z "},"ĭ":{"ha":411,"x_min":-22,"x_max":433,"o":"m 331 38 q 319 11 331 22 q 293 0 308 0 l 118 0 q 92 11 103 0 q 81 38 81 22 l 81 685 q 92 711 81 700 q 118 722 103 722 l 293 722 q 319 711 308 722 q 331 685 331 700 l 331 38 m 206 819 q 98 838 142 819 q 28 887 54 857 q -10 953 1 917 q -22 1022 -22 989 q -15 1041 -22 1033 q 4 1049 -8 1049 l 121 1049 q 140 1041 133 1049 q 147 1022 147 1033 q 162 974 147 996 q 206 953 176 953 q 249 974 235 953 q 264 1022 264 996 q 271 1041 264 1033 q 290 1049 278 1049 l 407 1049 q 426 1041 419 1049 q 433 1022 433 1033 q 422 953 433 989 q 383 887 410 917 q 313 838 357 857 q 206 819 269 819 z "},"î":{"ha":411,"x_min":-56,"x_max":467,"o":"m 331 38 q 319 11 331 22 q 293 0 308 0 l 118 0 q 92 11 103 0 q 81 38 81 22 l 81 685 q 92 711 81 700 q 118 722 103 722 l 293 722 q 319 711 308 722 q 331 685 331 700 l 331 38 m 267 1049 q 293 1043 282 1049 q 318 1022 304 1038 l 460 867 q 467 849 467 860 q 444 826 467 826 l 351 826 q 329 831 338 826 q 308 842 321 835 l 206 901 l 103 842 q 82 831 90 835 q 60 826 74 826 l -33 826 q -56 849 -56 826 q -49 867 -56 860 l 93 1022 q 118 1043 107 1038 q 144 1049 129 1049 l 267 1049 z "},"ï":{"ha":411,"x_min":-58,"x_max":469,"o":"m 331 38 q 319 11 331 22 q 293 0 308 0 l 118 0 q 92 11 103 0 q 81 38 81 22 l 81 685 q 92 711 81 700 q 118 722 103 722 l 293 722 q 319 711 308 722 q 331 685 331 700 l 331 38 m 157 864 q 146 838 157 849 q 119 826 135 826 l -21 826 q -47 838 -36 826 q -58 864 -58 849 l -58 1004 q -47 1031 -58 1019 q -21 1042 -36 1042 l 119 1042 q 146 1031 135 1042 q 157 1004 157 1019 l 157 864 m 469 864 q 458 838 469 849 q 432 826 447 826 l 292 826 q 265 838 276 826 q 254 864 254 849 l 254 1004 q 265 1031 254 1019 q 292 1042 276 1042 l 432 1042 q 458 1031 447 1042 q 469 1004 469 1019 l 469 864 z "},"ì":{"ha":411,"x_min":-83,"x_max":331,"o":"m 331 38 q 319 11 331 22 q 293 0 308 0 l 118 0 q 92 11 103 0 q 81 38 81 22 l 81 685 q 92 711 81 700 q 118 722 103 722 l 293 722 q 319 711 308 722 q 331 685 331 700 l 331 38 m 307 867 q 314 849 314 860 q 292 826 314 826 l 169 826 q 135 833 147 826 q 111 850 122 840 l -76 1004 q -83 1021 -83 1011 q -57 1049 -83 1049 l 128 1049 q 153 1044 143 1049 q 179 1022 164 1040 l 307 867 z "},"ī":{"ha":411,"x_min":-32,"x_max":444,"o":"m 331 38 q 319 11 331 22 q 293 0 308 0 l 118 0 q 92 11 103 0 q 81 38 81 22 l 81 685 q 92 711 81 700 q 118 722 103 722 l 293 722 q 319 711 308 722 q 331 685 331 700 l 331 38 m 6 826 q -21 838 -10 826 q -32 864 -32 849 l -32 983 q -21 1010 -32 999 q 6 1021 -10 1021 l 407 1021 q 433 1010 422 1021 q 444 983 444 999 l 444 864 q 433 838 444 849 q 407 826 422 826 l 6 826 z "},"į":{"ha":413,"x_min":50,"x_max":332,"o":"m 332 38 q 321 11 332 22 q 294 0 310 0 l 281 0 q 225 -23 244 0 q 206 -78 206 -46 q 225 -133 206 -110 q 281 -156 244 -156 l 301 -156 q 332 -186 332 -156 l 332 -275 q 301 -306 332 -306 l 275 -306 q 181 -288 222 -306 q 110 -241 139 -271 q 65 -169 81 -211 q 50 -78 50 -128 q 82 49 50 -7 l 82 685 q 93 711 82 700 q 119 722 104 722 l 294 722 q 321 711 310 722 q 332 685 332 700 l 332 38 m 332 836 q 321 810 332 821 q 294 799 310 799 l 119 799 q 93 810 104 799 q 82 836 82 821 l 82 976 q 93 1003 82 992 q 119 1014 104 1014 l 294 1014 q 321 1003 310 1014 q 332 976 332 992 l 332 836 z "},"ĩ":{"ha":411,"x_min":-40,"x_max":525,"o":"m 343 789 q 293 797 315 789 q 251 815 271 806 q 213 832 231 824 q 179 840 196 840 q 139 828 147 840 q 124 806 131 817 q 103 793 117 793 l -14 793 q -33 800 -25 793 q -40 818 -40 807 q -31 876 -40 842 q -1 944 -22 911 q 54 999 19 976 q 142 1022 89 1022 q 197 1014 174 1022 q 238 997 219 1006 q 273 979 257 988 q 306 971 289 971 q 345 983 336 971 q 361 1006 354 996 q 382 1018 368 1018 l 499 1018 q 518 1010 511 1018 q 525 992 525 1003 q 516 927 525 963 q 485 861 507 892 q 429 810 464 831 q 343 789 394 789 m 331 38 q 319 11 331 22 q 293 0 308 0 l 118 0 q 92 11 103 0 q 81 38 81 22 l 81 685 q 92 711 81 700 q 118 722 103 722 l 293 722 q 319 711 308 722 q 331 685 331 700 l 331 38 z "},"ı":{"ha":411,"x_min":81,"x_max":331,"o":"m 331 38 q 319 11 331 22 q 293 0 308 0 l 118 0 q 92 11 103 0 q 81 38 81 22 l 81 685 q 92 711 81 700 q 118 722 103 722 l 293 722 q 319 711 308 722 q 331 685 331 700 l 331 38 z "},"j":{"ha":426,"x_min":-57,"x_max":346,"o":"m 346 836 q 335 810 346 821 q 308 799 324 799 l 133 799 q 107 810 118 799 q 96 836 96 821 l 96 976 q 107 1003 96 992 q 133 1014 118 1014 l 308 1014 q 335 1003 324 1014 q 346 976 346 992 l 346 836 m 96 685 q 107 711 96 700 q 133 722 118 722 l 308 722 q 335 711 324 722 q 346 685 346 700 l 346 11 q 324 -104 346 -53 q 263 -191 303 -156 q 169 -245 224 -226 q 50 -264 115 -264 l -19 -264 q -46 -253 -35 -264 q -57 -226 -57 -242 l -57 -93 q -46 -63 -57 -78 q -19 -49 -35 -49 l 36 -49 q 83 -28 69 -49 q 96 18 96 -8 l 96 685 z "},"ĵ":{"ha":496,"x_min":-24,"x_max":499,"o":"m 165 507 l 64 507 q 38 518 49 507 q 26 544 26 529 l 26 685 q 38 711 26 700 q 64 722 49 722 l 378 722 q 404 711 393 722 q 415 685 415 700 l 415 11 q 394 -104 415 -53 q 333 -191 372 -156 q 239 -245 293 -226 q 119 -264 185 -264 l 50 -264 q 24 -253 35 -264 q 13 -226 13 -242 l 13 -93 q 24 -63 13 -78 q 50 -49 35 -49 l 106 -49 q 152 -28 139 -49 q 165 18 165 -8 l 165 507 m 299 1049 q 325 1043 314 1049 q 350 1022 336 1038 l 492 867 q 499 849 499 860 q 476 826 499 826 l 383 826 q 361 831 369 826 q 340 842 353 835 l 238 901 l 135 842 q 114 831 122 835 q 92 826 106 826 l -1 826 q -24 849 -24 826 q -17 867 -24 860 l 125 1022 q 150 1043 139 1038 q 176 1049 161 1049 l 299 1049 z "},"ȷ":{"ha":496,"x_min":13,"x_max":415,"o":"m 165 507 l 64 507 q 38 518 49 507 q 26 544 26 529 l 26 685 q 38 711 26 700 q 64 722 49 722 l 378 722 q 404 711 393 722 q 415 685 415 700 l 415 11 q 394 -104 415 -53 q 333 -191 372 -156 q 239 -245 293 -226 q 119 -264 185 -264 l 50 -264 q 24 -253 35 -264 q 13 -226 13 -242 l 13 -93 q 24 -63 13 -78 q 50 -49 35 -49 l 106 -49 q 152 -28 139 -49 q 165 18 165 -8 l 165 507 z "},"k":{"ha":849,"x_min":81,"x_max":849,"o":"m 331 499 l 514 699 q 535 714 521 706 q 568 722 549 722 l 772 722 q 796 713 786 722 q 806 689 806 703 q 803 677 806 682 q 790 661 801 672 l 543 386 l 835 60 q 846 45 843 50 q 849 33 849 40 q 839 10 849 19 q 815 0 829 0 l 608 0 q 574 6 588 0 q 551 24 561 13 l 331 272 l 331 38 q 319 11 331 22 q 293 0 308 0 l 118 0 q 92 11 103 0 q 81 38 81 22 l 81 949 q 92 975 81 964 q 118 986 103 986 l 293 986 q 319 975 308 986 q 331 949 331 964 l 331 499 z "},"ķ":{"ha":849,"x_min":81,"x_max":849,"o":"m 331 499 l 514 699 q 535 714 521 706 q 568 722 549 722 l 772 722 q 796 713 786 722 q 806 689 806 703 q 803 677 806 682 q 790 661 801 672 l 543 386 l 835 60 q 846 45 843 50 q 849 33 849 40 q 839 10 849 19 q 815 0 829 0 l 608 0 q 574 6 588 0 q 551 24 561 13 l 331 272 l 331 38 q 319 11 331 22 q 293 0 308 0 l 118 0 q 92 11 103 0 q 81 38 81 22 l 81 949 q 92 975 81 964 q 118 986 103 986 l 293 986 q 319 975 308 986 q 331 949 331 964 l 331 499 m 303 -124 q 320 -87 306 -104 q 363 -69 335 -69 l 522 -69 q 544 -78 535 -69 q 553 -100 553 -87 q 551 -110 553 -106 l 475 -303 q 456 -332 469 -317 q 415 -347 443 -347 l 303 -347 q 281 -338 290 -347 q 272 -317 272 -329 l 272 -314 l 303 -124 z "},"ĸ":{"ha":843,"x_min":81,"x_max":838,"o":"m 331 485 l 524 699 q 544 714 531 706 q 578 722 558 722 l 776 722 q 800 713 790 722 q 810 689 810 703 q 808 677 810 682 q 794 661 806 672 l 542 368 l 824 60 q 835 45 832 50 q 838 33 838 40 q 828 10 838 19 q 804 0 818 0 l 596 0 q 562 6 575 0 q 539 24 549 13 l 331 251 l 331 38 q 319 11 331 22 q 293 0 308 0 l 118 0 q 92 11 103 0 q 81 38 81 22 l 81 685 q 92 711 81 700 q 118 722 103 722 l 293 722 q 319 711 308 722 q 331 685 331 700 l 331 485 z "},"l":{"ha":411,"x_min":81,"x_max":331,"o":"m 331 38 q 319 11 331 22 q 293 0 308 0 l 118 0 q 92 11 103 0 q 81 38 81 22 l 81 949 q 92 975 81 964 q 118 986 103 986 l 293 986 q 319 975 308 986 q 331 949 331 964 l 331 38 z "},"ĺ":{"ha":411,"x_min":81,"x_max":499,"o":"m 331 38 q 319 11 331 22 q 293 0 308 0 l 118 0 q 92 11 103 0 q 81 38 81 22 l 81 949 q 92 975 81 964 q 118 986 103 986 l 293 986 q 319 975 308 986 q 331 949 331 964 l 331 38 m 236 1238 q 262 1260 251 1256 q 288 1264 272 1264 l 472 1264 q 499 1236 499 1264 q 492 1219 499 1226 l 304 1065 q 281 1049 293 1056 q 246 1042 268 1042 l 124 1042 q 101 1064 101 1042 q 108 1082 101 1075 l 236 1238 z "},"ľ":{"ha":571,"x_min":81,"x_max":686,"o":"m 331 38 q 319 11 331 22 q 293 0 308 0 l 118 0 q 92 11 103 0 q 81 38 81 22 l 81 949 q 92 975 81 964 q 118 986 103 986 l 293 986 q 319 975 308 986 q 331 949 331 964 l 331 38 m 436 933 q 453 970 439 953 q 496 988 468 988 l 656 988 q 677 978 668 988 q 686 957 686 969 q 685 947 686 951 l 608 754 q 590 725 603 740 q 549 710 576 710 l 436 710 q 415 719 424 710 q 406 740 406 728 l 406 743 l 436 933 z "},"ļ":{"ha":411,"x_min":46,"x_max":331,"o":"m 331 38 q 319 11 331 22 q 293 0 308 0 l 118 0 q 92 11 103 0 q 81 38 81 22 l 81 949 q 92 975 81 964 q 118 986 103 986 l 293 986 q 319 975 308 986 q 331 949 331 964 l 331 38 m 76 -124 q 94 -87 79 -104 q 136 -69 108 -69 l 296 -69 q 317 -78 308 -69 q 326 -100 326 -87 q 325 -110 326 -106 l 249 -303 q 230 -332 243 -317 q 189 -347 217 -347 l 76 -347 q 55 -338 64 -347 q 46 -317 46 -329 l 46 -314 l 76 -124 z "},"ŀ":{"ha":618,"x_min":81,"x_max":629,"o":"m 331 38 q 319 11 331 22 q 293 0 308 0 l 118 0 q 92 11 103 0 q 81 38 81 22 l 81 949 q 92 975 81 964 q 118 986 103 986 l 293 986 q 319 975 308 986 q 331 949 331 964 l 331 38 m 629 422 q 618 396 629 407 q 592 385 607 385 l 438 385 q 411 396 422 385 q 400 422 400 407 l 400 576 q 411 603 400 592 q 438 614 422 614 l 592 614 q 618 603 607 614 q 629 576 629 592 l 629 422 z "},"ł":{"ha":460,"x_min":21,"x_max":438,"o":"m 104 522 l 104 949 q 115 975 104 964 q 142 986 126 986 l 317 986 q 343 975 332 986 q 354 949 354 964 l 354 621 l 393 636 q 408 640 403 640 q 429 632 421 640 q 438 611 438 624 l 438 531 q 407 485 438 496 l 354 464 l 354 38 q 343 11 354 22 q 317 0 332 0 l 142 0 q 115 11 126 0 q 104 38 104 22 l 104 365 l 65 350 q 50 346 54 346 q 29 354 38 346 q 21 375 21 363 l 21 456 q 51 501 21 490 l 104 522 z "},"m":{"ha":1293,"x_min":81,"x_max":1219,"o":"m 1219 38 q 1208 11 1219 22 q 1182 0 1197 0 l 1014 0 q 988 11 999 0 q 976 38 976 22 l 976 393 q 951 492 976 463 q 875 521 925 521 q 801 492 826 521 q 775 393 775 463 l 775 38 q 764 11 775 22 q 738 0 753 0 l 569 0 q 543 11 554 0 q 532 38 532 22 l 532 393 q 506 492 532 463 q 431 521 481 521 q 356 492 382 521 q 331 397 331 464 l 331 38 q 319 11 331 22 q 293 0 308 0 l 118 0 q 92 11 103 0 q 81 38 81 22 l 81 685 q 92 711 81 700 q 118 722 103 722 l 286 722 q 313 711 301 722 q 324 685 324 700 l 324 653 q 398 714 354 692 q 500 736 442 736 q 628 710 571 736 q 722 628 686 683 q 820 708 763 681 q 944 736 878 736 q 1055 717 1004 736 q 1142 660 1106 699 q 1199 561 1179 621 q 1219 419 1219 501 l 1219 38 z "},"n":{"ha":894,"x_min":81,"x_max":821,"o":"m 821 38 q 810 11 821 22 q 783 0 799 0 l 608 0 q 582 11 593 0 q 571 38 571 22 l 571 389 q 542 485 571 449 q 450 521 513 521 q 359 485 388 521 q 331 389 331 449 l 331 38 q 319 11 331 22 q 293 0 308 0 l 118 0 q 92 11 103 0 q 81 38 81 22 l 81 685 q 92 711 81 700 q 118 722 103 722 l 286 722 q 313 711 301 722 q 324 685 324 700 l 324 653 q 351 682 335 667 q 392 709 368 697 q 447 728 415 721 q 519 736 478 736 q 642 717 586 736 q 737 660 697 699 q 799 561 776 621 q 821 419 821 501 l 821 38 z "},"ń":{"ha":894,"x_min":81,"x_max":821,"o":"m 821 38 q 810 11 821 22 q 783 0 799 0 l 608 0 q 582 11 593 0 q 571 38 571 22 l 571 389 q 542 485 571 449 q 450 521 513 521 q 359 485 388 521 q 331 389 331 449 l 331 38 q 319 11 331 22 q 293 0 308 0 l 118 0 q 92 11 103 0 q 81 38 81 22 l 81 685 q 92 711 81 700 q 118 722 103 722 l 286 722 q 313 711 301 722 q 324 685 324 700 l 324 653 q 351 682 335 667 q 392 709 368 697 q 447 728 415 721 q 519 736 478 736 q 642 717 586 736 q 737 660 697 699 q 799 561 776 621 q 821 419 821 501 l 821 38 m 488 1022 q 513 1044 503 1040 q 539 1049 524 1049 l 724 1049 q 750 1021 750 1049 q 743 1004 750 1011 l 556 850 q 532 833 544 840 q 497 826 519 826 l 375 826 q 353 849 353 826 q 360 867 353 860 l 488 1022 z "},"ŉ":{"ha":894,"x_min":81,"x_max":821,"o":"m 821 38 q 810 11 821 22 q 783 0 799 0 l 608 0 q 582 11 593 0 q 571 38 571 22 l 571 389 q 542 485 571 449 q 450 521 513 521 q 359 485 388 521 q 331 389 331 449 l 331 38 q 319 11 331 22 q 293 0 308 0 l 118 0 q 92 11 103 0 q 81 38 81 22 l 81 685 q 92 711 81 700 q 118 722 103 722 l 286 722 q 313 711 301 722 q 324 685 324 700 l 324 653 q 351 682 335 667 q 392 709 368 697 q 447 728 415 721 q 519 736 478 736 q 642 717 586 736 q 737 660 697 699 q 799 561 776 621 q 821 419 821 501 l 821 38 m 140 1050 q 158 1087 143 1069 q 200 1104 172 1104 l 360 1104 q 381 1095 372 1104 q 390 1074 390 1086 q 389 1064 390 1068 l 313 871 q 294 842 307 857 q 253 826 281 826 l 140 826 q 119 835 128 826 q 110 857 110 844 l 110 860 l 140 1050 z "},"ň":{"ha":894,"x_min":81,"x_max":821,"o":"m 821 38 q 810 11 821 22 q 783 0 799 0 l 608 0 q 582 11 593 0 q 571 38 571 22 l 571 389 q 542 485 571 449 q 450 521 513 521 q 359 485 388 521 q 331 389 331 449 l 331 38 q 319 11 331 22 q 293 0 308 0 l 118 0 q 92 11 103 0 q 81 38 81 22 l 81 685 q 92 711 81 700 q 118 722 103 722 l 286 722 q 313 711 301 722 q 324 685 324 700 l 324 653 q 351 682 335 667 q 392 709 368 697 q 447 728 415 721 q 519 736 478 736 q 642 717 586 736 q 737 660 697 699 q 799 561 776 621 q 821 419 821 501 l 821 38 m 389 826 q 363 832 374 826 q 338 853 351 838 l 196 1008 q 189 1026 189 1015 q 211 1049 189 1049 l 304 1049 q 326 1044 318 1049 q 347 1033 335 1040 l 450 974 l 553 1033 q 574 1044 565 1040 q 596 1049 582 1049 l 689 1049 q 711 1026 711 1049 q 704 1008 711 1015 l 563 853 q 538 832 549 838 q 511 826 526 826 l 389 826 z "},"ņ":{"ha":894,"x_min":81,"x_max":821,"o":"m 821 38 q 810 11 821 22 q 783 0 799 0 l 608 0 q 582 11 593 0 q 571 38 571 22 l 571 389 q 542 485 571 449 q 450 521 513 521 q 359 485 388 521 q 331 389 331 449 l 331 38 q 319 11 331 22 q 293 0 308 0 l 118 0 q 92 11 103 0 q 81 38 81 22 l 81 685 q 92 711 81 700 q 118 722 103 722 l 286 722 q 313 711 301 722 q 324 685 324 700 l 324 653 q 351 682 335 667 q 392 709 368 697 q 447 728 415 721 q 519 736 478 736 q 642 717 586 736 q 737 660 697 699 q 799 561 776 621 q 821 419 821 501 l 821 38 m 322 -124 q 340 -87 325 -104 q 382 -69 354 -69 l 542 -69 q 563 -78 554 -69 q 572 -100 572 -87 q 571 -110 572 -106 l 494 -303 q 476 -332 489 -317 q 435 -347 463 -347 l 322 -347 q 301 -338 310 -347 q 292 -317 292 -329 l 292 -314 l 322 -124 z "},"ñ":{"ha":894,"x_min":81,"x_max":821,"o":"m 821 38 q 810 11 821 22 q 783 0 799 0 l 608 0 q 582 11 593 0 q 571 38 571 22 l 571 389 q 542 485 571 449 q 450 521 513 521 q 359 485 388 521 q 331 389 331 449 l 331 38 q 319 11 331 22 q 293 0 308 0 l 118 0 q 92 11 103 0 q 81 38 81 22 l 81 685 q 92 711 81 700 q 118 722 103 722 l 286 722 q 313 711 301 722 q 324 685 324 700 l 324 653 q 351 682 335 667 q 392 709 368 697 q 447 728 415 721 q 519 736 478 736 q 642 717 586 736 q 737 660 697 699 q 799 561 776 621 q 821 419 821 501 l 821 38 m 564 819 q 497 829 522 819 q 453 851 472 839 q 419 872 435 863 q 381 882 403 882 q 356 873 364 882 q 341 853 347 864 q 329 835 335 843 q 313 826 324 826 l 207 826 q 188 834 194 826 q 181 853 181 842 q 190 917 181 883 q 218 978 199 951 q 267 1024 238 1006 q 336 1042 296 1042 q 403 1032 378 1042 q 447 1010 428 1022 q 481 989 465 999 q 519 979 497 979 q 544 988 536 979 q 559 1006 553 996 q 571 1026 565 1017 q 588 1035 576 1035 l 693 1035 q 713 1027 706 1035 q 719 1008 719 1019 q 708 943 719 976 q 676 883 697 910 q 627 838 656 856 q 564 819 599 819 z "},"o":{"ha":856,"x_min":49,"x_max":807,"o":"m 806 414 q 807 360 807 393 q 806 307 807 328 q 775 182 803 240 q 699 80 747 124 q 581 11 650 36 q 428 -14 513 -14 q 274 11 343 -14 q 157 80 206 36 q 81 182 108 124 q 50 307 53 240 q 49 360 49 328 q 50 414 49 393 q 79 539 51 481 q 156 641 107 597 q 274 710 206 685 q 428 736 343 736 q 581 710 513 736 q 699 641 650 685 q 776 539 749 597 q 806 414 803 481 m 300 314 q 338 231 304 261 q 428 201 372 201 q 517 231 483 201 q 556 314 551 261 q 558 361 558 335 q 556 408 558 388 q 517 491 551 461 q 428 521 483 521 q 338 491 372 521 q 300 408 304 461 q 297 361 297 388 q 300 314 297 335 z "},"ó":{"ha":856,"x_min":49,"x_max":807,"o":"m 806 414 q 807 360 807 393 q 806 307 807 328 q 775 182 803 240 q 699 80 747 124 q 581 11 650 36 q 428 -14 513 -14 q 274 11 343 -14 q 157 80 206 36 q 81 182 108 124 q 50 307 53 240 q 49 360 49 328 q 50 414 49 393 q 79 539 51 481 q 156 641 107 597 q 274 710 206 685 q 428 736 343 736 q 581 710 513 736 q 699 641 650 685 q 776 539 749 597 q 806 414 803 481 m 300 314 q 338 231 304 261 q 428 201 372 201 q 517 231 483 201 q 556 314 551 261 q 558 361 558 335 q 556 408 558 388 q 517 491 551 461 q 428 521 483 521 q 338 491 372 521 q 300 408 304 461 q 297 361 297 388 q 300 314 297 335 m 460 1022 q 485 1044 475 1040 q 511 1049 496 1049 l 696 1049 q 722 1021 722 1049 q 715 1004 722 1011 l 528 850 q 504 833 517 840 q 469 826 492 826 l 347 826 q 325 849 325 826 q 332 867 325 860 l 460 1022 z "},"ŏ":{"ha":856,"x_min":49,"x_max":807,"o":"m 806 414 q 807 360 807 393 q 806 307 807 328 q 775 182 803 240 q 699 80 747 124 q 581 11 650 36 q 428 -14 513 -14 q 274 11 343 -14 q 157 80 206 36 q 81 182 108 124 q 50 307 53 240 q 49 360 49 328 q 50 414 49 393 q 79 539 51 481 q 156 641 107 597 q 274 710 206 685 q 428 736 343 736 q 581 710 513 736 q 699 641 650 685 q 776 539 749 597 q 806 414 803 481 m 300 314 q 338 231 304 261 q 428 201 372 201 q 517 231 483 201 q 556 314 551 261 q 558 361 558 335 q 556 408 558 388 q 517 491 551 461 q 428 521 483 521 q 338 491 372 521 q 300 408 304 461 q 297 361 297 388 q 300 314 297 335 m 428 819 q 320 838 364 819 q 250 887 276 857 q 212 953 224 917 q 200 1022 200 989 q 207 1041 200 1033 q 226 1049 214 1049 l 343 1049 q 363 1041 356 1049 q 369 1022 369 1033 q 384 974 369 996 q 428 953 399 953 q 472 974 457 953 q 486 1022 486 996 q 493 1041 486 1033 q 513 1049 500 1049 l 629 1049 q 649 1041 642 1049 q 656 1022 656 1033 q 644 953 656 989 q 606 887 632 917 q 535 838 579 857 q 428 819 492 819 z "},"ô":{"ha":856,"x_min":49,"x_max":807,"o":"m 806 414 q 807 360 807 393 q 806 307 807 328 q 775 182 803 240 q 699 80 747 124 q 581 11 650 36 q 428 -14 513 -14 q 274 11 343 -14 q 157 80 206 36 q 81 182 108 124 q 50 307 53 240 q 49 360 49 328 q 50 414 49 393 q 79 539 51 481 q 156 641 107 597 q 274 710 206 685 q 428 736 343 736 q 581 710 513 736 q 699 641 650 685 q 776 539 749 597 q 806 414 803 481 m 300 314 q 338 231 304 261 q 428 201 372 201 q 517 231 483 201 q 556 314 551 261 q 558 361 558 335 q 556 408 558 388 q 517 491 551 461 q 428 521 483 521 q 338 491 372 521 q 300 408 304 461 q 297 361 297 388 q 300 314 297 335 m 489 1049 q 515 1043 504 1049 q 540 1022 526 1038 l 682 867 q 689 849 689 860 q 667 826 689 826 l 574 826 q 551 831 560 826 q 531 842 543 835 l 428 901 l 325 842 q 304 831 313 835 q 282 826 296 826 l 189 826 q 167 849 167 826 q 174 867 167 860 l 315 1022 q 340 1043 329 1038 q 367 1049 351 1049 l 489 1049 z "},"ö":{"ha":856,"x_min":49,"x_max":807,"o":"m 806 414 q 807 360 807 393 q 806 307 807 328 q 775 182 803 240 q 699 80 747 124 q 581 11 650 36 q 428 -14 513 -14 q 274 11 343 -14 q 157 80 206 36 q 81 182 108 124 q 50 307 53 240 q 49 360 49 328 q 50 414 49 393 q 79 539 51 481 q 156 641 107 597 q 274 710 206 685 q 428 736 343 736 q 581 710 513 736 q 699 641 650 685 q 776 539 749 597 q 806 414 803 481 m 300 314 q 338 231 304 261 q 428 201 372 201 q 517 231 483 201 q 556 314 551 261 q 558 361 558 335 q 556 408 558 388 q 517 491 551 461 q 428 521 483 521 q 338 491 372 521 q 300 408 304 461 q 297 361 297 388 q 300 314 297 335 m 379 864 q 368 838 379 849 q 342 826 357 826 l 201 826 q 175 838 186 826 q 164 864 164 849 l 164 1004 q 175 1031 164 1019 q 201 1042 186 1042 l 342 1042 q 368 1031 357 1042 q 379 1004 379 1019 l 379 864 m 692 864 q 681 838 692 849 q 654 826 669 826 l 514 826 q 488 838 499 826 q 476 864 476 849 l 476 1004 q 488 1031 476 1019 q 514 1042 499 1042 l 654 1042 q 681 1031 669 1042 q 692 1004 692 1019 l 692 864 z "},"ò":{"ha":856,"x_min":49,"x_max":807,"o":"m 806 414 q 807 360 807 393 q 806 307 807 328 q 775 182 803 240 q 699 80 747 124 q 581 11 650 36 q 428 -14 513 -14 q 274 11 343 -14 q 157 80 206 36 q 81 182 108 124 q 50 307 53 240 q 49 360 49 328 q 50 414 49 393 q 79 539 51 481 q 156 641 107 597 q 274 710 206 685 q 428 736 343 736 q 581 710 513 736 q 699 641 650 685 q 776 539 749 597 q 806 414 803 481 m 300 314 q 338 231 304 261 q 428 201 372 201 q 517 231 483 201 q 556 314 551 261 q 558 361 558 335 q 556 408 558 388 q 517 491 551 461 q 428 521 483 521 q 338 491 372 521 q 300 408 304 461 q 297 361 297 388 q 300 314 297 335 m 532 867 q 539 849 539 860 q 517 826 539 826 l 394 826 q 360 833 372 826 q 336 850 347 840 l 149 1004 q 142 1021 142 1011 q 168 1049 142 1049 l 353 1049 q 378 1044 368 1049 q 404 1022 389 1040 l 532 867 z "},"ő":{"ha":856,"x_min":49,"x_max":807,"o":"m 806 414 q 807 360 807 393 q 806 307 807 328 q 775 182 803 240 q 699 80 747 124 q 581 11 650 36 q 428 -14 513 -14 q 274 11 343 -14 q 157 80 206 36 q 81 182 108 124 q 50 307 53 240 q 49 360 49 328 q 50 414 49 393 q 79 539 51 481 q 156 641 107 597 q 274 710 206 685 q 428 736 343 736 q 581 710 513 736 q 699 641 650 685 q 776 539 749 597 q 806 414 803 481 m 300 314 q 338 231 304 261 q 428 201 372 201 q 517 231 483 201 q 556 314 551 261 q 558 361 558 335 q 556 408 558 388 q 517 491 551 461 q 428 521 483 521 q 338 491 372 521 q 300 408 304 461 q 297 361 297 388 q 300 314 297 335 m 264 1022 q 282 1042 271 1036 q 315 1049 293 1049 l 471 1049 q 499 1022 499 1049 q 490 1004 499 1013 l 344 846 q 297 826 328 826 l 210 826 q 188 849 188 826 q 190 860 188 854 q 194 869 192 865 l 264 1022 m 569 1022 q 588 1042 576 1036 q 621 1049 599 1049 l 776 1049 q 804 1022 804 1049 q 796 1004 804 1013 l 650 846 q 603 826 633 826 l 515 826 q 493 849 493 826 q 495 860 493 854 q 500 869 497 865 l 569 1022 z "},"ō":{"ha":856,"x_min":49,"x_max":807,"o":"m 806 414 q 807 360 807 393 q 806 307 807 328 q 775 182 803 240 q 699 80 747 124 q 581 11 650 36 q 428 -14 513 -14 q 274 11 343 -14 q 157 80 206 36 q 81 182 108 124 q 50 307 53 240 q 49 360 49 328 q 50 414 49 393 q 79 539 51 481 q 156 641 107 597 q 274 710 206 685 q 428 736 343 736 q 581 710 513 736 q 699 641 650 685 q 776 539 749 597 q 806 414 803 481 m 300 314 q 338 231 304 261 q 428 201 372 201 q 517 231 483 201 q 556 314 551 261 q 558 361 558 335 q 556 408 558 388 q 517 491 551 461 q 428 521 483 521 q 338 491 372 521 q 300 408 304 461 q 297 361 297 388 q 300 314 297 335 m 228 826 q 201 838 213 826 q 190 864 190 849 l 190 983 q 201 1010 190 999 q 228 1021 213 1021 l 629 1021 q 656 1010 644 1021 q 667 983 667 999 l 667 864 q 656 838 667 849 q 629 826 644 826 l 228 826 z "},"ø":{"ha":908,"x_min":13,"x_max":896,"o":"m 76 294 l 76 307 q 75 360 75 328 q 76 414 75 393 q 106 539 78 481 q 183 641 133 597 q 301 710 232 685 q 454 736 369 736 q 656 690 571 736 q 786 568 742 643 l 851 593 q 867 597 861 597 q 888 589 879 597 q 896 568 896 581 l 896 488 q 865 442 896 453 l 831 428 q 832 414 832 424 q 833 360 833 393 q 832 307 833 328 q 801 182 829 240 q 725 80 774 124 q 608 11 676 36 q 454 -14 539 -14 q 251 33 336 -14 q 121 156 165 79 l 57 131 q 42 126 46 126 q 21 135 29 126 q 13 156 13 143 l 13 236 q 43 282 13 271 l 76 294 m 554 479 q 454 521 519 521 q 363 489 399 521 q 325 390 326 457 l 554 479 m 351 244 q 454 201 386 201 q 547 234 510 201 q 583 333 583 267 l 351 244 z "},"ǿ":{"ha":908,"x_min":13,"x_max":896,"o":"m 481 1022 q 506 1044 496 1040 q 532 1049 517 1049 l 717 1049 q 743 1021 743 1049 q 736 1004 743 1011 l 549 850 q 525 833 538 840 q 490 826 513 826 l 368 826 q 346 849 346 826 q 353 867 346 860 l 481 1022 m 76 294 l 76 307 q 75 360 75 328 q 76 414 75 393 q 106 539 78 481 q 183 641 133 597 q 301 710 232 685 q 454 736 369 736 q 656 690 571 736 q 786 568 742 643 l 851 593 q 867 597 861 597 q 888 589 879 597 q 896 568 896 581 l 896 488 q 865 442 896 453 l 831 428 q 832 414 832 424 q 833 360 833 393 q 832 307 833 328 q 801 182 829 240 q 725 80 774 124 q 608 11 676 36 q 454 -14 539 -14 q 251 33 336 -14 q 121 156 165 79 l 57 131 q 42 126 46 126 q 21 135 29 126 q 13 156 13 143 l 13 236 q 43 282 13 271 l 76 294 m 554 479 q 454 521 519 521 q 363 489 399 521 q 325 390 326 457 l 554 479 m 351 244 q 454 201 386 201 q 547 234 510 201 q 583 333 583 267 l 351 244 z "},"õ":{"ha":856,"x_min":49,"x_max":807,"o":"m 806 414 q 807 360 807 393 q 806 307 807 328 q 775 182 803 240 q 699 80 747 124 q 581 11 650 36 q 428 -14 513 -14 q 274 11 343 -14 q 157 80 206 36 q 81 182 108 124 q 50 307 53 240 q 49 360 49 328 q 50 414 49 393 q 79 539 51 481 q 156 641 107 597 q 274 710 206 685 q 428 736 343 736 q 581 710 513 736 q 699 641 650 685 q 776 539 749 597 q 806 414 803 481 m 300 314 q 338 231 304 261 q 428 201 372 201 q 517 231 483 201 q 556 314 551 261 q 558 361 558 335 q 556 408 558 388 q 517 491 551 461 q 428 521 483 521 q 338 491 372 521 q 300 408 304 461 q 297 361 297 388 q 300 314 297 335 m 542 819 q 475 829 500 819 q 431 851 450 839 q 397 872 413 863 q 358 882 381 882 q 333 873 342 882 q 319 853 325 864 q 307 835 313 843 q 290 826 301 826 l 185 826 q 165 834 172 826 q 158 853 158 842 q 167 917 158 883 q 196 978 176 951 q 244 1024 215 1006 q 314 1042 274 1042 q 381 1032 356 1042 q 424 1010 406 1022 q 459 989 443 999 q 497 979 475 979 q 522 988 514 979 q 537 1006 531 996 q 549 1026 543 1017 q 565 1035 554 1035 l 671 1035 q 690 1027 683 1035 q 697 1008 697 1019 q 686 943 697 976 q 654 883 675 910 q 605 838 633 856 q 542 819 576 819 z "},"œ":{"ha":1354,"x_min":49,"x_max":1308,"o":"m 808 282 q 820 229 808 250 q 850 196 832 208 q 890 178 868 183 q 933 174 913 174 q 999 182 975 174 q 1040 206 1024 190 q 1063 222 1056 218 q 1086 225 1069 225 l 1267 225 q 1297 194 1297 225 q 1276 144 1297 178 q 1212 74 1256 110 q 1099 13 1168 39 q 933 -14 1029 -14 q 790 6 853 -14 q 679 64 726 26 q 568 7 631 28 q 428 -14 506 -14 q 274 11 343 -14 q 157 80 206 36 q 81 182 108 124 q 50 307 53 240 q 49 360 49 328 q 50 414 49 393 q 79 539 51 481 q 156 641 107 597 q 274 710 206 685 q 428 736 343 736 q 569 715 506 736 q 682 656 633 693 q 792 715 729 694 q 933 736 854 736 q 1106 702 1035 736 q 1223 614 1178 668 q 1288 492 1268 560 q 1308 358 1308 425 l 1308 319 q 1297 293 1308 304 q 1271 282 1286 282 l 808 282 m 300 314 q 338 231 304 261 q 428 201 372 201 q 517 231 483 201 q 556 314 551 261 q 558 361 558 335 q 556 408 558 388 q 517 491 551 461 q 428 521 483 521 q 338 491 372 521 q 300 408 304 461 q 297 361 297 388 q 300 314 297 335 m 933 549 q 844 514 875 549 q 808 436 814 479 l 1058 436 q 1022 514 1053 479 q 933 549 992 549 z "},"p":{"ha":881,"x_min":81,"x_max":829,"o":"m 517 -14 q 446 -6 476 -14 q 393 15 415 3 q 356 42 371 28 q 331 69 340 57 l 331 -226 q 319 -253 331 -242 q 293 -264 308 -264 l 118 -264 q 92 -253 103 -264 q 81 -226 81 -242 l 81 685 q 92 711 81 700 q 118 722 103 722 l 286 722 q 313 711 301 722 q 324 685 324 700 l 324 653 q 351 682 336 667 q 387 709 365 697 q 440 728 408 721 q 517 736 471 736 q 635 717 579 736 q 732 659 690 699 q 799 560 774 619 q 828 418 825 500 q 829 362 829 397 q 828 306 829 326 q 799 164 825 224 q 732 65 774 104 q 635 6 690 25 q 517 -14 579 -14 m 579 322 q 579 400 583 361 q 547 485 575 449 q 454 521 519 521 q 401 511 424 521 q 365 485 379 501 q 342 450 350 469 q 331 410 333 431 q 328 361 328 389 q 331 313 328 333 q 342 272 333 292 q 365 237 350 253 q 401 211 379 221 q 454 201 424 201 q 547 238 519 201 q 579 322 575 274 z "},"q":{"ha":881,"x_min":51,"x_max":800,"o":"m 364 -14 q 246 6 301 -14 q 149 65 190 25 q 81 164 107 104 q 53 306 56 224 q 51 362 51 326 q 53 418 51 397 q 81 560 56 500 q 149 659 107 619 q 246 717 190 699 q 364 736 301 736 q 441 728 410 736 q 494 709 472 721 q 530 682 515 697 q 557 653 544 667 l 557 685 q 568 711 557 700 q 594 722 579 722 l 763 722 q 789 711 778 722 q 800 685 800 700 l 800 -226 q 789 -253 800 -242 q 763 -264 778 -264 l 588 -264 q 561 -253 572 -264 q 550 -226 550 -242 l 550 69 q 525 42 540 57 q 488 15 510 28 q 435 -6 465 3 q 364 -14 404 -14 m 301 322 q 333 238 306 274 q 426 201 361 201 q 479 211 457 201 q 516 237 501 221 q 539 272 531 253 q 550 313 547 292 q 553 361 553 333 q 550 410 553 389 q 539 450 547 431 q 516 485 531 469 q 479 511 501 501 q 426 521 457 521 q 333 485 361 521 q 301 400 306 449 q 301 322 297 361 z "},"r":{"ha":638,"x_min":81,"x_max":622,"o":"m 585 722 q 611 711 600 722 q 622 685 622 700 l 622 544 q 611 518 622 529 q 585 507 600 507 l 458 507 q 331 379 331 507 l 331 38 q 319 11 331 22 q 293 0 308 0 l 118 0 q 92 11 103 0 q 81 38 81 22 l 81 685 q 92 711 81 700 q 118 722 103 722 l 279 722 q 306 711 294 722 q 317 685 317 700 l 317 653 q 394 703 349 683 q 501 722 439 722 l 585 722 z "},"ŕ":{"ha":638,"x_min":81,"x_max":650,"o":"m 585 722 q 611 711 600 722 q 622 685 622 700 l 622 544 q 611 518 622 529 q 585 507 600 507 l 458 507 q 331 379 331 507 l 331 38 q 319 11 331 22 q 293 0 308 0 l 118 0 q 92 11 103 0 q 81 38 81 22 l 81 685 q 92 711 81 700 q 118 722 103 722 l 279 722 q 306 711 294 722 q 317 685 317 700 l 317 653 q 394 703 349 683 q 501 722 439 722 l 585 722 m 388 1022 q 413 1044 403 1040 q 439 1049 424 1049 l 624 1049 q 650 1021 650 1049 q 643 1004 650 1011 l 456 850 q 432 833 444 840 q 397 826 419 826 l 275 826 q 253 849 253 826 q 260 867 253 860 l 388 1022 z "},"ř":{"ha":638,"x_min":81,"x_max":622,"o":"m 585 722 q 611 711 600 722 q 622 685 622 700 l 622 544 q 611 518 622 529 q 585 507 600 507 l 458 507 q 331 379 331 507 l 331 38 q 319 11 331 22 q 293 0 308 0 l 118 0 q 92 11 103 0 q 81 38 81 22 l 81 685 q 92 711 81 700 q 118 722 103 722 l 279 722 q 306 711 294 722 q 317 685 317 700 l 317 653 q 394 703 349 683 q 501 722 439 722 l 585 722 m 290 826 q 264 832 275 826 q 239 853 253 838 l 97 1008 q 90 1026 90 1015 q 113 1049 90 1049 l 206 1049 q 228 1044 219 1049 q 249 1033 236 1040 l 351 974 l 454 1033 q 475 1044 467 1040 q 497 1049 483 1049 l 590 1049 q 613 1026 613 1049 q 606 1008 613 1015 l 464 853 q 439 832 450 838 q 413 826 428 826 l 290 826 z "},"ŗ":{"ha":638,"x_min":43,"x_max":622,"o":"m 585 722 q 611 711 600 722 q 622 685 622 700 l 622 544 q 611 518 622 529 q 585 507 600 507 l 458 507 q 331 379 331 507 l 331 38 q 319 11 331 22 q 293 0 308 0 l 118 0 q 92 11 103 0 q 81 38 81 22 l 81 685 q 92 711 81 700 q 118 722 103 722 l 279 722 q 306 711 294 722 q 317 685 317 700 l 317 653 q 394 703 349 683 q 501 722 439 722 l 585 722 m 74 -124 q 91 -87 76 -104 q 133 -69 106 -69 l 293 -69 q 315 -78 306 -69 q 324 -100 324 -87 q 322 -110 324 -106 l 246 -303 q 227 -332 240 -317 q 186 -347 214 -347 l 74 -347 q 52 -338 61 -347 q 43 -317 43 -329 l 43 -314 l 74 -124 z "},"s":{"ha":781,"x_min":40,"x_max":739,"o":"m 489 217 q 478 240 489 232 q 443 254 468 249 q 377 265 418 260 q 275 282 336 271 q 113 360 169 301 q 56 513 56 418 q 79 600 56 560 q 145 671 103 640 q 247 719 188 701 q 381 736 307 736 q 514 719 453 736 q 619 674 575 701 q 690 612 664 647 q 718 542 715 576 q 708 515 719 526 q 681 504 696 504 l 515 504 q 491 511 500 504 q 469 526 482 518 q 437 542 457 535 q 381 549 417 549 q 327 540 349 549 q 306 510 306 531 q 313 486 306 494 q 340 473 319 478 q 399 463 361 468 q 497 447 436 457 q 681 362 624 426 q 739 214 739 297 q 715 126 739 167 q 646 53 692 85 q 535 4 600 22 q 386 -14 469 -14 q 240 5 303 -14 q 133 53 176 24 q 67 117 90 82 q 42 185 44 151 q 52 211 40 200 q 79 222 64 222 l 251 222 q 274 215 267 222 q 292 198 281 207 q 324 181 303 189 q 386 174 344 174 q 458 185 428 174 q 489 217 489 196 z "},"ś":{"ha":781,"x_min":40,"x_max":739,"o":"m 489 217 q 478 240 489 232 q 443 254 468 249 q 377 265 418 260 q 275 282 336 271 q 113 360 169 301 q 56 513 56 418 q 79 600 56 560 q 145 671 103 640 q 247 719 188 701 q 381 736 307 736 q 514 719 453 736 q 619 674 575 701 q 690 612 664 647 q 718 542 715 576 q 708 515 719 526 q 681 504 696 504 l 515 504 q 491 511 500 504 q 469 526 482 518 q 437 542 457 535 q 381 549 417 549 q 327 540 349 549 q 306 510 306 531 q 313 486 306 494 q 340 473 319 478 q 399 463 361 468 q 497 447 436 457 q 681 362 624 426 q 739 214 739 297 q 715 126 739 167 q 646 53 692 85 q 535 4 600 22 q 386 -14 469 -14 q 240 5 303 -14 q 133 53 176 24 q 67 117 90 82 q 42 185 44 151 q 52 211 40 200 q 79 222 64 222 l 251 222 q 274 215 267 222 q 292 198 281 207 q 324 181 303 189 q 386 174 344 174 q 458 185 428 174 q 489 217 489 196 m 429 1022 q 455 1044 444 1040 q 481 1049 465 1049 l 665 1049 q 692 1021 692 1049 q 685 1004 692 1011 l 497 850 q 474 833 486 840 q 439 826 461 826 l 317 826 q 294 849 294 826 q 301 867 294 860 l 429 1022 z "},"š":{"ha":781,"x_min":40,"x_max":739,"o":"m 489 217 q 478 240 489 232 q 443 254 468 249 q 377 265 418 260 q 275 282 336 271 q 113 360 169 301 q 56 513 56 418 q 79 600 56 560 q 145 671 103 640 q 247 719 188 701 q 381 736 307 736 q 514 719 453 736 q 619 674 575 701 q 690 612 664 647 q 718 542 715 576 q 708 515 719 526 q 681 504 696 504 l 515 504 q 491 511 500 504 q 469 526 482 518 q 437 542 457 535 q 381 549 417 549 q 327 540 349 549 q 306 510 306 531 q 313 486 306 494 q 340 473 319 478 q 399 463 361 468 q 497 447 436 457 q 681 362 624 426 q 739 214 739 297 q 715 126 739 167 q 646 53 692 85 q 535 4 600 22 q 386 -14 469 -14 q 240 5 303 -14 q 133 53 176 24 q 67 117 90 82 q 42 185 44 151 q 52 211 40 200 q 79 222 64 222 l 251 222 q 274 215 267 222 q 292 198 281 207 q 324 181 303 189 q 386 174 344 174 q 458 185 428 174 q 489 217 489 196 m 325 826 q 299 832 310 826 q 274 853 288 838 l 132 1008 q 125 1026 125 1015 q 147 1049 125 1049 l 240 1049 q 263 1044 254 1049 q 283 1033 271 1040 l 386 974 l 489 1033 q 510 1044 501 1040 q 532 1049 518 1049 l 625 1049 q 647 1026 647 1049 q 640 1008 647 1015 l 499 853 q 474 832 485 838 q 447 826 463 826 l 325 826 z "},"ş":{"ha":781,"x_min":40,"x_max":739,"o":"m 489 217 q 478 240 489 232 q 443 254 468 249 q 377 265 418 260 q 275 282 336 271 q 113 360 169 301 q 56 513 56 418 q 79 600 56 560 q 145 671 103 640 q 247 719 188 701 q 381 736 307 736 q 514 719 453 736 q 619 674 575 701 q 690 612 664 647 q 718 542 715 576 q 708 515 719 526 q 681 504 696 504 l 515 504 q 491 511 500 504 q 469 526 482 518 q 437 542 457 535 q 381 549 417 549 q 327 540 349 549 q 306 510 306 531 q 313 486 306 494 q 340 473 319 478 q 399 463 361 468 q 497 447 436 457 q 681 362 624 426 q 739 214 739 297 q 715 126 739 167 q 647 53 692 85 q 538 4 603 22 q 392 -14 474 -14 l 363 -75 q 385 -65 371 -69 q 414 -61 399 -61 q 493 -97 467 -61 q 519 -183 519 -133 q 482 -269 519 -233 q 382 -306 444 -306 q 335 -299 360 -306 q 294 -281 311 -292 q 269 -258 276 -269 q 275 -235 263 -246 l 300 -212 q 319 -203 311 -203 q 334 -207 326 -203 q 353 -216 342 -211 q 382 -221 364 -221 q 415 -212 401 -221 q 428 -183 428 -204 q 415 -155 428 -164 q 382 -146 403 -146 q 362 -149 372 -146 q 342 -153 351 -151 q 323 -155 332 -156 q 307 -147 314 -154 l 282 -118 q 272 -99 274 -107 q 279 -72 269 -92 l 310 -8 q 196 20 244 0 q 114 67 147 40 q 63 125 81 94 q 42 185 44 156 q 52 211 40 200 q 79 222 64 222 l 251 222 q 274 215 267 222 q 292 198 281 207 q 324 181 303 189 q 386 174 344 174 q 458 185 428 174 q 489 217 489 196 z "},"ŝ":{"ha":781,"x_min":40,"x_max":739,"o":"m 489 217 q 478 240 489 232 q 443 254 468 249 q 377 265 418 260 q 275 282 336 271 q 113 360 169 301 q 56 513 56 418 q 79 600 56 560 q 145 671 103 640 q 247 719 188 701 q 381 736 307 736 q 514 719 453 736 q 619 674 575 701 q 690 612 664 647 q 718 542 715 576 q 708 515 719 526 q 681 504 696 504 l 515 504 q 491 511 500 504 q 469 526 482 518 q 437 542 457 535 q 381 549 417 549 q 327 540 349 549 q 306 510 306 531 q 313 486 306 494 q 340 473 319 478 q 399 463 361 468 q 497 447 436 457 q 681 362 624 426 q 739 214 739 297 q 715 126 739 167 q 646 53 692 85 q 535 4 600 22 q 386 -14 469 -14 q 240 5 303 -14 q 133 53 176 24 q 67 117 90 82 q 42 185 44 151 q 52 211 40 200 q 79 222 64 222 l 251 222 q 274 215 267 222 q 292 198 281 207 q 324 181 303 189 q 386 174 344 174 q 458 185 428 174 q 489 217 489 196 m 447 1049 q 474 1043 463 1049 q 499 1022 485 1038 l 640 867 q 647 849 647 860 q 625 826 647 826 l 532 826 q 510 831 518 826 q 489 842 501 835 l 386 901 l 283 842 q 263 831 271 835 q 240 826 254 826 l 147 826 q 125 849 125 826 q 132 867 125 860 l 274 1022 q 299 1043 288 1038 q 325 1049 310 1049 l 447 1049 z "},"ș":{"ha":781,"x_min":40,"x_max":739,"o":"m 489 217 q 478 240 489 232 q 443 254 468 249 q 377 265 418 260 q 275 282 336 271 q 113 360 169 301 q 56 513 56 418 q 79 600 56 560 q 145 671 103 640 q 247 719 188 701 q 381 736 307 736 q 514 719 453 736 q 619 674 575 701 q 690 612 664 647 q 718 542 715 576 q 708 515 719 526 q 681 504 696 504 l 515 504 q 491 511 500 504 q 469 526 482 518 q 437 542 457 535 q 381 549 417 549 q 327 540 349 549 q 306 510 306 531 q 313 486 306 494 q 340 473 319 478 q 399 463 361 468 q 497 447 436 457 q 681 362 624 426 q 739 214 739 297 q 715 126 739 167 q 646 53 692 85 q 535 4 600 22 q 386 -14 469 -14 q 240 5 303 -14 q 133 53 176 24 q 67 117 90 82 q 42 185 44 151 q 52 211 40 200 q 79 222 64 222 l 251 222 q 274 215 267 222 q 292 198 281 207 q 324 181 303 189 q 386 174 344 174 q 458 185 428 174 q 489 217 489 196 m 254 -124 q 272 -87 257 -104 q 314 -69 286 -69 l 474 -69 q 495 -78 486 -69 q 504 -100 504 -87 q 503 -110 504 -106 l 426 -303 q 408 -332 421 -317 q 367 -347 394 -347 l 254 -347 q 233 -338 242 -347 q 224 -317 224 -329 l 224 -314 l 254 -124 z "},"t":{"ha":658,"x_min":22,"x_max":621,"o":"m 413 282 q 426 233 413 250 q 472 215 440 215 l 583 215 q 610 204 599 215 q 621 178 621 193 l 621 38 q 610 11 621 22 q 583 0 599 0 l 451 0 q 333 19 386 0 q 242 73 279 38 q 183 159 204 108 q 163 274 163 210 l 163 507 l 60 507 q 33 518 44 507 q 22 544 22 529 l 22 685 q 33 711 22 700 q 60 722 44 722 l 163 722 l 163 949 q 174 975 163 964 q 200 986 185 986 l 375 986 q 401 975 390 986 q 413 949 413 964 l 413 722 l 569 722 q 596 711 585 722 q 607 685 607 700 l 607 544 q 596 518 607 529 q 569 507 585 507 l 413 507 l 413 282 z "},"ŧ":{"ha":660,"x_min":24,"x_max":622,"o":"m 571 514 q 597 503 586 514 q 608 476 608 492 l 608 406 q 597 379 608 390 q 571 368 586 368 l 414 368 l 414 282 q 428 233 414 250 q 474 215 442 215 l 585 215 q 611 204 600 215 q 622 178 622 193 l 622 38 q 611 11 622 22 q 585 0 600 0 l 453 0 q 334 19 388 0 q 243 73 281 38 q 185 159 206 108 q 164 274 164 210 l 164 368 l 61 368 q 35 379 46 368 q 24 406 24 390 l 24 476 q 35 503 24 492 q 61 514 46 514 l 164 514 l 164 576 l 61 576 q 35 588 46 576 q 24 614 24 599 l 24 685 q 35 711 24 700 q 61 722 46 722 l 164 722 l 164 949 q 175 975 164 964 q 201 986 186 986 l 376 986 q 403 975 392 986 q 414 949 414 964 l 414 722 l 571 722 q 597 711 586 722 q 608 685 608 700 l 608 614 q 597 588 608 599 q 571 576 586 576 l 414 576 l 414 514 l 571 514 l 571 514 z "},"ť":{"ha":767,"x_min":22,"x_max":921,"o":"m 413 282 q 426 233 413 250 q 472 215 440 215 l 583 215 q 610 204 599 215 q 621 178 621 193 l 621 38 q 610 11 621 22 q 583 0 599 0 l 451 0 q 333 19 386 0 q 242 73 279 38 q 183 159 204 108 q 163 274 163 210 l 163 507 l 60 507 q 33 518 44 507 q 22 544 22 529 l 22 685 q 33 711 22 700 q 60 722 44 722 l 163 722 l 163 949 q 174 975 163 964 q 200 986 185 986 l 375 986 q 401 975 390 986 q 413 949 413 964 l 413 722 l 569 722 q 596 711 585 722 q 607 685 607 700 l 607 544 q 596 518 607 529 q 569 507 585 507 l 413 507 l 413 282 m 671 932 q 688 969 674 951 q 731 986 703 986 l 890 986 q 912 977 903 986 q 921 956 921 968 q 919 946 921 950 l 843 753 q 824 724 838 739 q 783 708 811 708 l 671 708 q 649 717 658 708 q 640 739 640 726 l 640 742 l 671 932 z "},"ţ":{"ha":658,"x_min":22,"x_max":621,"o":"m 413 282 q 426 233 413 250 q 472 215 440 215 l 583 215 q 610 204 599 215 q 621 178 621 193 l 621 38 q 610 11 621 22 q 583 0 599 0 l 451 0 q 333 19 386 0 q 242 73 279 38 q 183 159 204 108 q 163 274 163 210 l 163 507 l 60 507 q 33 518 44 507 q 22 544 22 529 l 22 685 q 33 711 22 700 q 60 722 44 722 l 163 722 l 163 949 q 174 975 163 964 q 200 986 185 986 l 375 986 q 401 975 390 986 q 413 949 413 964 l 413 722 l 569 722 q 596 711 585 722 q 607 685 607 700 l 607 544 q 596 518 607 529 q 569 507 585 507 l 413 507 l 413 282 m 186 -124 q 203 -87 189 -104 q 246 -69 218 -69 l 406 -69 q 427 -78 418 -69 q 436 -100 436 -87 q 435 -110 436 -106 l 358 -303 q 340 -332 353 -317 q 299 -347 326 -347 l 186 -347 q 165 -338 174 -347 q 156 -317 156 -329 l 156 -314 l 186 -124 z "},"u":{"ha":881,"x_min":74,"x_max":800,"o":"m 74 685 q 85 711 74 700 q 111 722 96 722 l 286 722 q 313 711 301 722 q 324 685 324 700 l 324 333 q 350 238 324 274 q 438 201 376 201 q 524 238 499 201 q 550 333 550 274 l 550 685 q 561 711 550 700 q 588 722 572 722 l 763 722 q 789 711 778 722 q 800 685 800 700 l 800 38 q 789 11 800 22 q 763 0 778 0 l 601 0 q 575 11 586 0 q 564 38 564 22 l 564 69 q 537 40 553 54 q 497 13 521 25 q 442 -6 474 1 q 368 -14 411 -14 q 153 63 233 -14 q 74 303 74 139 l 74 685 z "},"ú":{"ha":881,"x_min":74,"x_max":800,"o":"m 74 685 q 85 711 74 700 q 111 722 96 722 l 286 722 q 313 711 301 722 q 324 685 324 700 l 324 333 q 350 238 324 274 q 438 201 376 201 q 524 238 499 201 q 550 333 550 274 l 550 685 q 561 711 550 700 q 588 722 572 722 l 763 722 q 789 711 778 722 q 800 685 800 700 l 800 38 q 789 11 800 22 q 763 0 778 0 l 601 0 q 575 11 586 0 q 564 38 564 22 l 564 69 q 537 40 553 54 q 497 13 521 25 q 442 -6 474 1 q 368 -14 411 -14 q 153 63 233 -14 q 74 303 74 139 l 74 685 m 475 1022 q 501 1044 490 1040 q 526 1049 511 1049 l 711 1049 q 738 1021 738 1049 q 731 1004 738 1011 l 543 850 q 519 833 532 840 q 485 826 507 826 l 363 826 q 340 849 340 826 q 347 867 340 860 l 475 1022 z "},"ŭ":{"ha":881,"x_min":74,"x_max":800,"o":"m 74 685 q 85 711 74 700 q 111 722 96 722 l 286 722 q 313 711 301 722 q 324 685 324 700 l 324 333 q 350 238 324 274 q 438 201 376 201 q 524 238 499 201 q 550 333 550 274 l 550 685 q 561 711 550 700 q 588 722 572 722 l 763 722 q 789 711 778 722 q 800 685 800 700 l 800 38 q 789 11 800 22 q 763 0 778 0 l 601 0 q 575 11 586 0 q 564 38 564 22 l 564 69 q 537 40 553 54 q 497 13 521 25 q 442 -6 474 1 q 368 -14 411 -14 q 153 63 233 -14 q 74 303 74 139 l 74 685 m 436 819 q 328 838 372 819 q 258 887 285 857 q 220 953 232 917 q 208 1022 208 989 q 215 1041 208 1033 q 235 1049 222 1049 l 351 1049 q 371 1041 364 1049 q 378 1022 378 1033 q 392 974 378 996 q 436 953 407 953 q 480 974 465 953 q 494 1022 494 996 q 501 1041 494 1033 q 521 1049 508 1049 l 638 1049 q 657 1041 650 1049 q 664 1022 664 1033 q 652 953 664 989 q 614 887 640 917 q 544 838 588 857 q 436 819 500 819 z "},"û":{"ha":881,"x_min":74,"x_max":800,"o":"m 74 685 q 85 711 74 700 q 111 722 96 722 l 286 722 q 313 711 301 722 q 324 685 324 700 l 324 333 q 350 238 324 274 q 438 201 376 201 q 524 238 499 201 q 550 333 550 274 l 550 685 q 561 711 550 700 q 588 722 572 722 l 763 722 q 789 711 778 722 q 800 685 800 700 l 800 38 q 789 11 800 22 q 763 0 778 0 l 601 0 q 575 11 586 0 q 564 38 564 22 l 564 69 q 537 40 553 54 q 497 13 521 25 q 442 -6 474 1 q 368 -14 411 -14 q 153 63 233 -14 q 74 303 74 139 l 74 685 m 497 1049 q 524 1043 513 1049 q 549 1022 535 1038 l 690 867 q 697 849 697 860 q 675 826 697 826 l 582 826 q 560 831 568 826 q 539 842 551 835 l 436 901 l 333 842 q 313 831 321 835 q 290 826 304 826 l 197 826 q 175 849 175 826 q 182 867 175 860 l 324 1022 q 349 1043 338 1038 q 375 1049 360 1049 l 497 1049 z "},"ü":{"ha":881,"x_min":74,"x_max":800,"o":"m 74 685 q 85 711 74 700 q 111 722 96 722 l 286 722 q 313 711 301 722 q 324 685 324 700 l 324 333 q 350 238 324 274 q 438 201 376 201 q 524 238 499 201 q 550 333 550 274 l 550 685 q 561 711 550 700 q 588 722 572 722 l 763 722 q 789 711 778 722 q 800 685 800 700 l 800 38 q 789 11 800 22 q 763 0 778 0 l 601 0 q 575 11 586 0 q 564 38 564 22 l 564 69 q 537 40 553 54 q 497 13 521 25 q 442 -6 474 1 q 368 -14 411 -14 q 153 63 233 -14 q 74 303 74 139 l 74 685 m 388 864 q 376 838 388 849 q 350 826 365 826 l 210 826 q 183 838 194 826 q 172 864 172 849 l 172 1004 q 183 1031 172 1019 q 210 1042 194 1042 l 350 1042 q 376 1031 365 1042 q 388 1004 388 1019 l 388 864 m 700 864 q 689 838 700 849 q 663 826 678 826 l 522 826 q 496 838 507 826 q 485 864 485 849 l 485 1004 q 496 1031 485 1019 q 522 1042 507 1042 l 663 1042 q 689 1031 678 1042 q 700 1004 700 1019 l 700 864 z "},"ű":{"ha":881,"x_min":74,"x_max":811,"o":"m 74 685 q 85 711 74 700 q 111 722 96 722 l 286 722 q 313 711 301 722 q 324 685 324 700 l 324 333 q 350 238 324 274 q 438 201 376 201 q 524 238 499 201 q 550 333 550 274 l 550 685 q 561 711 550 700 q 588 722 572 722 l 763 722 q 789 711 778 722 q 800 685 800 700 l 800 38 q 789 11 800 22 q 763 0 778 0 l 601 0 q 575 11 586 0 q 564 38 564 22 l 564 69 q 537 40 553 54 q 497 13 521 25 q 442 -6 474 1 q 368 -14 411 -14 q 153 63 233 -14 q 74 303 74 139 l 74 685 m 271 1022 q 289 1042 278 1036 q 322 1049 300 1049 l 478 1049 q 506 1022 506 1049 q 497 1004 506 1013 l 351 846 q 304 826 335 826 l 217 826 q 194 849 194 826 q 197 860 194 854 q 201 869 199 865 l 271 1022 m 576 1022 q 594 1042 583 1036 q 628 1049 606 1049 l 783 1049 q 811 1022 811 1049 q 803 1004 811 1013 l 657 846 q 610 826 640 826 l 522 826 q 500 849 500 826 q 502 860 500 854 q 507 869 504 865 l 576 1022 z "},"ù":{"ha":881,"x_min":74,"x_max":800,"o":"m 74 685 q 85 711 74 700 q 111 722 96 722 l 286 722 q 313 711 301 722 q 324 685 324 700 l 324 333 q 350 238 324 274 q 438 201 376 201 q 524 238 499 201 q 550 333 550 274 l 550 685 q 561 711 550 700 q 588 722 572 722 l 763 722 q 789 711 778 722 q 800 685 800 700 l 800 38 q 789 11 800 22 q 763 0 778 0 l 601 0 q 575 11 586 0 q 564 38 564 22 l 564 69 q 537 40 553 54 q 497 13 521 25 q 442 -6 474 1 q 368 -14 411 -14 q 153 63 233 -14 q 74 303 74 139 l 74 685 m 535 867 q 542 849 542 860 q 519 826 542 826 l 397 826 q 363 833 375 826 q 339 850 350 840 l 151 1004 q 144 1021 144 1011 q 171 1049 144 1049 l 356 1049 q 381 1044 371 1049 q 407 1022 392 1040 l 535 867 z "},"ū":{"ha":881,"x_min":74,"x_max":800,"o":"m 74 685 q 85 711 74 700 q 111 722 96 722 l 286 722 q 313 711 301 722 q 324 685 324 700 l 324 333 q 350 238 324 274 q 438 201 376 201 q 524 238 499 201 q 550 333 550 274 l 550 685 q 561 711 550 700 q 588 722 572 722 l 763 722 q 789 711 778 722 q 800 685 800 700 l 800 38 q 789 11 800 22 q 763 0 778 0 l 601 0 q 575 11 586 0 q 564 38 564 22 l 564 69 q 537 40 553 54 q 497 13 521 25 q 442 -6 474 1 q 368 -14 411 -14 q 153 63 233 -14 q 74 303 74 139 l 74 685 m 236 826 q 210 838 221 826 q 199 864 199 849 l 199 983 q 210 1010 199 999 q 236 1021 221 1021 l 638 1021 q 664 1010 653 1021 q 675 983 675 999 l 675 864 q 664 838 675 849 q 638 826 653 826 l 236 826 z "},"ų":{"ha":881,"x_min":74,"x_max":800,"o":"m 74 685 q 85 711 74 700 q 111 722 96 722 l 286 722 q 313 711 301 722 q 324 685 324 700 l 324 333 q 350 238 324 274 q 438 201 376 201 q 524 238 499 201 q 550 333 550 274 l 550 685 q 561 711 550 700 q 588 722 572 722 l 763 722 q 789 711 778 722 q 800 685 800 700 l 800 38 q 789 11 800 22 q 763 0 778 0 l 742 0 q 692 -24 710 -3 q 674 -78 674 -46 q 693 -133 674 -110 q 749 -156 713 -156 l 769 -156 q 800 -186 800 -156 l 800 -275 q 769 -306 800 -306 l 743 -306 q 649 -288 690 -306 q 578 -241 607 -271 q 533 -169 549 -211 q 518 -78 518 -128 q 564 42 518 -11 l 564 69 q 537 40 553 54 q 497 13 521 25 q 442 -6 474 1 q 368 -14 411 -14 q 153 63 233 -14 q 74 303 74 139 l 74 685 z "},"ů":{"ha":881,"x_min":74,"x_max":800,"o":"m 74 685 q 85 711 74 700 q 111 722 96 722 l 286 722 q 313 711 301 722 q 324 685 324 700 l 324 333 q 350 238 324 274 q 438 201 376 201 q 524 238 499 201 q 550 333 550 274 l 550 685 q 561 711 550 700 q 588 722 572 722 l 763 722 q 789 711 778 722 q 800 685 800 700 l 800 38 q 789 11 800 22 q 763 0 778 0 l 601 0 q 575 11 586 0 q 564 38 564 22 l 564 69 q 537 40 553 54 q 497 13 521 25 q 442 -6 474 1 q 368 -14 411 -14 q 153 63 233 -14 q 74 303 74 139 l 74 685 m 394 944 q 406 915 394 926 q 436 903 418 903 q 466 915 454 903 q 478 944 478 926 q 466 974 478 963 q 436 986 454 986 q 406 974 418 986 q 394 944 394 963 m 304 944 q 343 1034 304 999 q 436 1069 382 1069 q 529 1034 490 1069 q 568 944 568 999 q 529 855 568 890 q 436 819 490 819 q 343 855 382 819 q 304 944 304 890 z "},"ũ":{"ha":881,"x_min":74,"x_max":800,"o":"m 74 685 q 85 711 74 700 q 111 722 96 722 l 286 722 q 313 711 301 722 q 324 685 324 700 l 324 333 q 350 238 324 274 q 438 201 376 201 q 524 238 499 201 q 550 333 550 274 l 550 685 q 561 711 550 700 q 588 722 572 722 l 763 722 q 789 711 778 722 q 800 685 800 700 l 800 38 q 789 11 800 22 q 763 0 778 0 l 601 0 q 575 11 586 0 q 564 38 564 22 l 564 69 q 537 40 553 54 q 497 13 521 25 q 442 -6 474 1 q 368 -14 411 -14 q 153 63 233 -14 q 74 303 74 139 l 74 685 m 550 819 q 483 829 508 819 q 440 851 458 839 q 405 872 421 863 q 367 882 389 882 q 342 873 350 882 q 327 853 333 864 q 315 835 321 843 q 299 826 310 826 l 193 826 q 174 834 181 826 q 167 853 167 842 q 176 917 167 883 q 204 978 185 951 q 253 1024 224 1006 q 322 1042 282 1042 q 389 1032 364 1042 q 433 1010 414 1022 q 467 989 451 999 q 506 979 483 979 q 531 988 522 979 q 545 1006 539 996 q 557 1026 551 1017 q 574 1035 563 1035 l 679 1035 q 699 1027 692 1035 q 706 1008 706 1019 q 694 943 706 976 q 663 883 683 910 q 613 838 642 856 q 550 819 585 819 z "},"v":{"ha":867,"x_min":24,"x_max":843,"o":"m 351 0 q 322 11 331 0 q 306 35 313 22 l 25 679 q 24 689 24 683 q 33 713 24 703 q 57 722 43 722 l 235 722 q 265 711 256 722 q 281 689 275 700 l 433 326 l 586 689 q 601 711 592 700 q 632 722 611 722 l 810 722 q 833 713 824 722 q 843 689 843 703 q 842 679 843 683 l 561 35 q 545 11 554 22 q 515 0 536 0 l 351 0 l 351 0 z "},"w":{"ha":1203,"x_min":31,"x_max":1172,"o":"m 667 722 q 699 711 688 722 q 714 689 710 700 l 817 374 l 919 689 q 935 711 924 700 q 967 722 946 722 l 1139 722 q 1163 713 1153 722 q 1172 689 1172 703 q 1171 678 1172 683 l 950 35 q 935 11 946 22 q 904 0 925 0 l 746 0 q 715 11 725 0 q 700 35 706 22 l 601 326 l 503 35 q 488 11 497 22 q 457 0 478 0 l 299 0 q 267 11 278 0 q 253 35 257 22 l 32 678 q 31 689 31 683 q 40 713 31 703 q 64 722 50 722 l 236 722 q 268 711 257 722 q 283 689 279 700 l 386 374 l 489 689 q 504 711 493 700 q 536 722 515 722 l 667 722 z "},"ẃ":{"ha":1203,"x_min":31,"x_max":1172,"o":"m 667 722 q 699 711 688 722 q 714 689 710 700 l 817 374 l 919 689 q 935 711 924 700 q 967 722 946 722 l 1139 722 q 1163 713 1153 722 q 1172 689 1172 703 q 1171 678 1172 683 l 950 35 q 935 11 946 22 q 904 0 925 0 l 746 0 q 715 11 725 0 q 700 35 706 22 l 601 326 l 503 35 q 488 11 497 22 q 457 0 478 0 l 299 0 q 267 11 278 0 q 253 35 257 22 l 32 678 q 31 689 31 683 q 40 713 31 703 q 64 722 50 722 l 236 722 q 268 711 257 722 q 283 689 279 700 l 386 374 l 489 689 q 504 711 493 700 q 536 722 515 722 l 667 722 m 639 1022 q 665 1044 654 1040 q 690 1049 675 1049 l 875 1049 q 901 1021 901 1049 q 894 1004 901 1011 l 707 850 q 683 833 696 840 q 649 826 671 826 l 526 826 q 504 849 504 826 q 511 867 504 860 l 639 1022 z "},"ŵ":{"ha":1203,"x_min":31,"x_max":1172,"o":"m 667 722 q 699 711 688 722 q 714 689 710 700 l 817 374 l 919 689 q 935 711 924 700 q 967 722 946 722 l 1139 722 q 1163 713 1153 722 q 1172 689 1172 703 q 1171 678 1172 683 l 950 35 q 935 11 946 22 q 904 0 925 0 l 746 0 q 715 11 725 0 q 700 35 706 22 l 601 326 l 503 35 q 488 11 497 22 q 457 0 478 0 l 299 0 q 267 11 278 0 q 253 35 257 22 l 32 678 q 31 689 31 683 q 40 713 31 703 q 64 722 50 722 l 236 722 q 268 711 257 722 q 283 689 279 700 l 386 374 l 489 689 q 504 711 493 700 q 536 722 515 722 l 667 722 m 663 1049 q 689 1043 678 1049 q 714 1022 700 1038 l 856 867 q 863 849 863 860 q 840 826 863 826 l 747 826 q 725 831 733 826 q 704 842 717 835 l 601 901 l 499 842 q 478 831 486 835 q 456 826 469 826 l 363 826 q 340 849 340 826 q 347 867 340 860 l 489 1022 q 514 1043 503 1038 q 540 1049 525 1049 l 663 1049 z "},"ẅ":{"ha":1203,"x_min":31,"x_max":1172,"o":"m 667 722 q 699 711 688 722 q 714 689 710 700 l 817 374 l 919 689 q 935 711 924 700 q 967 722 946 722 l 1139 722 q 1163 713 1153 722 q 1172 689 1172 703 q 1171 678 1172 683 l 950 35 q 935 11 946 22 q 904 0 925 0 l 746 0 q 715 11 725 0 q 700 35 706 22 l 601 326 l 503 35 q 488 11 497 22 q 457 0 478 0 l 299 0 q 267 11 278 0 q 253 35 257 22 l 32 678 q 31 689 31 683 q 40 713 31 703 q 64 722 50 722 l 236 722 q 268 711 257 722 q 283 689 279 700 l 386 374 l 489 689 q 504 711 493 700 q 536 722 515 722 l 667 722 m 553 864 q 542 838 553 849 q 515 826 531 826 l 375 826 q 349 838 360 826 q 338 864 338 849 l 338 1004 q 349 1031 338 1019 q 375 1042 360 1042 l 515 1042 q 542 1031 531 1042 q 553 1004 553 1019 l 553 864 m 865 864 q 854 838 865 849 q 828 826 843 826 l 688 826 q 661 838 672 826 q 650 864 650 849 l 650 1004 q 661 1031 650 1019 q 688 1042 672 1042 l 828 1042 q 854 1031 843 1042 q 865 1004 865 1019 l 865 864 z "},"ẁ":{"ha":1203,"x_min":31,"x_max":1172,"o":"m 667 722 q 699 711 688 722 q 714 689 710 700 l 817 374 l 919 689 q 935 711 924 700 q 967 722 946 722 l 1139 722 q 1163 713 1153 722 q 1172 689 1172 703 q 1171 678 1172 683 l 950 35 q 935 11 946 22 q 904 0 925 0 l 746 0 q 715 11 725 0 q 700 35 706 22 l 601 326 l 503 35 q 488 11 497 22 q 457 0 478 0 l 299 0 q 267 11 278 0 q 253 35 257 22 l 32 678 q 31 689 31 683 q 40 713 31 703 q 64 722 50 722 l 236 722 q 268 711 257 722 q 283 689 279 700 l 386 374 l 489 689 q 504 711 493 700 q 536 722 515 722 l 667 722 m 696 867 q 703 849 703 860 q 681 826 703 826 l 558 826 q 524 833 536 826 q 500 850 511 840 l 313 1004 q 306 1021 306 1011 q 332 1049 306 1049 l 517 1049 q 542 1044 532 1049 q 568 1022 553 1040 l 696 867 z "},"x":{"ha":856,"x_min":22,"x_max":832,"o":"m 583 361 l 826 51 q 832 32 832 43 q 822 10 832 19 q 799 0 813 0 l 586 0 q 558 10 568 0 q 542 26 547 19 l 426 172 l 313 26 q 297 10 307 19 q 268 0 286 0 l 56 0 q 32 10 42 0 q 22 32 22 19 q 28 51 22 43 l 274 367 l 35 671 q 29 690 29 679 q 39 713 29 703 q 63 722 49 722 l 278 722 q 306 713 296 722 q 322 696 317 703 l 429 558 l 536 696 q 552 713 542 703 q 581 722 563 722 l 796 722 q 819 713 810 722 q 829 690 829 703 q 824 671 829 679 l 583 361 z "}}}
